<mxfile scale="1.2" border="0" host="Electron" agent="Mozilla/5.0 (Windows NT 10.0; Win64; x64) AppleWebKit/537.36 (KHTML, like Gecko) draw.io/26.2.2 Chrome/134.0.6998.178 Electron/35.1.2 Safari/537.36" version="26.2.2" pages="2">
  <diagram name="design" id="ahwWs56YI2XBYRBzwlqw">
    <mxGraphModel dx="-149" dy="550" grid="1" gridSize="10" guides="1" tooltips="1" connect="1" arrows="1" fold="1" page="0" pageScale="1" pageWidth="850" pageHeight="1100" background="#2A2A2A" math="0" shadow="0">
      <root>
        <mxCell id="0" />
        <mxCell id="1" parent="0" />
        <mxCell id="VDgp7xIS0GzNU363Rtex-17" style="rounded=0;orthogonalLoop=1;jettySize=auto;html=1;exitX=0.099;exitY=-0.008;exitDx=0;exitDy=0;entryX=0.5;entryY=1;entryDx=0;entryDy=0;edgeStyle=orthogonalEdgeStyle;curved=1;exitPerimeter=0;strokeWidth=3;labelBackgroundColor=none;fontColor=default;strokeColor=default;align=center;verticalAlign=middle;fontFamily=Helvetica;fontSize=11;endArrow=classic;" parent="1" source="HHQ_va1JwgnbjhiMGAxb-3" target="HHQ_va1JwgnbjhiMGAxb-13" edge="1">
          <mxGeometry relative="1" as="geometry" />
        </mxCell>
        <mxCell id="VDgp7xIS0GzNU363Rtex-31" value="plays sounds" style="edgeLabel;html=1;align=center;verticalAlign=middle;resizable=0;points=[];fontFamily=Helvetica;fontSize=11;fontColor=default;labelBackgroundColor=none;rounded=0;strokeColor=default;strokeWidth=3;" parent="VDgp7xIS0GzNU363Rtex-17" vertex="1" connectable="0">
          <mxGeometry x="-0.1" y="1" relative="1" as="geometry">
            <mxPoint x="-10" y="29" as="offset" />
          </mxGeometry>
        </mxCell>
        <mxCell id="VDgp7xIS0GzNU363Rtex-18" style="edgeStyle=orthogonalEdgeStyle;rounded=0;orthogonalLoop=1;jettySize=auto;html=1;exitX=1;exitY=0.5;exitDx=0;exitDy=0;entryX=0;entryY=0.5;entryDx=0;entryDy=0;strokeWidth=3;labelBackgroundColor=none;fontColor=default;strokeColor=default;align=center;verticalAlign=middle;fontFamily=Helvetica;fontSize=11;endArrow=classic;" parent="1" source="HHQ_va1JwgnbjhiMGAxb-3" target="VDgp7xIS0GzNU363Rtex-1" edge="1">
          <mxGeometry relative="1" as="geometry" />
        </mxCell>
        <mxCell id="VDgp7xIS0GzNU363Rtex-23" value="sends commands&lt;div&gt;like ARM, DISARM&lt;/div&gt;" style="edgeLabel;html=1;align=center;verticalAlign=middle;resizable=0;points=[];fontFamily=Helvetica;fontSize=11;fontColor=default;labelBackgroundColor=none;rounded=0;strokeColor=default;strokeWidth=3;" parent="VDgp7xIS0GzNU363Rtex-18" vertex="1" connectable="0">
          <mxGeometry x="0.1529" y="4" relative="1" as="geometry">
            <mxPoint x="-14" y="-15" as="offset" />
          </mxGeometry>
        </mxCell>
        <mxCell id="VDgp7xIS0GzNU363Rtex-20" style="edgeStyle=orthogonalEdgeStyle;shape=connector;rounded=0;orthogonalLoop=1;jettySize=auto;html=1;exitX=0.5;exitY=0;exitDx=0;exitDy=0;entryX=0.5;entryY=1;entryDx=0;entryDy=0;strokeColor=default;align=center;verticalAlign=middle;fontFamily=Helvetica;fontSize=11;fontColor=default;labelBackgroundColor=none;endArrow=classic;curved=1;strokeWidth=3;" parent="1" source="HHQ_va1JwgnbjhiMGAxb-3" target="HHQ_va1JwgnbjhiMGAxb-15" edge="1">
          <mxGeometry relative="1" as="geometry" />
        </mxCell>
        <mxCell id="VDgp7xIS0GzNU363Rtex-32" value="commands&lt;div&gt;screen&lt;/div&gt;" style="edgeLabel;html=1;align=center;verticalAlign=middle;resizable=0;points=[];fontFamily=Helvetica;fontSize=11;fontColor=default;labelBackgroundColor=none;rounded=0;strokeColor=default;strokeWidth=3;" parent="VDgp7xIS0GzNU363Rtex-20" vertex="1" connectable="0">
          <mxGeometry x="-0.0923" y="-2" relative="1" as="geometry">
            <mxPoint x="-24" y="-2" as="offset" />
          </mxGeometry>
        </mxCell>
        <mxCell id="HHQ_va1JwgnbjhiMGAxb-3" value="Ui" style="shape=swimlane;rotatable=0;align=center;verticalAlign=top;fontFamily=Lucida Console;startSize=30;fontSize=14;fontStyle=1;fontColor=#ffffff;fillColor=#008a00;swimlaneFillColor=default;rounded=1;arcSize=15;absoluteArcSize=1;collapsible=0;strokeColor=#005700;strokeWidth=2;" parent="1" vertex="1">
          <mxGeometry x="1670" y="600" width="120" height="90" as="geometry" />
        </mxCell>
        <mxCell id="HHQ_va1JwgnbjhiMGAxb-4" value="" style="fontFamily=Lucida Console;align=left;verticalAlign=top;fillColor=none;gradientColor=none;strokeColor=none;rounded=0;spacingLeft=4;resizable=0;movable=0;deletable=0;rotatable=0;autosize=1;" parent="HHQ_va1JwgnbjhiMGAxb-3" vertex="1" connectable="0">
          <mxGeometry y="30" width="50" height="40" as="geometry" />
        </mxCell>
        <mxCell id="HHQ_va1JwgnbjhiMGAxb-11" value="sends events like&lt;div&gt;UP_PRESS&lt;/div&gt;" style="edgeStyle=orthogonalEdgeStyle;rounded=0;orthogonalLoop=1;jettySize=auto;html=1;exitX=1;exitY=0.5;exitDx=0;exitDy=0;entryX=0;entryY=0.5;entryDx=0;entryDy=0;strokeWidth=3;labelBackgroundColor=none;fontColor=default;strokeColor=default;align=center;verticalAlign=middle;fontFamily=Helvetica;fontSize=11;endArrow=classic;" parent="1" source="HHQ_va1JwgnbjhiMGAxb-7" target="HHQ_va1JwgnbjhiMGAxb-3" edge="1">
          <mxGeometry x="0.0118" y="22" relative="1" as="geometry">
            <mxPoint as="offset" />
          </mxGeometry>
        </mxCell>
        <mxCell id="HHQ_va1JwgnbjhiMGAxb-7" value="Buttons" style="shape=swimlane;rotatable=0;align=center;verticalAlign=top;fontFamily=Lucida Console;startSize=30;fontSize=14;fontStyle=1;fontColor=#ffffff;fillColor=#1ba1e2;swimlaneFillColor=default;rounded=1;arcSize=15;absoluteArcSize=1;collapsible=0;strokeColor=#006EAF;strokeWidth=2;" parent="1" vertex="1">
          <mxGeometry x="1380" y="600" width="120" height="90" as="geometry" />
        </mxCell>
        <mxCell id="HHQ_va1JwgnbjhiMGAxb-8" value="has 4 buttons" style="fontFamily=Lucida Console;align=left;verticalAlign=top;fillColor=none;gradientColor=none;strokeColor=none;rounded=0;spacingLeft=4;resizable=0;movable=0;deletable=0;rotatable=0;autosize=1;" parent="HHQ_va1JwgnbjhiMGAxb-7" vertex="1" connectable="0">
          <mxGeometry y="30" width="120" height="30" as="geometry" />
        </mxCell>
        <mxCell id="VDgp7xIS0GzNU363Rtex-40" style="edgeStyle=orthogonalEdgeStyle;shape=connector;rounded=0;orthogonalLoop=1;jettySize=auto;html=1;exitX=0.5;exitY=0;exitDx=0;exitDy=0;entryX=0.5;entryY=1;entryDx=0;entryDy=0;strokeColor=default;align=center;verticalAlign=middle;fontFamily=Helvetica;fontSize=11;fontColor=default;labelBackgroundColor=none;endArrow=classic;strokeWidth=3;curved=1;" parent="1" source="HHQ_va1JwgnbjhiMGAxb-13" target="VDgp7xIS0GzNU363Rtex-12" edge="1">
          <mxGeometry relative="1" as="geometry" />
        </mxCell>
        <mxCell id="HHQ_va1JwgnbjhiMGAxb-13" value="Audio" style="shape=swimlane;rotatable=0;align=center;verticalAlign=top;fontFamily=Lucida Console;startSize=30;fontSize=14;fontStyle=1;fontColor=#ffffff;fillColor=#008a00;swimlaneFillColor=default;rounded=1;arcSize=15;absoluteArcSize=1;collapsible=0;strokeColor=#005700;strokeWidth=2;" parent="1" vertex="1">
          <mxGeometry x="1540" y="410" width="120" height="90" as="geometry" />
        </mxCell>
        <mxCell id="HHQ_va1JwgnbjhiMGAxb-14" value="" style="fontFamily=Lucida Console;align=left;verticalAlign=top;fillColor=none;gradientColor=none;strokeColor=none;rounded=0;spacingLeft=4;resizable=0;movable=0;deletable=0;rotatable=0;autosize=1;" parent="HHQ_va1JwgnbjhiMGAxb-13" vertex="1" connectable="0">
          <mxGeometry y="30" width="50" height="40" as="geometry" />
        </mxCell>
        <mxCell id="VDgp7xIS0GzNU363Rtex-39" value="" style="shape=connector;rounded=0;orthogonalLoop=1;jettySize=auto;html=1;strokeColor=default;align=center;verticalAlign=middle;fontFamily=Helvetica;fontSize=11;fontColor=default;labelBackgroundColor=none;endArrow=classic;strokeWidth=3;" parent="1" source="HHQ_va1JwgnbjhiMGAxb-15" target="VDgp7xIS0GzNU363Rtex-11" edge="1">
          <mxGeometry relative="1" as="geometry" />
        </mxCell>
        <mxCell id="HHQ_va1JwgnbjhiMGAxb-15" value="Display" style="shape=swimlane;rotatable=0;align=center;verticalAlign=top;fontFamily=Lucida Console;startSize=30;fontSize=14;fontStyle=1;fontColor=#ffffff;fillColor=#008a00;swimlaneFillColor=default;rounded=1;arcSize=15;absoluteArcSize=1;collapsible=0;strokeColor=#005700;strokeWidth=2;" parent="1" vertex="1">
          <mxGeometry x="1690" y="410" width="120" height="90" as="geometry" />
        </mxCell>
        <mxCell id="HHQ_va1JwgnbjhiMGAxb-16" value="" style="fontFamily=Lucida Console;align=left;verticalAlign=top;fillColor=none;gradientColor=none;strokeColor=none;rounded=0;spacingLeft=4;resizable=0;movable=0;deletable=0;rotatable=0;autosize=1;" parent="HHQ_va1JwgnbjhiMGAxb-15" vertex="1" connectable="0">
          <mxGeometry y="30" width="50" height="40" as="geometry" />
        </mxCell>
        <mxCell id="VDgp7xIS0GzNU363Rtex-26" style="edgeStyle=none;shape=connector;rounded=0;orthogonalLoop=1;jettySize=auto;html=1;exitX=1;exitY=0.5;exitDx=0;exitDy=0;entryX=0;entryY=0.5;entryDx=0;entryDy=0;strokeColor=default;align=center;verticalAlign=middle;fontFamily=Helvetica;fontSize=11;fontColor=default;labelBackgroundColor=none;endArrow=classic;strokeWidth=3;" parent="1" source="VDgp7xIS0GzNU363Rtex-1" target="VDgp7xIS0GzNU363Rtex-14" edge="1">
          <mxGeometry relative="1" as="geometry" />
        </mxCell>
        <mxCell id="VDgp7xIS0GzNU363Rtex-33" value="controls" style="edgeLabel;html=1;align=center;verticalAlign=middle;resizable=0;points=[];fontFamily=Helvetica;fontSize=11;fontColor=default;labelBackgroundColor=none;rounded=0;strokeColor=default;strokeWidth=3;" parent="VDgp7xIS0GzNU363Rtex-26" vertex="1" connectable="0">
          <mxGeometry x="-0.0043" y="-1" relative="1" as="geometry">
            <mxPoint y="-16" as="offset" />
          </mxGeometry>
        </mxCell>
        <mxCell id="VDgp7xIS0GzNU363Rtex-27" style="edgeStyle=none;shape=connector;rounded=0;orthogonalLoop=1;jettySize=auto;html=1;exitX=1;exitY=0;exitDx=0;exitDy=0;entryX=0;entryY=1;entryDx=0;entryDy=0;strokeColor=default;align=center;verticalAlign=middle;fontFamily=Helvetica;fontSize=11;fontColor=default;labelBackgroundColor=none;endArrow=classic;strokeWidth=3;" parent="1" source="VDgp7xIS0GzNU363Rtex-1" target="VDgp7xIS0GzNU363Rtex-13" edge="1">
          <mxGeometry relative="1" as="geometry" />
        </mxCell>
        <mxCell id="VDgp7xIS0GzNU363Rtex-28" value="reads PIR&lt;div&gt;motion sensor&lt;/div&gt;" style="edgeLabel;html=1;align=center;verticalAlign=middle;resizable=0;points=[];fontFamily=Helvetica;fontSize=11;fontColor=default;labelBackgroundColor=#2A2A2A;rounded=0;strokeColor=default;strokeWidth=3;textShadow=0;" parent="VDgp7xIS0GzNU363Rtex-27" vertex="1" connectable="0">
          <mxGeometry x="-0.192" relative="1" as="geometry">
            <mxPoint y="-1" as="offset" />
          </mxGeometry>
        </mxCell>
        <mxCell id="VDgp7xIS0GzNU363Rtex-1" value="Controller" style="shape=swimlane;rotatable=0;align=center;verticalAlign=top;fontFamily=Lucida Console;startSize=30;fontSize=14;fontStyle=1;fontColor=#ffffff;fillColor=#a20025;swimlaneFillColor=default;rounded=1;arcSize=15;absoluteArcSize=1;collapsible=0;strokeColor=#6F0000;strokeWidth=2;" parent="1" vertex="1">
          <mxGeometry x="1960" y="600" width="120" height="90" as="geometry" />
        </mxCell>
        <mxCell id="VDgp7xIS0GzNU363Rtex-2" value="" style="fontFamily=Lucida Console;align=left;verticalAlign=top;fillColor=none;gradientColor=none;strokeColor=none;rounded=0;spacingLeft=4;resizable=0;movable=0;deletable=0;rotatable=0;autosize=1;" parent="VDgp7xIS0GzNU363Rtex-1" vertex="1" connectable="0">
          <mxGeometry y="30" width="50" height="40" as="geometry" />
        </mxCell>
        <mxCell id="VDgp7xIS0GzNU363Rtex-7" value="" style="shape=image;verticalLabelPosition=bottom;labelBackgroundColor=default;verticalAlign=top;aspect=fixed;imageAspect=0;image=data:image/png,iVBORw0KGgoAAAANSUhEUgAAAWkAAAITCAYAAADFKu10AAAAAXNSR0IArs4c6QAAAARnQU1BAACxjwv8YQUAAAAJcEhZcwAADsMAAA7DAcdvqGQAAGUKSURBVHhe7d15fFTlvT/wz+z7ZJtMNhICgQABBBMEo6ymIhZs1WqttraV/kqLdtO2t7b19tpaq+29vVdve1ulrV20UrtagYrIZkBjlCAQlhAICSELhJlMMvs+vz+SSeY8M5NMklnOTL7vvJ7X5DznzGQIySffeeac5xHU1NQEQAghhJeEbAchhBD+oJAmhBAeo5AmhBAeo5AmhBAeo5AmhBAeo5AmhBAeo5AmhBAeo5AmhBAeo5AmhBAeo5AmhBAeo5AmhBAeo5AmhBAeo5AmhBAeo5AmhBAeo5AmhBAeo5AmhBAeo5AmhBAeo5AmhBAeo5AmhBAeo5AmhBAeo5AmhBAeE9Bq4SRdVVZWjnxutVphsVhgsVg4xyRb6HPC8PPq6enh9BEyERTSJO1oNBrce++9bDcAYPv27SkL6pqaGtTU1LDdaGpqQlNTE9tNSExouIOknaKiIrZrxFj7Ei1SQCNCdU3IRFBIk4yi0WjYLkLSGoU0IYTwGIU0IYTwGIU0IYTwGIU0IYTwGIU0IYTwGIU0IYTwGIU0IYTwGIU0IYTwGIU0IYTwGIU0IYTwGIU0IYTwGIU0IYTwGIU0IYTwGIU0IYTwmKi4uPhxtpMQvikuLkZRURHy8vJQXFyMvLw89hCOvLw8yGSyhC8AUFlZiby8POTl5aG8vJzdDQAjzyN4nNvthtvtZg8jJCJamYWkhS1btrBdMUnkSi3RVmIZT2trKw4ePMh2ExIRDXeQjJbIRQAS+diEBFFIE0IIj9FwB0kYoVAImUwGmUwGoXBq9YBKpWK7YmKz2diuuJnsc8IUnlcgEIDH46Fx7WmEQpokjEKhgFKpZLtJHAQCAZjNZni9XnYXyTBTK28IiUIkEkEmk7HdJE4EAgEkEgnbTTIQhTRJCJ/PB5FIxHaTOJrqEBJJD/S/TAghPEZj0iRhIl1wotFoMHPmTBQXF7O7SBRdXV04ffo02w2n0znpNyBJ+qCQJgkTKaRvueUW3H///Ww3GcP777+P3//+9xgYGOD0U0hPDzTcQZJKoVCwXWQc1113XcKumiT8RyFNCCE8RiFNCCE8RiFNeGHfvn144okn8LWvfQ3btm2D0WhkD8lIAwMD+NGPfoStW7fixRdfZHcTQlOVksSJdLXh/PnzUVVVxenr6+vDo48+in/84x9obm7G/v37IZFIsGrVKs5xmejWW2/Fjh07cObMGezZswc2mw1r165lD8Orr76KQID7Hr/X64XH4+H0kcxDlTRJuX/96194//33OX0vv/wyzp49y+nLNK+++ipOnTrF6du2bVtYGJPpjUKapFyk+ScsFkvGh5XL5WK74PV6aeIkwkEhTVLupptuClvV5I477sD8+fM5fZlmw4YN0Ol0nL67776b5jwhHDQmTRIm1jHpnJwc5ObmQiKRID8/Hx/72MewefNm5Obmco7LNHK5HKtWrYLJZIJcLsfdd9+Nn/zkJ+xhAI1JT2t0xSFJmEhXHN5+++2466672O6k6e8XoqlJjNOnxejsFMFgEMFmE8DnE0AsFkCtDiA3NwC93o+SEh/KyryYNcuL0tLwIZlk+sxnPgOfz8fpoysOpwcKaZIwfAnps2dF2LlThjfflOLo0dHpPUUiQC4HZDLubaS+3Fw/rrnGg2uucWHx4vCx5ESjkJ6+aEyaZKzXXpPh7ruzsGpVLn78YxUnoAHA5wNcrthaf78Q774rw+9/r8WTT+qwd68aAwM0FStJPAppknF27pRh/foc/L//p8Vbb0nZ3RxeL+B0cpvDwb1lm8kkwIEDCvzsZ7nYu1cNu51+jUji0E8XyRjt7SI88IAWmzdrceyYmN0d1XgVtdMZ3hdsDQ0KbNuWi+PHaeIokhgU0iQjvPSSHKtX52DXrsmdvhapog62YFBH67NYBNizR40dO7Sw2ehXisQX/USRtPfd76rxyCMauFwCdteYBAIPxGIDZLJOyOVtkEjOAWiHz9cDj8cSVjWP11paZHjllRx0dY09xELIRFBIk7T2wANa/OpXsQ81yGSd0GjegVZbD5XqA0gkRgQCQvh8Gvh82fB45HA6XXA42uF0HobdXg+brRlO5yBnjJodrw5uGwxC/P3vWTh3Ts5+aUImhS5mIQkT68Usk/WJT2Rhz57xhzeEQjtUqhOQy9vg82ngcFTB5ZoFt7sEXq8OPp8Wfr8Kfr9qOKxz4HYXwOEog9U6EzabFG53B/z+VojFAQgE2RAMF+0CwVALfh687eiQITvbD50uPudX08Us0xdV0iQtffazcuzfP/7whkp1FCrVMTgcc2A2r4LLNQuBQOxvKgKA15uDgYGl6OxcjXPnfOjtrYfD0R1xrDq0vfGGBhcujP9HhJCxUEiTtPPtbwvxr38BgHe4hZNKu6HV1sPtLoXFcgN8viz2kEmx2ytw8eJqnD3bj6tXG8LGpdn2r39p0dc3sT8KhISikCZp5Q9/8OM3v/EC8DBtlFLZDInkCszm1fB48jn74mVgYDHOnq1EZ2c9HI6BsCo6OEZttwNvvqmB3z9+1U9IJBTSJG2cO+fHo486QypotgFqdSP8fgVstmr27nHn9ebhwoWVaGtrhsNxJayKDraeHjHeekvN3p2QmFBIk7Tx/e9b4fWyFfRoU6vfgcdTCKdzDnvXBBKiq2sVLlw4B7v96kglzY5XHzkiR3s7nZpHJo5CmqSFf/zDjj177BGq56GmVJ6A16uHyzWTvWtSdHWtxMWLLXA67WGVdLDV16vYuxEyLgppkhaefdYUVjkHm1TaCYFAlOQKOtylS9ehu7uJMyYdOkbd2SnG8eN0/jSZGAppAgAQyrKgL6tAxexxWkHyx1b/+tdBnD4drYp2Qy7vg822jL1b0vn9cnR2lqO//8TIcAdbTb/zTvi544SMhUJ6uhPrULVqAzauX40VS6pQtXCcNpu73FMy/P73V8Oq59Fx6BbY7TXsXVLG7S5FX58VDsfQZeXsWR9dXSKcOUPnTpPYUUhPaxKUX7cCFdnD8yx7PfC4x2/JdOKEDY2NgxEqaC9EIjMEAgW83vDFBVKpr28pTKbmsCo62JqaaMiDxI5WZpnOVPOx7qa5UAfs6Hz3AI4b/OwRUxKPlVmefLIDzz57GYAEgJhzq1Z3weFYD58v+UMw49Hp3sOMGVWQy9URV3r5/veNUKli/37TyizTF1XS05lUMvQDYGqLe0DHy549V8Mq6KHmgUCg4GVAA4DJNA9Wa2vUsekzZ+h0PBIbCmkC8DOf0dXlwJkzA2Hj0IAHcnkv3O5F7F14w+fLgtVqjXjOtNMJnDnDXcqLkGgopKezAQvsAQByJfhYjx450h+hgh5qEokLLlcpexdesdly4Xb3h1XRLhfQ0kIhTWJDIT2dBTrQ1u0C1LOwuJx/ZxycPBn93GiBIPY5pFPF4SiCy3U54pqJnZ0i2O00nwcZH4X0tKaGxOeEB0LoFq3DutoVWLFinDYveafgnT8f+awOodAOny95z2OyvN48eDymsCo6OATS20uz45HxUUhPazqUzcyCBAAEEqh1euj147Tc5A2MdHUNhlXQgAdisRk+XxF7OC95PL6w8ehgUPf10a8fGR/9lExrVpj6+tA3kdZvZR8kYYxGW1gVPVRJe+HzadnDecnnE4RV0sFmMtGvHxkfnSdNEmaq50lXVv4BAwO+4XOjR8+PVigc8Hg+Ca83h70L72g0h2G3r4x4rvRDD9nw8Y/b2btEROdJT1/0p5zwls/nCauiAS8EAj8CgXT50RXA5wuvol0uwO1mjyUkXLr8pJM4kCiVUKqm2GTJ+5GRSv3Dwcwdkw4EPBAIuFUlfw29UPV6w8+VFgjoRSwZHw13TBs5WFy3EuVTnYTN0IwdDR1sb0RTHe5YseIFtLfbwi4Hl8kcCAQ+A7e7mL0L72i19TCbV49si8Wjwx1PPmnBnXc6OcdHQ8Md01fyyiKS/gL+pE6wpNfLALiHK+jRW78/AJGojz08LYRW1Lm5PL3Uk/AKVdLTXe5i1N1QDtHl4zjc1Dl0BSJLWY7aNYuhc3fg8P5mmCIdE8FUK+kvfek1/PnPZ5g3DsUQCERQq+fDYvkoexdeEQg8UKmOwmpdwe6CWAwcPGhCZaWX3RURVdLTF1XS05oaVUvKoXR34uiRKAENAPYONDR1w6UsR/Wi5J1RMW9ebpQxaR8Egsvs4bwjkfTB6428WnkgAMydG1tAk+mNQno6085CkRrwXO2Fgd3H6ruCfj+g1M9AFrsvQZYsKRoO5tCzO3wAvPD7+yEUxnb6WqpIpd1Rx82XLvVAQFeFkxhQSE9nIrZjLCKIBACkMkz1vcdYLV9eFlJBc8emXa5ByGSn2LvwilDohN8feYL/FSuSN7ZP0huF9HQ2PMQpyZ8B/XhV3Ywi6AQA3C7Edj7C1MnlEqxbNzvsPGnAC49HConkCHsX3pBKu+B2R790fc0aCmkSGwrp6czcC4MLgKwE161ejKIoJbKyeAnqluohBOAy9sLEHpBAt9wyP2TII/TWA4/nEqTSbvYuvCCXt8PpnMt2AwDy8vxYt46uZCGxoZCe1gw4fqQD9gAg1JZjWd1t2LihDquDM96tqsOGjbehrqYMSgEAbx9aTo87eh1Xt9++NKyKDjaHIwC5fBd7l5STSrvh9eay3SPuuMPFdhESFYX0dNffjAOHT6NveAxDKFEiKzjjXbYSkuGfEI+pA0f2N6IzyQVgbq4K99xzbdiYdPDW7T4LufwEe7eUksvbYLcvZLtHfOITyRowIpmAQprAP9CGxjd3YPfBRhw/1Ybu4Ix3XW04fbwRB3bvwO7DzehNUQH4wAMrw6roYHM6BZBKd0Eo5Mf5wirVMTidFWz3iA0b3LjmGi/bTUhUFNJkhMfSh84Lp3G0sRGNjY1o/OA02jr7YE3xe1zV1eW4/fYlIWd6cMeordY+qNUvs3dLOpnsEgA/3O4SdteIrVv5fdog4R8KaZIWHn54A1NFjwa13x+Aw3ECGs0r7N2SRiw2QCq9CJutmt014u67naitTfFfPJJ2KKRJWliwoASPPLKeqaZHm8cjhNt9CGr139m7JpxYbIRSeQYWy0p21wiFIoDvfIcfQzIkvVBIk7Tx6KO3o6amLGxcOthcLjE8nn3QaP7I3jVhpNIuKBTNMJtr2V0cTzxhRUkJTahEJo5CmqSVn/zkPohEvrBKOjj04XJJ4HA0Qqv9GSSSxJ4uqFQehUTSDoulOuR5hLvvPic+/Wk6o4NMDoU0SSuLF8/Ez3/+2bAqOrR5vUKYzZ2QyX4GlWo3gPhWsBLJZWi1u+H1+mGzzQv7+qFqaz145hkLp4+QiaCQJmnnYx+rxfe/fxdTSYefR2212uB2vwGt9qdQKg9CKJxaNSuV9kKrfR0SyTGYzXPgdusiVPSjFfW8eV5s22ZmH4aQCaGQJmlp69Zb8Nhjt0eoYrnN4xHBbO6H2/06VKr/hlb7IuTykxCJYlv1XCK5ApXqMLTav0Ikeg9mcwHs9pKwr8O2efNcePFFMwoK4lvFk+lHVFxc/DjbSUg8KJXhk4HMnz8fVVVVbPekrFhRibw8FfbujXTFYXDGqKFbv18Mt9sPl2sQQuEJyGTHoFB8AJnsDKTSc5DJLkAqbYNMdgZyeTNksg8glTYBuAiXC3A6c+D1qkMeN7oVKwJ48UUHZsyIX0C/+uqrCAS4E357vV54PJHHwUnmoEqapLXNm+vw0ktfQn6+kqlmR99M5Pb74HZLYbMFYDY7YTYPwGK5AoulGzZbDyyWAZjNbpjNUlgs2XA4suDzicMq5WjtE5/wYscONwoLo62gQMjEUEiTtLd+/RLs3fsYPvzhRRHGhoMtfMyae+tFIBAM9Yk3qdSDH/9YiP/93/ErbUImgkKaZISiohz87ncP4plnPoWiInVYhRvehlZ4iUe74w4xDh9W44EHxOzTImTKKKRJRrnvvhvR1PQEvv3tW5GbKw2pdr3MLds/8XbTTVL85S95eP75bJSXT2iZG0JiRiFNMo5YLMLDD9+KU6eexH/+55247roZTCDHchts3G2Vyo/778/Grl3l+NOfSrBmjYL98oTElaCmpobe4SAJkZeXx3bh9ttvx1133cV2J9y5c33Yu/csDh9ux/vv92JgwAtADEAy7u38+Tm4/nod1q7Nx4YNOghTUNp85jOfgc83vN7ZMKfTCZuN5gPJdBTSJGEmEtKdnZ147rnn0NPTgzVr1uCBBx5gD4mrjg4T2tr60dNjhdHohN3uh88ngFQqQVaWHHq9CjNnajBvXhbU6sSNNe/duxf19fW4evUqqqqqcOedd6KkJHyqUwrp6YtCmiRMrCFttVqxZs0aXLp0aaTvy1/+Mv793/+dc1ymMZlMuP/++/Hee++N9G3evBlPP/005zhQSE9rKXjhRgjXq6++ygloAHjhhRc425lo9+7dnIAGgO3bt+PEiUgX55DpikKapBxbIUbryzR+f/gViS5XitYoI7xFIU1SbuPGjcjN5a6u/clPfpKznYk+9KEPYdGiRZy+u+++G9dccw2nj0xvNHcHSZhY5+5QKpVYs2YNbDYbsrKy8KlPfSrjx6MBQK1WIy8vDyqVCoWFhbjjjjuwefPmsD9YoLk7pjV645AkTKxvHJLx0RuH0xcNdxBCCI9RSBNCCI9RSBNCCI9RSJOk6uzsZLvIOPbt2xc2Hk2mD3rjkCRMpDcOAaCwsJDe8IpRSUkJ7HZ7xD9u9Mbh9EAhTRImWkiT+KCQnh5ouIMkhEhE8ysnGnveNMlMFNIkIXw+H42jJhh9f6cHCmmSMA6HA16vl+0mceByueh7O03QmDRJKIlEAolEAuEUZ8qfPXs22xWTK1euJGzctqCgACqViu0el81mw5UrV9jumHm9XrhcLhrumCYopEla2LJlC9sVk507d6Knp4ftjou1a9eisrKS7R5Xa2srDh48yHYTEtHUyhtCCCEJRSFN0oLFYmG7YjLZ+8Viso892fuR6YmGO0ja0Gg0AICioiKsXbuW3Q0AaGpqQmtr68h2ogMx+JwAYNOmTZztUNu3bx/5PNHPiWQWqqRJ2rBYLLBYLLBarewujuBxyQjDWL9WrMcRwqKQJoQQHqOQJoQQHqOQJoQQHqOQJoQQHqOQJoQQHqOQJoQQHqOQJoQQHqOQJoQQHqOQJoQQHqOQJoQQHqOQJoQQHqOQJoQQHqOQJoQQHqOpSsmUOBwOWK1W2O32kZZMq1atwq233oq8vDxgeKrSpqYm9rCkWLLkuzh8+HoYjWrccEMrNm0afR7btm3jHEtIrKiSJpPW39+P1tZWdHZ2wmAwJD2gAeDQoUOc+aNTqaurEK2tRTAaNdixo2akn6YnJVNBIU0mpb29He3t7bxasdpisaQ0sE+eHKrmg1pbi4Hh6p6QyaLhDjJhx44dg8/nY7tTorCwEKWlpZDL5Smp5EO1tj4Pi2W0gr7mmq8gK+tYyp8XSW8U0mRC2traMDAwwOmTyWTIz8+HUqmMunzUdMCGdGXlF6DRUBVNpoaGO0jM+vr6wgJar9dj0aJFKCgomNYBTUiiUEiTmBmNRs62QqFAaWkpp48QEl8U0iQmPp8vbGx1xowZnG1CSPxRSJOYOJ1OzrZSqYRWq+X0EULij0KaxMThcHC2lUolZ5sQkhgU0iQmHo+Hsy2VSjnbhJDEoJAmhBAeo5AmhBAeo5AmhBAeo5AmhBAeo5AmhBAeo5AmhBAeo5AmhBAeo5AmhBAeo5AmhBAeo/mkSUx6e3vR09Mzsl1cXIyioiLOMdPddJxPuri4GJWVlZy+np4e9Pb2pmzZMI1Gg5qa0f8HhKzak6rnNBVUSRNCJkWj0WDTpk2orKzktLVr16b0D3hNTU3Yc6qpqcGaNWvYQ9MCVdIRBP9T2UnsU7kSNQBs2rQJxcVD6+YF9fT04K233kp4hUCV9PimWyUdDORIUvm7cu+994b97gal46rtVElHUFlZGfE/mX0JlUzFxcVhAR3sp7AkJHNRSKcJtVrNdo2I9AeFEJIZKKQJIYTHKKQJIYTHKKQJIYTHKKQJIYTHKKQJIYTHKKQJIYTHKKQJIYTHKKQJIYTHKKQJIYTHKKQJIYTHKKQJIYTHKKQJIYTHKKQJIYTHKKQJITGrqanB2rVrsXbt2rAVWUIF55oOtkTO1KjRaGL+WqHHjfX8+YRCOoRGoxlp0YQeM9Zx8RLr14r1OEKmInTVk0jzmwdpNBrOyiiJ/LlkV2EZy0SO5QtamWWcFSbG0traioMHD7LdcRNpJZZYbN++Pe4rtdDKLOObDiuzbNmyhe2Kyc6dOzk/P/FUU1MzqQU5enp6sHPnTrabd6iSnoKxJuKPh8kENGgRABKBUCiERCKZcrNarZNqDocj7LHi1UQiUdjXi6XZbLawx4q1SaVSSCQS9tucEFRJT6GSTvRfYj5VLVRJj4+vlbRQKIRSqYRMJmN3kSkIBAJwOBxwOBzsrrhK65AWCoWQyWQQiUQQCATs7pipVCro9Xq2e1w2mw19fX1sd9zMmjWL7YpJX18fbDYb2x2TQCAAj8cDl8vF6aeQHh9fQ1qlUkEul7PdJE6sVmvY70s8pW1ICwQCqFQqqg4SxG63cyoECunx8TWk8/Ly2C4SR06nc9JFUSzSdkxaKpVSQCeQXC6HWCxmu0kaCgTSsg5LG1N5FR+LtA3pRH9jpjuhUEjfY0J4IG2HO+RyOVQqFdtN4mhgYAA+nw+g4Y6Y8HW4Izc3N+wP7oIFC7B8+XKUlJRw+kl0J06ciHiigMvlgtVqZbvjJuNCWqvVQqVSQShM2xcJSXX16lW43W62G6CQnrB0Cun169fj05/+NKePjM1sNuOrX/0qPB4Pp59COopoIX3vvffi5ptvhlQqZXeRCAKBAF566SW88cYb7C4K6QlKp5C++eab8ZnPfIbTR8b34IMPwmw2c/oSHdIZV25ef/31FNATIBAIMHPmTLabEMITGRfShBCSSSikCSEj/vSnP+Gaa66BXq/Hli1bcObMGfaQjHTgwAHcfPPNKCsrw7333ov29nb2kJSZNiF96NAh/PGPf8Rf//pXfPDBB+zujGWz2fC3v/0NO3bsYHcRwvHee+/h17/+NS5fvgwAePXVV/HUU0/h4sWL7KEZxWQyYfPmzTh+/DicTif27duHhx56iD0sZaZFSL/99tv49re/jYcffhgPPvggnn766bjPbcFHZ86cwQ033ICtW7fic5/7HG666SaYTCb2MEIAAJ2dnThx4gSnb/fu3Qm9mo4P3n777bB/45EjR9Dd3c3pS5VpEdK//e1v0draOrJ94MABvPzyy5xjMtEzzzyD3t7eke2TJ0/i//7v/zjHEBKUn5/PdgEAsrKy2K6MEu2y+dzcXLYrJaZFSEcaV+vq6mK7Mk5HRwfbhc7OTraLEADAvHnzcN99941s6/V6PProoxl/wUttbS1uv/12Tt83v/lNKBQKTl+qTIuQvvHGG9kuLF++nO3KOCtXrmS7UFtby3YRAgAoLCzEI488gl/84hd49NFH8dRTT+GRRx5hD0sIi9uCS5ZLOGc6h1ZTKzrMHbjquAqPn3vhSKJs27YNzz33HL71rW/hlVdewTe/+U32kJTJuItZnn322bCXLydPnsRvf/tb/OlPf4JMJsPmzZvxxS9+ETqdjnNcJnrwwQfx17/+FRien/qHP/whewjq6+uxbds2tpsuZpkgupglNj3WHhzuPowjl4+g2dCMS5ZLcPvdkIlkkIvlkImHb4e3i9XFmJU1C3Oy5mBuzlzMy54HoSA19WUqLmaZFiENAF6vFz6fLykz5/UIhWgVi9EtEqFfKIRdIIBfIIAUgDoQQI7fD73fj2KfD6VeLxQJnqXMbrdDLBZHvciHQjo+4hPSQqgLZmHWDB3UmixkCZ0w2VzwWLrQfq4bpkkUlnwI6X5nP/7S+hfsOL8D711+j7NPAEHEcI62rZKoUK2vxlLdUizIWcB5rESjkJ6AiYZ0ItkEArwuk+GARIIGiQRdIhEEAGQA5BFu2b4KrxdVHg8Wut2ojDKPRiJRSMfHlENaMxcrb5yPnDFWZXL1HMfho52wT+C3NpUhfc50DttObMPvT/2e3cUhgCBqKI+1XaQqQm1hLZbrkzN8mYqQTs1rhgzxtkSChzQazNHp8KBGg7/I5egSiQAAAQCuGNsFsRhvKhR4LisLT+XlYa9KBdPw45BpQlaO2pXDAR3wwz7Qh27D0C++327CoM0/dFjxEqy7vhyJfz04NYOuQXz38Hdx4/Ybxw1oAAggAJfXNdR8w43dDvaFfH7Zfhn/uvgv/OLUL9Dc38w+bEagkJ6E/VIpPpaVhTuys/EXuRxDtWa4AABnhOYY47ZPKMQ+pRLP5uZil0aDfgrraUCC8uqF0IkBv7kNDbt3Yd+hRhztdQIAnH2nUL9/F3YdOo0+FyDULUR1+Rjldoq9cvYV1L5ci1+d+BW7a0wBBOD0OqM3T/S+PnsfdnbsxN8u/A1Gp5F96LSWwJDWYf6KFVgx5TYffHl7r0MkwhatFp/IysKhKOO7rIlU1Gw7IpdjW24u3o4wrEMyiLQcZToh4O/DsfrTMHjZA4b4B9rQ+H4H7BBCV1oOPsb0IwcfwZf3fRkGh4HdFZPJVtTB7XOD5/DiuRdx2nSafei0lcCQViNHr4d+yi0HavahU+D3CgVW5uTg1Um88Ritog42F3PLtkNKJV7MyUF3kpaQJ0mmkkMCwH+lC93jjTWbumBwAlBqkMPuS6FLlkvY+PeNeOn0S+yuMYncIsjNcqiMKmiuaKC9rIXmsgaSLgkEXQJ4L3vhMXngcrrCqudozeFx4I1Lb+DtK2+zXy4tJTCkDWg724nB4arAYzWgr68vrA0OvaKD3xZ5f1+fCYkbko/NwxoNvqlWwz3J5aSELhcENhs8djvcHk9YxRxL6xGL8ZfsbBznyQn2JP6cLjvbFYEEIiEAvw+TONEjIU4ZT+HOf96J9y+/z+6KSGKXQNM3FMgyqwx+sR+ObAcsBRaYC80jzaQzwSQzwWg3YuDSACytFtgu2eByRKmomfZe33vY17OP/fJpJ4EhbYVHqkOW2I/Bswew+0ADGhsbw1r93n1oNvghVCphbw3f39jYgsm9cJq6fqEQd2Zl4Y9yObsrKrHJBOWpU9AePgxtfT00b78NxcmTUJw/D3lrK4THjgGHD8NbXw/322/Dde4cHA5H2Nh06G3o5/vVahxW8+G1BYkbtwd+AMps3bhDGLJZlSiSAnBYU168AECLsQX37bgPF83jT8IkN8uhvayF2C2GVWeFudAMe64dbqUbftHQG6Msn8QHl9qFgdwB9Ob14mLgIrovdMPYYoRj0BE+Ph1aZXucOGE4gTe73mQfNq0kMKRLUDFTCVjbcbR1jB+ngB0dze2wCpQom8ufy08vC4X4eFYWDscw9izw+YaCub4e0kuX4C4qgnnlSphXr4blxhthq6mBbckS2JYuhfW66zCwciUMq1ej94Yb0KNWw3DyJAYOHYKjvT2sgo7UjigUOKDRsE+DpCtbF65YAWSXoSrCdBEisRxKrR5za9Zh3cIcCOFHb3tbyivpq/ar2LxrM3oto/PDRCJxSKC9rAUEgLnQDEe2AwHheOM6kXllXhhzjLiguoD2jnZcPXsVLlf0MWqXz4WT/SdR31vPPlTaSFxI5+QiSwjAaR//L77VgEE3INTk8mKczSIQ4NNKJU7EsE6i8vhxqBsa4NHpYF69GvZrroE31olZBAK4i4rQf9116Fy1Cm0AeuvrYWtrG3OM2gnguFyOg1RRZwgrTp/qhgtKlN2wDvOZv7+yGctQt2YF5herIREA9vZ3cIQHE7Q99K+HcN5wHvBhqEXIXZVRBalNCnOhGU7N8NhmHASEARizjTgnOoeOUx2wG+1hY9OhrelqEz4wpOcUxeOn0FTF8hUESiilAMSScV/uJcMWsRjHAgHA6wWiXA0o7eqCtr4enoICWFauhKeggD1kwhyzZuHS6tU4Gwig99AhOM3msCo6tB1TKPAenfmRGfqO4q0PemHoOIYWC7sTgN8Du6EDxw/twr6TqZ9u9gcHf4CDFw4OBXMAgH+4hdBe1sIr98KmS9xUpz6pD5eyL6GlswWmi6YxK+qDvQfRZUu/idViidDJsTmHXo7lVGDxOIVlzqKKoQraFUPVnWD/7vdjn9cLeDyjzc/96VN98AEkBgPMq1fDU1jI2RcPtjlz0LZiBdpOnIDlwoUxx6jfVipxbhJnnBD+cXUdQUNoAHc0YMeOHUNt127sa2hG50DksdtkOtB2AD9/++ejFTTTBD4BtJe1sOfa4VK52LsnhDHLiNaBVlxtuxpWRYeOUe/v3s/elfcSF9LuDnT0+QGBEuU3rMfKxWXQKUPqZIEESl0Jqlasx8pyJQDAdKkNsby/nSj/9HrxvMczVEGzbbii1rz9Nrx5ebAtXcrePa4CUil6Vq5Eq8WC/ubmsCo6tL2p0cBCF72QJHli7xOjlXOwhVTTmj4NbHk2eKVRTvhOEIvGgvPW8zC2G6NW1D22Hrx9Ob1OzUtcSMODzqZGdNgACGTIKV+C2roNuO2224bapg2oq61GhX6oCnT1HsX7bal7K8QWCOB7Nhu3gmaa9tAhOOfOhausjL17wvQvWYLzEgkMx49HHaM2CwR4i4Y90pgQMpUSyok0WQJ/dcfw3DvP4WT3ydFwDq2ihwPanmOHTxLtOtzEsmqs6BjsgPmyObySHm71PfUwuVI/ZBSrxP5Pew1oPrAPDWd7YXVFfpnmtxnQ1rQPe450IzkvjCJ72mJBr9sdXkEPN01DAxxz58Kj17N3TTjz/Pm4IJFgoKUlrIoOtlMyGVpp2CNNlaH6pjrUTaRVJ69QCPIFfPj5Wz/njkGHjEkrzAp41B545cmtoFkmrQmXui/BaXNGPY/63SvvsnfjrcSGNIZOsTO0HsGBPbuwY+du7Nu/b6jt240dO3Zg1/4GnO5J5SAH0Op24/mBgbDKOdiUp07BM2NGQsafYzVYVYVOsxn2y5ejjlEfUg4NGxGSCC+8/QL6BvrCxqDhA0QuEcR+MZxZ8TuDYyp6s3pxue1y2Jh08DzqxiuNGHQPsnfjpcSHdKiAB3abfajZUze0wXquvz+scg42SV8fhIEAnBUV7N2S7sry5ehqbQ2rooOtSyxG8wQuvCF80YGG4BuEY7R9Td2wBwC/oRl7GsKXRku0l959iVtFhzSlTQlbQeLO4piogDCAy4HLsF21hZ3lEdw+evUoezdeSnxICyTIKZmLxTXVqCrTQy3m7pYoZUl4EtFd9njwksEQVj0Hm6KrC9YIy2+lSs+CBehvagoblw62RgrpjGXvOYrDp0yAbjGuq0juyaoN5xtwpvsMZ/w5OCYtcUjgV/qjXjWYKlaNFYZeQ9iYdLC9fyW2y9hTLbH5KCvHils2YGX1fJQXl6BiyQqs21AXckpeDubXrsfGDasxf5zT9BLlFYMhrHoONnlnJ9yVlexdUsqTn4+rHg9cFktYJe0C0CaRoJMmYspYrvZOGAJATmkFkjm49a/j/wqrnoNN7pbDrkvtkGU0BpEBzn4nt4oe/rzX1ot2czt7F95JYEhLUHHdYuhDJjEftA+fkrdiGUpC5yqSZGHuihUoG/8K7Lh7ta8vrHoONqndDuecOexdUs64aBFMp05xxqNDb4/RG4gZzAdfAIBMmdTZIfee3MutokPOiYZ8aHiBj+waOwavDI6OSTPV9Ol+/k9pmriQVlWgLGd4bo53hiYxr9+3C4cv2gFxEcpmAoAJzfv34fgVDyDWY35VcmeObrHZcMpsDqug4fVCevky3HPnsnfhBZ9aDbPPB5fXG1ZJuwAcp5DOXPoC5AoBeD1Jm7uj09CJtt620bM5QqpomUsGV66LvQuv2Ly2ofk9Qs/wGK6oz/SfYQ/nncSFtFQy9OCDnWjpH+02tXRiEEBWzvCpbAE7Ot9vgSEAyPKKkDV6aMLVjzEWLbNY4Jw3j70Lb5hmz4b9wgU4h4M59LZXKES3mBn8Jzymhn52BSrGaXMX12L98hLIAPgt/UjWmb4ftH/AGYMOHZOWBCRwK5O/LudEWOVWuE1u7lkew5+3mFoQiDL1A18kLqSD/MxffLcBg05AIg8ZUQsMwuoYmrsjmTVgo9EYVkGPNLUaiGGCpVRxFxXBceVKWBUdbOdpXDqN6FCxsApV47T55TrIBEPXH5w6nrwZlk5fOh02Dh1sAsnk5lhPJrfCDZc5/Fxpl88Fh8eBLiu/5/NIXAqZDEMT/mcXcMefETYVBgAJJOLkvoQDgONRKmmJwQDPrFns4bzjFAgijkk7hhe3JenCA487hua0oq/jOOrfbEBHEkcY2i+3h50XDR8g9Ajhk6fmysKJCAgDcLvdEeebdnqd6LWNPdVqqiUupNGL5vODgFCP+Yt1Y34h5ezhiczdzqRNsGTzetEZZTxa4nLBW8Kfua2jceblwdPfH1ZFu4bXYyTpohtH3tiN3eO1Nw+gsXl0taNk6TX2jlbPIVcYirwi+BT8D2lg6GpJ9jzp4PZVx1X2cF4ZKzunSA2d3AW7F1DOrMX6dbXDC8suhF4OQDsLK1bUYt36jagbnsi8r6MjaZX0Jas1rIIONpHXC292NnsX3nHn5MA9MBB2rrQLQBeFdIYanucjiXN3mMymsCoafkDoE8IvDXtZzEvegDfszI5gG3ANsIfzSgL/p3UoK9dDOfyqW6LWjSwsqxQCkKqh1+ugHv5hs186imOXkhXRwFW7PayCDjZBmgwV+NVqeK3WsCraBeCKUBhpDnaS9obn+Uji3B1OpzN83mg/IICAt6fesQKCANwed8QrD+0efp7jHZTAkAb8XjsG+/rQ29GC06dOR2nH0XhgF/Yd60USh9lgdrmGKme3O6yS5vMbhqH8Mhl8LldYJR0cm7ZPcuFcQkIF/IHwSjp4hkcaCSAQVkU7vU54/MkrDicjgWnUgcbX96G+sRFHms+h7UJblNaJPmvy/7e9Pl9YBT3S0iTcAiIR4POFVdHB5k2TfwcBoCnHips2YOOm4al8o7bF0AGAbvFoX93ihC47pxArIo5JB3wBCALp8TMmCAgQEAQQQCBsTFos5Pcr5wSGNL+JgPAKOth86fFmiMDvR2B4WIOtpp0AhDw//5MEFWHZysXQqyQQ8jDzclQ5Eatov88PoSs9IiT0jwlbUavE/J6LPanfYYlSCaVWj7LZJdCplAhdqCXZ1GLxUNUcqaJ2JXPgZfIELhcCw6uZByJU0goK6fSQo0OWGIDXhJaG4al8o7aWoYtYTC2jfQ3DfQlSlFMUcUzaJ/BBZE3PN6hDK2qdIrlXOk9U4kNaoERRVS3qNt6GDXV1qFuzAksWVqP2pjrUbbgNG+tqUVWczKlihuQpFNwx6ZDbgMPBHs5LIpsNvpAVWUIrarnfD36/iCNhBrpwzjA8lW/U5oEPAHzJm/Z3VuGs8EraB/j9fohs/A9pgV8QcYa+YEVdqilld/FKYkNakIPF6+qwrEI3dEYHhi9YcXvgHy7yhEodKmrqULcokaNq4WZoteEV9HDzuVwQWSIt2cwv4oEB+LK4F9IHK+r88CuGCF/Z+tHX14c+swvjv7i0wtTXh77+ZF1RACyYuYBTQYdW1AE7/1+tSRwSeOSR/5AJBALMy+Xv9A9IdEjrl16HchUAzyA6jh7A7p07sOP1oRPzd+3cgR27D+BoxyA8AUA56zpUJ3FlqhyFAgUy2eg4tHd0hXCv1QpJTw97F94RGwzw6MJfqgUAlKXJuDoB4O5Gc2MjGk/1xnCdgAEtjY1oPGtgdyTMtZXXcs/oCKmmPTYPpPYUTF85ATKbDG5V5PlFqguqIRLw+9VA4kJaUI6KEhngN6H5QD2au63wsH90PVZ0N9fjwCkT/JChpKKcOSCxFufnh1XR8PngkckgaW5mD+cdgdcb9XTBRd4kX5ZG4k+S3ItWoplZOBMVxRXcMenhMWqX1wVZTzJn3Jk4gT/6+dw3FvNnQY9oEvcTkK2BUgDA0DnuPAOu9nZc8QNQahJ6KhFreUnJaCUdOibt9ULQ2ckezitigwHe3OgrJVznGb8mI/yjzJ+LZWvXD52Kt6EOdes3Dp1md2sdaheXDb3BmAI3Vd8UNiYN3/A51P1DQchHcrMcLnX0AFpXto7t4p3EhfQwlyOWsV07XE4AcllSV5tYVVERXkkPN7fBAFlH8teRi5X8wgU4Z89muwEA2YEAllNIp52cRXWou34+ijSy8FPxxEroypdg9c2pWcVo440buePSIc1pdkLZk8zf3NhJ7dKoIV2mKcMNxTew3byTuJB2e+DH0BzR464gIdMhRwnA6UraBEsAUFNWhlKNJmxMGh4PnEIhZPv2sXfhBYHXC4HbDX+U1cFvSZNTCMkoSekK3DBr6P/T1deGow37sOfU0Lizq+sIGo62oc8JQJyaVYxuWHID5pfNHw3nkDFqT8ADYbcQQl/i4mQy5GZ51LFoAPhY5cfYLl5K3HfV1oUrVgDqWVg8/MMXkViHqusrkQXAZexFshdZ/+iiRaMBPTwmHaymvRcuQMrDNxCVJ0+OuSDBRyik04wOVQv0EMIPw8l92NN4Gt0GO1z+ob0+rxOG7tNofHMXGi7ZU7KKEQB86tZPhY1JB7ftZjtUF/hzUYjAL4DULoVT42R3jfjkgk+yXbyUuJCGFaePd8AeEEK3qA4b11ejiDmi6Nr12LihFhVaIeDtQ8vp5L1jHfTxZcs4FXTo2LTd64X8n/9k75JSIqsVQpsNnvx8dhcAYLbPh5vd0asHwkPaIuhkAKztaG4fa7IfPwzH21KyihEAbL59M3RaXdi4NHyAz++Dt9sLuYkfq9Wrr6phy7Wx3SM+ueCTKNMmb5KqqUhgSAPob8bhI52wBwChTBa26opMPjz25uzF8bca0ZmCbJlfVIQPV1WFjUkHm+vMGSgPHWLvljKqY8dgq65mu0d8Jk0uxCEhhs8Acxl7xx/uC65ipEjuQrQAIBaJ8eV7vhw2Jh1sDpcDkrMSiF0pendzmNKkhEfhgU8a/TTUh659iO3ircSGNADX5ePYt2s3Dh9tA1snGy4cRcO+3djx5hF0jlVAJNgX1q7lVtMhY9QusRjCvXshuXKFvVvSKU+dgru4GH6Fgt0FACjw+7GFQjptCUXjX8oCaS6yFAAcdqTiV2brPVuxcNZCzph06Bi1ZdAC5UklRJ7UnHssN8sh8Avg1EYf5vhK9VcwJ3sO281bCQ9pAEDAA1N3X1iVYL3SDUOCL2mNRe3cubizuppbRQeD2uuF1WqF4sUXIbKy/4LkkV28CIHTGfWMDgD4mt0eLMpIOhmwwB4AJPlFQzPcRSNQorxmPnIEQ1V3IufrGMtjWx4Lq6JDx6gtBgtUzSqI3cmtqOWDcojcItjyog9zVOZU4rvXf5ft5rUEhvTwChJTbrJEPskR39q0CSLmDI/QZunqguo3v4HQnvz6RdrdDWl3N2w1NeyuEcs9HnyOquj0FOhA52U/ICvDkmvCl5qT6xdiRe06bNhYh8U6IeA1oPUM+7o0eequr8OD9zzIqaA55077AjBfNUN5TAmpLTmnoagMKgjdQthybEN/LKJ4cuWTEIA9v5HfRMXFxY+znfExE8s3XI9Fs2Zj9pRaFlytXWAXuBGLxZAOzwAX6tZbb4UyyqlpY8lRqaCVybD/1KnR+aRDbwUCeMxmqM+fh2/+/KhDDvEma2+HrLMTlhtuGHOe619ZLCie5HwdFy9eRFNTE9sNp9M5sty91WqFJWQ+E41GA41GE3I0MRpvg9tdPLKdl7cTMllsi5xaDHZoS4uQm6WGq6cTAx4A2aWYV6CEQKKASimFSADA2Yfmd95FxwRqBYVCAQHzs1NRUYGlS5dy+iZi7XVr0Xi8ERd7Lw51hD788OculwtyoxxSSOHJSswrZpFHBM1lDTwSD5xq5+jzYP/SAXjs+sdwz/x72O4J2bVrF1zM2VM+nw/uBL5ZH+GfMn1tuflmfGTJkrAqOjj04ff5YL50CYpf/ALys2fZu8ed6sgRiK9cgeXaa4eeQ5QQ/p7NhmWexPwSkCRxd+PI/nocPnx4NIBtpqGJl4ZXNzp6eDd2vNmIjliuD0uC/3vs/zC7eDa3omaqa5vNBneLG9oPtJCZ2VMHJk8QEEDVp4KyRwmL0gKXzBX2tUMr6vur7sdXqr8S+hBpQ1BTUzPGi4M408zFypXzkSMGPP0tOPzOOVgn+dXlcjlUIdN0Bj377LPIy8tju2NmdTiw8emncebKFUAiAcRi7u3w50qJBKKlS2G7/Xb45fE97Uhy9SoUR4/CqdfDXVYW/hxCqqJ7nE78bIoz9tXX12Pbtm1sNwYGBuAbnqipt7cXPSHnjBcXF6OoiD2pcnprbX0eFsvokFRl5Reg0YS/Qkm23NzcsEr65ptvxmc+8xlO32ScPn8a93zjHlwZuDJUxYqGS7/gbbCJALlIDmmuFJ4SD5y5zqjzaYxF5BZBYVRA6BDCIXPAo/CEfR12+6NzPopfrf8V+1CT8uCDD8JsNnP6XC4XrAl8vyq5lbTlHI61DcIPQJI7H+vWLYYuue8tjEutUOC5z38eOrk88vqHw312txv299+H6r//G6q9eyGMwwUkYpMJmr17IT1yBObKSrh1uvCvH1JRr3W7pxzQhExF1ZwqvPyTlzFDNyO8kmWa0+uE2WCG77gP6iNqaM9oobyshMQhiXq1osgjgswqg7pHDW2bFvIOORxuB8xyMzwiT9jXYNudFXfGLaBTJXmVtECJsuqVWFI8/JInMDx2Ze/GkcNH0TvBjEtUJR30/vnz+OT//i8G3O7IFXXIrdjvhyInB5g9G64bb4R7xowxx49DCZ1OSNvbIT1/Hj6fD44ZM4Yu947ytYK3NwJ42WyOy+orVEnHx+Qr6RIsu2V47cJYGZqxu6mb7Y0okZV0UEd3B7b+YCuaWpqiVrSRPhdDDLFYDJFUBKFYCIFIMJQLgqHJm3zwwSfwwSPxwC/2j/24zPbnl30eT659kn2qU5K5lbSyDMs+VDcc0H4MdhzBnjePoNsOQFmCZWuWoSR+w1Vxcd2cOfjzww+jNCsrvJIdHqMOfu4VCmGx22E9cwaC55+H5r/+C9oXXoDmtdegbGyEvLUVsosXIbt4EfIzZ6BsaIBmxw5ot2+H8q9/hf/0aZhzcmArLIRfIAj/Wky72enEnwYH4xLQhA8kkEgn3vikvKQcu365C/duuDd8jJrdDql0vfDC6XfC5rbB4rTA7DTD7DLD7DHD4rfALrDDJXTBD3/444yx/eO6H8c9oFMlgWd3DFGWLsO62jnIlgDwDqKj6RDevzAAn8+K3kv9kBWXIluhQdHMPLh7uobe1Y5BvM/uiKQwJwcbq6tx8uJFXDIaI5/1Ebwdbj6JBO5AAC6XCx6TCYGODgTOngXOnAFaW+Hv6oLXbIZTLIZLLodbrYZPoYj8mBFuHwDwS683rktj0dkd8TH5szu8cHsdMF+9iqtRmxEOaRay5CJ4TB0429YDky22MwoScXZHJAKBALeuuhUzCmag8UQjnK6Qsy2Gq+PRgyexHSrK9srylfjtXb/FLXNuYQ6Ijww7u0OGkpr1qFtaBJkA8Js7cGR/PZovh/wDvQY0HziMc2Y/INZh8ZLkTvofixl5efjHN7+JrevWRR6jDrZIayV6vfAKhfDIZHArlXArlfDI5fCJROH3H6dJPR78F4AfU/Wcgazou9CGtjHbORw/dADN/X5IcsqgV8RYzaTAvR++Fw0vNWDzRzZzqua4tQgVdIGyAD++9cf4+/1/x+KCxexTSmsJDOkilIUMb+x9qznyuHPAhJb6A2g2DL0Zxlffv+cebP/Sl7CosDBsfo+ILdIq5JNsG0Ui1CuV+LSIriec3lzo6LgCP4TQVQzNHMlXuVm5ePrhp1H/Qj139jw/d/a8sO2QKxejbofctzSrFN+75Xv44Jsf4IHlD7BPIyMkMKSHhjfaGl5HfXMvIuXziIAdHQ170RwxxfmjbvFi7H/sMTxx++0oVCq51a435FLySP2TaDUiEX6XnY3farWYHWWZLDLN2F1wAoA0uQtkTNb8WfPx39/4b5z6yyk8/v8eR3VldfSqeKz+YDD7AFFAhE2LN+HX9/8aTd9uwpfWfAliYTwHAPklgb/5vTi6vx6nY66QXejoiGX8LvW+UFeHE08+iR/feSeuKSoKq3yn2m5WKvGH4mK8XlKCDyfpykaSJlxX0HbqNE6fDJ+wLJ78US6cmqz8nHw8+PEHsft/d6Pp90149mvP4lPrP4Wls5dCJVWFV8whVXOBtgCr563Gl9d/GS9tfQkdP+3AC5tfwEeWfoT9MlNitVrR1taG7u7YzppJluSdghdniT4FbyKaLl7E66dP48D582i+ejXsdLmItyGfC8RirNTr8aH8fGzMz0eZLLmnutApePEx+VPwEmsip+D985//xNNPP422tjasWbMGP/nJTzBr1iz2sLjrN/fDaDbC5rTBF/BBIpZAq9RCn62HUpb41wzbt2/H448/DpPJhJtvvhkPP/wwli1bxh6WklPwpk1IX758GXv27IFCocDdd9/N7o4bo82GD3p60GIwoGNwEJcdDgx6vXACEIjFUMrlyFUqUazRYHZWFqqys1GdkwNpgoYzDh48iAsXLkAikWDOnDmora1lD6GQjpN0D+nOzs6wYLr++uvx2muvcfoyzdGjR/Hoo4/i2LFjI32rVq3C008/jblz53KOTUVIJyYZeKaxsRG1tbX4xje+gYceegjr1q0L+0bHS55KhQ/NnYsv1dbivzZswEt33IEdd9+NN+++G3vuuAOv3norXlizBj+srsbmigpcn5eXsIBuaGjAd77zHTz66KP4+te/jh/+8Ic4d+4cexghwPDPC+vdd9+FyZSqSVGTo7e3lxPQAHDo0KGEZcREJSYdeObZZ5+FzTY6x+ypU6fw/PPPc47JRH/4wx9w/vz5ke33338f27dv5xxDSFBBQQHbBY1Gg5ycHLY7oxQWFrJdAMCbf/e0COlLly6xXbx7cyARLly4wHZNi383mZy1a9fiox/9KKfv3/7t3zjbmaiiogKbN28e2S4oKMC3vvUtzB5jgY1kmhYhvW7dOrYLK1euZLsyzqpVq9gu3HDDDWwXISN+9atf4YUXXsD3v/997Nq1C1/4whfYQzJOdnY2HnnkEfzhD3/A448/jh//+Mf4+te/zh6WMtMipH/wgx/g4x//OABApVLh61//Ou666y72sIzziU98Ap///Oeh1WqRk5ODr371q7j11lvZwwjh2LRpE7Zu3YrrrruO3ZWx9Ho9NmzYgAcffBAf/vCH2d0pNS1CGgB+/vOfo7e3F+3t7fjWt77F7s5Ic+bMwZNPPonz58/j7Nmz+O53vwu9Xs8eRgjhsWkT0gAgosuqCSFpZlqFNCFkCHveNBnf4OAgnE4n251w0+ZiFhIdXcwSH+l0MUtVVRWWL1+OGTNmcPpJdMePH8eOHTvY7oRfzJJxIb1161bceOONbDcZw5/+9Cfs3LmT7aaQnqB0CmkSPxTSUUQL6aqqKuj1+pS8LElXvb29uHjxIttNIT1BFNLTE4V0FNFCmsQPhfTE8DWkafgvsZxOJ+eK5nijNw4JyXD0qjKxvF4v2xVXaRvSwbX3CCFjczgcYevykakLBAJwOBwJXd8Q6TzcIRKJoFQqIy5GS6bO4XDA4XCM/DGk4Y7x8XW4A8O/L0KhcMpj0xs2bGC7YnLs2DFcvnyZ7Y6LOXPmYM6cOWz3uKxWKw4fPsx2xywQCMDjSfxak2kb0gAgFAqhUCggk8mmXFlPdnw7kWNRk31OmOLzcjqdcDgcnD4K6fHxOaTjZcuWLWxXTHbu3Mn5+Ymnmpoa1NSMft9j1dPTE/GsJr5J65COl8rKSqxdu5btHlei/5P59AtBIT0+CunoEvEzGZTpIZ22Y9KEkOTr6enhtLEEj2ltbR332KkIFhDBZrFY2ENGWCwWzvNKBxTSPDbWDxshqbBz586RdvToUXb3iNbW1pHjDh48yO6Oq2BFHGxj/d6EHkchnUaCP1AHDx7EwYMHx/yr39TUNHLcW2+9xe6Oq7feemvkazU1RX/Z3NPTM3LceM+fEJJeKKSHBV/+tLa2jnn1UPCY1tbWMf9ix0Poc+rt7WV3j7BarZznRQjJHBTShBDCYxTShBDCYxTShBDCYxTShBDCYxTShBDCYxTShBDCYxTShBDCYxTShBDCYxTShBDCYxTShBDCYxTShBDCYxTShJApSfQcNpPV6s6MeWwopKNoamrC7373O+zcuRNGo5HdnRJOiQQ7a2rw09tuw6EFC2CnpcNIiu3cuRPf+MY38J3vfAcnTpxgd6eEAw781PhT/NT4U/x24Lfs7rRDIR3FsWPH0NDQgB07dmDHjh3s7pTozM/HjpoatBYV4aVVq9BaXMweQkjS9PT0jPxuGI1GvPvuuyP7Ulldn3CdGKmi33W8i17v0AySFoslpc9rsiiko3jvvfdGPm9oaODsS5VWZrmqrrw8zjYhycQGntFoHJled6z5zxOt5XILZ7u9rx2tra0Jn/89USikI4g2aX4q/xL39PTA5XKx3cDwHNeEpJrRaEzKSizjcbvdnO2Ghoa0XgyDQjqCSKF38OBBbN++ne1OqpMnT3K2Ozo6sH379rT94SOEjI9COkaRgjvVjEZjyip7QkhyUEgTQgiPUUgTQgiPUUgTQgiPUUgTQgiPUUgTQgiPUUgTQgiPUUgTQgiPUUgTEic+n4azLRLZOduETAaFNCFx4PNpYLdXjmwLBD4oFPy7AIqkHwppQuLAal3K2VYqWyAQ+Dh9hEwGhTQhcdDb+znOtlJ5lrNNyGRRSBMyRb29W2CzLeL05eXxYw5ykv4opAmZBJ9PhYGBdTh58lX09Gzh7Js58wmoVM2cPkImS1BTUxNgO8nQ8lmhampqONupcPGBb8Pw0MdGtqVP9UL2VHKmKXW53HC7R+ezlkplkMmm5/JdPp8SdvsCthsAoFZ/gHnzPs92ZySLxcKZHVKj0aCycvTN01TpndeLnsrR34vKdyqhMXLPvEknFNJR8CmkrdYl6OnZCsvXlwH/EbLj+wAeD9kmKSWXd2LhwjvZ7oxFIZ0cNNzBc11dX8PZs7+BxbKM3UV4pKDg5WkV0CR5KKR57Pjxfbhy5VNsN+EBgcALtfo48vP/gsrKBzFjxn+zhxASFzTcEUWqhzs6Or4Po3Ejp0/0xCB8j2WNbOf9fCfyfpacswj6+40wGIwj2zpdHnJzp+dCuCKRDQrFuWl/HjQNdyQHhXQUqQxpk+lmXLjwFKdPr38F4icG0bNl9EyC4m3bULRtG+e4ROnt7eWspVhcXIwiZvVyMr1QSCcHDXfwUF/fPZxtheIcSkv/k9NHCJkeKKR5yOUq5mzPmPEsZ5sQMn1QSPOMz6eGx6Mf2VYqz0CrfZdzDCFk+qCQ5hm3u5CzrVSe4WwTQqYXCmme8XpHz94AAKnUwNkmhEwvFNKEEMJjFNKEEMJjFNJpxKvhnusptNPyTIRkOgrpNGJfuJCzrQi5kIAQkpkopNOER6eDfe5cTp+SQpqQjEchnSYMd94Jv0Ixsq04fx7igQHOMYSQzEMhnQYG1q3jzNkBAPl//jNnmxCSmSik+WwxMPA/a9H2n9x5O/L/9jfk//3vnD5CSGYSaDQaXs6CJ5fLoVQqoVAooFAoIBQm9+9JPGbBs1dWwjFv3tBtjLOD+Xwa2O2VwBIAOezeIdUrVkDgm9o0mVq7FlmOrJHb8bhcLrjd7pFtqVQKmUzGOSbRBpQDMCvMsCqssMgt8Amn9j0gU0Oz4CWHAAAvQzqURCKBXq9HYSH3kulEmkpIW5csQc/WrbAsi/9qKvM2b4b6xAm2O2a51lzM65kHnUXH7korDqkDFwou4IL+AruLJAmFdHIktzydJI/Hg+7ubpw+fZpTzfFR19e+hrO/+U3cA1rT1IRrV62aUkBXdVXhxrM3pn1AA4DCrcDCSwtxw9kb2F2EZJS0COkgh8OB5uZm+Kb4Uj9RTrzxBq58Kk7LXV0AsBdQbm9B8bZtqPzCFyB0ONijYnbL8VtQcaWC7U57edY8fKj5Q2w3IRmDtyuzOJ1OWK1WGI1GWK1Wzr6srCzMmTOH0xdvEx3u6PrqV3Hl/vs5fbJLl5D/979Defo0NMzjRWOx1KC19fmR7eLibSgqmtrqK9d2XIsZxhmcPpvMhov5FzGgHIBRM7osVjR8WJkly56FbHs2Zl6diSw7dxz9ZOlJtOvbOX0ksWi4Izl4W0nL5XLodDrMmzcPxcXcSfAHBwdx5coVTl8qOebOxdV7uKup6F95BYvuuAMFL74Yc0AnQrGpOCyg2/Xt2L9oP9oK2mIKaL4YVA7iou4i6hfUoyuvi7Nv0aVFGTGMQwiLtyEdqqioCKWlpZy+rq4ueDweTl+qGD/8Yfil0pFtxblzKGVOm0uVWX2zONtmhRknS09y+tLRB+UfoC+rj9M3v2c+Z5uQTJAWIQ0Aer0eSqWS0+eYwhhtPDkruGO9M57lx3JXwoAwbFjg9IzTnO101lLcwtnW2rUQ+tPmR5qQmKTVT7RKpeJs23kyC5wtZOIj5Zkz0L7Lj+WuNA4NRH7RyPagchBXtVc5x6SzQeUgzArzyLbIL4rpnG9C0klahzQfKmlXaSm8WaPBoDzDn+Wu2Cp6QJl5c30MKgc521q7lrNNSLpLq5CWhoz7Yvj86VRz60cXjQUAqYE/y10pPKMTMgGAS+ribGcCh4z7h1rulXO2CUl3aRXShBAy3VBIE0IIj1FIE0IIj1FIE0IIj1FIE0IIj1FIE0IIj1FIE0IIj1FIE0IIj/F2qtJIkjk1YqxTlVpqatD6fMjUotu2oWjb5KcWjedUpfN656GyZ/T701rcirNFZznHxCraVKUOhwN2ux1utztsia1kqHXV4gb36MT/70jfQYOsgXNMIgmFQshkMshkMkilUmg0GohEo5fiZ7Jk/j5OBE1VSsiw/v5+tLa2oqOjAz09PTAajbBYLElt7B8Ft9sddkwi2+DgIPr6+nDp0iW0tbWhpaUFJpOJ85wImQoKaTIpJpMJ7e3t8Hq97K5pzel04sKFC+js7GR3ETIpFNJkUvgwuRWfXb16Fd3d3Ww3IRNGY9JR0Jg0FzsmHUomkyE/Px9KpRIaTXLH/uL5b5wMn88Hm80Gm80W8fuzcOFCyOWZOelTMn8fJ4LGpAkJodfrsWjRIhQUFCQ9oPlAJBJBq9WiqKgICxcuhELBnXkwUnATMhEU0mTSFApF2LJm05lcLkdVVRWnz2QyYWAg8+bxJslDIU1iEgiEj4rNmMFd4JYMmTlzJmebLysIkfREIU1iwp7FIZFIoNXSKiiRsGtxUkiTqaCQJjFhV8GRSCScbTJKJpNxtimkyVRQSJOY+Hw+zvZ0uapuMtjvDfsHjpCJoJAmhBAeo5AmhBAeo5AmhBAeo5AmhBAeo5AmhBAeo5AmhBAeo5AmhBAeo5AmhBAeo5AmhBAeo5AmhBAeo5AmhBAeo5AmaY1dhcWgNnC2U6W4uHjk85ycHM4+QiaCQpqkvYMLD6K1uBX1C+ph1BjZ3SlRVFSE2bNnY86cObQwApkSCmmSlgoKCkaacqYS3XO7MagcZA9LqtDnVFBQgNLSUmRlZdG0rmRKKKRJWtFoNNiyZQs++tGPctratWtTusbipk2bwp7Tfffdx4uFWUl6o5AmaSVa6BUXF6cspDUaDWcMOlS050tIrCikSVpJVRATkioU0oQQwmMU0oQQwmMU0oQQwmMU0oQQwmMU0oQQwmMU0oQQwmMU0oQQwmMU0oQQwmMU0oQQwmMU0oQQwmMU0oQQwmMU0oQQwmMU0oQQwmMU0oQQwmMU0oT3gvM1FxcXQ61Ws7tHqNXqkeOSMaVp8GsVFRWxuziCxyXreZHMQiFNeE2j0eDee+/Fpk2bsGnTpqiT6wPA2rVrR46799572d1xFfw6mzZtwtq1a9ndI4qLiznHjhfohLAopAmvZVrlmWn/HpJ4FNKEEMJjgpqamgDbyVcWiwWtra0j2xqNJmFryDU1NXG2a2pqONtBlpoatD7//Mh28bZtKNq2jXPMRFgsNWhtDXm84m0oKprc483rnYfKntHvT2txK84WneUcE6vW1lZYLJaR7Vi/9zKZDDKZjO2OmUqlgkqlYrtj0tfXx3bFjV6vZ7tiYrPZYLPZ2O6YCQQCuN1uOJ1OBAKp/dVN5u/jRPTO60VPZc/IduU7ldAY0/cVDFXSJGEUCgVUKhUkEsmkm9vthslkmlRjHyuejf1asTa32x32WBNpYrEYSqUSKpUKIpGI/ZaTDEQhTRJCKBRCqVRCIBCwu0gcyGQyiMVitptkIAppQtKUUEi/vtMB/S8TQgiP0RuHUdAbh1wTfeNQKBQiJyeH7QYAVFVVwePxsN0kguzsbJhMJpw/f57dBbvdDofDwXYnTTJ/Hyci0944pJCOgkKaK14hXVdXhwceeIDtJmM4ePAgfv3rX7PdFNJRZFpI03AHSarS0lK2i4wjWoFApgcKaUII4TEKaUII4TEKaUII4TEKacILP//5z1FXV4dVq1bhRz/6Ebq6uthDMtJLL72E1atXY+nSpfiP//gPdjchFNIk9V577TX84Ac/QHNzM86ePYtnnnkGf/zjH9nDMs6BAwfwyCOPoKWlBT09PfjlL3+JJ554gj2MTHMU0iTlDh48yHbhzTffZLsyzt69e9ku7Nq1i+0i0xyFNEm57OxstgsFBQVsV8aJdB55bm4u20WmOQppknJ33XUXqqqqRra1Wm3CV1bhg09/+tNh541/8Ytf5GwTIiouLn6c7eQrt9sNo9E4si2TyZCXl8c5Jl56e3s529GWbXIXF8N4220j25qmJmiYqxUnwu0uhtEY8niaJmg0k3s8nVWHPMvo98eoMcKoGf3+TYTRaITb7R7ZHu97LxAIoFAo2G4sXboUs2fP5vTl5+ejtLQUc+fOxfLly/HJT34SH/nIRzjHxJOxy4jWhlZ88OYHaHytEYf/dhiH/noIh189jPdefw8nDp1A24k2GHoN8Af8yNGHV7zxoFKpcNdddyE3NxfV1dX43ve+h3Xr1rGHwe12RxwG8Xg88Hq9bPfYJGroZ5SiMC8XuTljNQk8JhtG/8fDJfP3cSKsOisseaNXx+ZdyoPMMfk5zVONLguPgi4L54rXZeGf/exn8aEPfYjtTii/z4/ju47j5L6TaDncgquXrsIPP3zwwR/yEbod+rlUJcXC2oWoXleN2ltrUTAjuUMxFosFW7duZbsneFm4DCU1a1BdHGtYGdC8owEdbHeIZP4+TgRdFk5Imuhu7sbfvvU3fGfud/C7//c7NG5vhOmSCULmQzD8Ebodut9lc+HI3iN47rvP4f7q+/Gd+76D+p317JfjNfX8G0YD2u+Bxx1DYx+EpASFNMk4PSd6sP3z2/Gzup+h8beN8Fg9EEII0fBHMHyD27F+BO93ZO8R/GDzD/D5mz6PN/+WDmehZGFWiRoAYL/YgF27dmP3G+O1I+hmH4akBIU0yRhelxe7H9uN5z70HE7981TECnkq2+zHhZMX8KOtP8Ijdz2CMx+cYZ8OjyghkwKACW3NBvjZ3YTXKKRJRmjb14Ztq7bh/W3vh1XAk/kQjlF5s9sf1H+AL97yRfzhf/7APi2ecMLlBuC2w54270CRIAppkvYan2nE3+79GwY7BsOq3Vg+AsIA/GI/IAYgAiBA2DGxfPzmqd/gu5/9LmyWya8Gnhgm9BpdgDQLuqFRD5JGKKRJWtv/zf1450fvxFwJQwT4FD4EtAFItVJoNBoUKgoxUzIT5ZJyzJTNRImqBHnaPGi0GshVcggkgrDHZx83uH34X4fxpY98CZcuXGKfakoZzrTC4FWjYsVi5NDawGmFQpqkrTe3volTv4889hxa4QohhFvuhkfrgVquRrmnHPPN8zHHPAczLTNRZCtCviMf+Y58FNoLUWYtwzzzPCwxL0G1oxqLxIug1+ohV8kB4fhV9oVTF/DI3Y/gQssF9imnjK68AHB4AGU5Vt6yDrUrVmDFmG0+dOyDkJSgkCZpaf9X9+Pc385BGKViDm47FU64tW4U+AtQYa5Aga0Acq+cfbioxH4xdA4dqsxVWOZahlmqWVCr1RAKxv66fZf68O1Pfxu9l7gXRaWKOlcPnUYytCFRQ6fXQz9mywGNjPADhTRJO+/+8F20bG8BgIhVsxBCeMVeWLQWZPmzUGYug8qtYh9mwqReKSosFahx1qBEUwKRfDSgI31c7riMx7c8Dr8/9edTWPv70Nc3kWaClX0QkhIU0iSttP6lFUf/9yinTwDumLFD7oBL4UKppRRal5ZzbDxIvVJUmatwjeAaaDSaMSvqlqYWPP3Vp9mHSDrD2UY0Nk6ktcDAPghJCQppkjbMF81469/eYrtHCCHEoGoQAqEARZYiCAKJfYdM79DjWue1yNXmhlXRoR9vvPIG/vmHf7J3JyQmFNIkbbzz+Dvw2KJfrNyv6ofEJ0GuPXnTfSo8CiyxLYFOqxuzov7l936Jvp4+9u5JU3LtOtReW4USnYx+6dMM/X+RtHD+n+dxYVf0syUGFAMQ+UXIcmaxuxJO6pNikX0RcrQ5YVV08MNld+GFp19g75o0ErkauhkVqK5dj42bNqJuVTWqSnRQDr+XSPiLQpqkhaPPcMehQ9mldnhEHmQ7whcPSBaZV4aFzoVQqVRRK+o3/vQGTh05xd41KQwXWtDRMwi7F4BACGV2CSqqa1G34TZsXL8OKxZXQB88+4PwCoU04b2zfz4Lw6nob2OZ5WbkW/PZ7qRTuVWYiZmANPq51H997q/s3ZLCeuUcmpvqse/1Hdixex8ajrago88KlxcQytTQl1dhxdoNuG3jhuEqO4vCgSfo/4Hw3snfnWS7RhjUhpRW0KxSWykK5YWcCjq0oj702iFcPHeRvVtyeewwdJ9Dc+MB7AkJ7U6TC36hZLjKrkIZez+SEhTShNcuv38ZV45cYbsBAB6RB36BH3JP7BenJMMc5xxIFdKwKjr48eYr/JneVKLRo2L+YixeWImynNE3Ff02K50nzRMU0oTX2l5rY7tGmBQm5NjDV39JNZVbhTxJ3kglzVbU9a+mcsEAIWS6ElTVrMP6jbdhw9oVqCrXQy0FXJY+dBxvwJ7Xd2DX/mY6T5onKKQJr7W/0c52AQACggACggAkPn6+2VXmKoNAFnk+6r7OPpw5ktz5p9UFVaheVYeNmzZifW01KorVkAn8sA90o+3oYezetQt7DjaiudMA1wSXTSSJRSFNeKv/bD/MHWa2GwBgkVmgcfF33TqtSwutTBs2Jh3cPlZ/jL1LQulmV6AkWwmhAPDb+3Du/QPYvWsX9h06itPdJnhonmneopAmvHX5vcts1wi71A6lW8l280pWIAtCAVtHD32cfu80e3hCWfuHT78DIFTqMXfZGqxbswKLZ+uhFrNHEz6hkCa8dfXEVbZrRKIv+Y6HfHc+IEHY2LQIIrSfiDyMkyiGs0On3+3a04Cjbb2wugGZRo/yhSuw7tbbsPGm1aiuKoFORpHAN/Q/Qngr2lCHW+yG1Cdlu3lH6VVCJpGNVM+h815bDBYMXB1g75JwfpcB3aeP4MCeXdix+wAaT3Wgz+KBUJWFkopq1K7fOHxxSwlNVcoTFNKEt+x9dojlYoApmt0iN6Re/oe0xCeBTCgLq6KDod13KXVzeQAAPFb0XWhG48E92PP2cXRbhqZUHbq4pYwm/ecJCmnCWx6rB2KZGGIZd9DUI/Lw9qwOllggDls5JvgxeHWQPTxpJEodSqqqUbt2aC6P9TcuQYlmOA68dgx29dIpeDxBIU14ye/2QyAUQKwQQywXQ6wYrah9Ah9EARF7F14SQxxWSQc/nFYne3jiSNTQlw2dhrdh423YUFeL6ooS6DQyCOGHy2JAd9tRNOzZhR2v70P9Bx10MQtPUEgTXvL7/BDJRBBJRZxbYGg173R44xDMyjFsRe3z+NjDE6Z82TqsWDJ0Gp5ECMDvgrWvA6ffGzoVb8/BBhw93Q2DK/WryBAuCmnCS0KxEBK5ZKiKloshkUtGtjF8MUu6YCto0fC4tFic3HPf/LbBoWp5327s2LUHBxqb0XbFSudI8xyFNOEloUQIiWo4pGViiORDlbRYJoZEJIFPkLwqdCoCCIRV0MHPFWoFe3jCdLy7A7v21w9Vy/boCycQ/qGQJrylKlCNVNIjTSGGQqKAV5Qe1y774Q+rooMfWflJXKCAqZYlSh1KZlegYriV6JSQpMcI0rRDIU14S12iHhqPHq6gxTIxRFIRFBIF3BI3ezjveIVe+H3+qGPSuhnJP8lNWbwYK28ZfuNwYRWqhlt1bR02bNyAlYuLoKSw5hUKacJb2nJteCUtF0MtVcMr538l7ZA4IPBwVzIPfmhztcguSO482DmL6lBXU46c4VPM/R4PPO6h5g8AEEiQU74M61bPRw4FNW9QSBPe0s7SjlbQwYo6ZIya70xSE2Se0SsOQyvq8sXl7OGJlbMY1bOUAPwY7DiKA6/vwK7du7H7jaG2a+cuHDjagUEvINTORfUi/k0BO11RSBPeyp6THVZFB1u2Mht2qZ29C6+4BC6IA+KRcA6tpOcun8senlAlc8ugBGBtO4z65m5Yw16I+GHtbkb9oXOwBgBlWQVK2ENISlBIE95SFaugLFSOVNGhLV+RD0e2g70Lb1hlVgjc4Wd1BLcXrF7A3iWBcpCrEQL+PrSeGecqR2sL2o0AhFnIpWKaFyikCa/lL82HmDlPWiwXQyaXQZ4lh1cYVhLyglFmhNKpDBuLFkGEvOI8VKyoYO+SQErI5ACcdthjOCd60OZiu0gKUUgTXtMt0XHHpEPGqEuzS2HJs7B3STm71A54ETYWHfyo/mg1e5cEs8LlBKDMgW7ceakk0GXJhj5Nj1PRMx6FNOE1zUwNsmZnhY1Ji+ViqOVqqPJVcIn5VfkZ5Uao7eqRyjkYzsHt5fcsZ++SYIPoNboAZKGyphzDERyRrHwZKrMBuAzojTxTLEkyCmnCewUrCsLP8hj+vCKvAo5i/oxNG5VGSFySsOpZODwmvejWRSiqKmLvlnCGM60weAGhbjHW37wCVSU6KIMT/ItlUOpKULViPdYv1kEIP/rOnKZZ8HiCQprwXt6SPKhL1GGVdHCcembpTAzqxnlDLAnsEjtcQhfUrqEqmq2gRRBh1RdWsXdLDlcHGho7hsak5XpUVNeibv1G3Hbbbbjt1vWoq61GhV42dIreuXfQeIkuHecLCmmSFgpXFoaNSQe38xR5yCnLgUWduvFpj8gDk8KEXGtuWAUd/Fh651LMumEWe9fk6W/Gvt31ON1jDV8RPOCH3dCB44deR32LidlJUolCmqSFnAU5yF2QG1ZNB1t5XjmUFUpYlcmfBdkj8sCoMkJv0XOq5tAPiViCukfr2Lsmn3cQbU0HsOf1Hdixczf27d+Hfbt3YMfOXdjX0IzOAZqqlG8opEnaKFpTBLFiqIoOraaDbU7+HCgrlbBok1dRO8XOkYAOXrjCztEhgAA3f/9m5JTz7MTjgAd2mx00KR6/UUiTtCHLkaH05lLOmDQ7Pj0nfw7y5uXBVJD4l+xmuRmDikEUmgshDIxOQRqsnoMhvfD2hbju89exdyckJhTSJK1kV2VDv1wf8bzp4PaMrBmYM3cOzLPNsElt7ENMmUfkwRXNFQQEARRYCjj7QitoIYQoXFSIW5+5lXNMYpVg2S0bsGHKbRldFs4TFNIk7RTeWIi8RXlh49KhLUuRhUUli6BZoIGp2ASHZOqn6XmFXhjUBvQr+5Fny0OWI/J80AIMzXynLdTiw89/GBJlMhfNlUAijVNjH5qkBIU0SUslN5cgZ0HOmBW1SCbCDO0MVJVUQTFHgf6SfgxqB+EWxT4XtV/gh0VuwWXtZZiUJmgdWhRYCiD2j730lSJfgU1/2ITcubnsrgQzoO3UaZwOa+fQa/cPnWJ3qSXC/tM4fbYTg96hC1ma3z6KTvahSUpQSJO0VbqhFLprdGFVNDtmLZFLUKIpwYK8BSgqKoKvxAdjgRF9uX0waAwYUAzALDfDLDdjQDEAo8qIK5oruKy9DKPKCKFfiEJzIfKt+ZD6xr2uGtmzs3Hbn2+Dfqme3ZUEVvRdaEMb0zr9OShQCjHYshf1x86F7W+70Ia21uOob+yAXarDwnlF4P9ksNMDhTRJa8V1xSi8Yegc6mgVdei2RqbBDPkMzJbPxizJLBSJi6ARaiD1SSHxSaDwKJDlyEKBpWAkmFVuFftloypdV4rbX7sduoXJX3UlOiUqynUQwoTO8+NcQt/fjDYTINSVoXz8v0ckCSikSdrTr9Cj/CPlUOQpwqrp8ZpMJoNKooJarIbCq4DMKxt3KCOamq/V4LZXboNSr2R3pZgaShkAd2yz4MEPABLIY//bRBKIQppkBG2FFpWfrkR+TT5nTDpaG9kvHe4bvp2MgmUF+Og/PooV31nB7uIJD3x+ANIs6NTsPpYaSjnbR1KJQppkDJFchBk3z8C8T89D7sLciOdRh1bR0fYjxvX9smZlYe1/rcXH/vUxlNzI5xPWTDAM+gGoUbFiCXRRXygIobtmBSrUAPyD6E/8qeYkBhTSJOOoSlSouLsCCz63AAXLh2bQizZGLZaPrpkYun8sxbXFuOlnN+GTjZ9E1aer2N281H26DdYAAGUZajesx+prq1AxuwIlOh1KZlegoqoaq2/eiNqZQ+sgGk41o5t9EJISFNIkY6lL1Zh9x2ws//5yzPvUPBStKBp/3FoxehtaURfXFmPFd1bgE4c+gdv/eTvm3zM/9Evxn7UFb73bhkEPAIEMWTMqULWwCtW1taheWIWqihJkyYcuFTe1vIWGjnHeYCRJQyFNMp5IJoK+Ro/5n52PG//zRtT+sBZLv7wU8++bj1kfnoUZa2aguLYYJTeWoOymMsz92Fxc+9C1WPfTdbhjxx34wqUv4PZ/3o6ar9Ugd16yz3uOH7/hNOrf2I3DxzvQZ3HB4/aMNtsgejuO4/Abu3H4XPInqSLRUUgTXvjFL36Ba6+9FvPmzcNjjz3G7o4rVbEKhdcXYs7H5uCaB6/Bin9fgVU/WYW1z6zF2mfWYtVTq3Ddv12HBZ9agKIVRZN+QzEWP/vZz7Bq1SosW7YM3/ve93Du3Dn2kPgKeGDqbEbjwT3Y/cbu0ba/HkeaO2GiyZZ4h0KapNxrr72Gxx9/HN3d3TCZTNi2bRueeuop9rCM8/rrr+OJJ57A2bNn0dnZieeeew6/+93v2MPINEchTVJu//79bBf27NnDdmWcw4cPs13Yt28f20WmOQppknI6XfjVeXp9Ki6pTq6cnPD5pUtLS9kuMs1RSJOU+9znPoeysjJO39atWznbmejuu+/G8uWjK4dnZWXh/vvv5xxDCIU0SbmioiLs27cPP/zhD/HYY4/h8OHDWLt2LXtYxpk5cyYeffRR/OAHP8C3v/1t/M///A8+8pGPsIeRaY5CmvBCVlYWtmzZgq985SuorKxkd2eslStX4otf/CIefvhhbNq0id1NCIU0IYTwGYU0IYTwGIU0SaorV66wXWQcjY2NbBeZRgQ1NTWxzDDLCxaLBa2trSPbGo0mYeOXTU1NnO2amhrOdpClpgatzz8/sl28bRuKtm3jHDMRFksNWltDHq94G4qKJvd483rnobJn9PvTWtyKs0VnOcfEqrW1FRaLZWR7vO+9UCiMeIoZhk+vKyjgLuBKIgsEAjAajejt7WV3wW63w+GY+tqNk5XM38eJ6J3Xi57KnpHtyncqoTFqOMekEwrpKCikueIZ0iQ+KKQjy7SQpuEOQgjhMQppkhBCoRB+v5/tJnFE39/pgUKaJITX64XT6WS7SZx4PB54PDRl3XRAIU0Sxul0wmazwePxwOv1TqrJZDKUlpZOqrGPFc+Wm5sb9vViaTKZLOyxJtI8Hg8cDgdsNhtV0tMEvXEYBb1xyDXRNw7jpbi4eNJX4m2bwv/DeDZt2oTi4mK2e1xNTU1hP1vpKpm/jxNBbxwSQghJGgppkpFCq35C0hmFNOG1np4e7Ny5c6SFvrxmtba2co5NpNCvM9bXslgsI8ds3749Y4Y6SPJQSBPe6+npGWljVcixHhcvoV9vLMl8TiTzUEgTQgiPUUgTQgiPUUgTQgiPUUgTQgiPUUgTQgiPUUgTQgiPUUgTQgiPUUgTQgiPUUgTQgiPUUgTQgiPUUgTQgiPUUgTQgiPUUgTQgiPUUgTQgiPUUiTtMLX6T75+rxI+qOQJmmlt7c3YiCy6+0lW7SvTZP8k6mikCZpxWKxYPv27Xj55Zc5bfv27eyhSdXU1BT2nF5++eWo4U1IrCikSVqyWq2cxgfsc+LL8yLpjUKaEEJ4jEKaEEJ4jEKaEEJ4jEKaEEJ4jEKaEEJ4jEKaEEJ4jEKaEEJ4jEKaEEJ4jEKaEEJ4jEKaEEJ4jEKaEEJ4jEKaEEJ4jEKaEEJ4jEKaEEJ4jEKaEEJ4jEKaEEJ47P8D3WuL32YYXiUAAAAASUVORK5CYII=;" parent="1" vertex="1">
          <mxGeometry x="1386" y="408" width="110" height="161.8" as="geometry" />
        </mxCell>
        <mxCell id="VDgp7xIS0GzNU363Rtex-11" value="" style="shape=image;verticalLabelPosition=bottom;labelBackgroundColor=default;verticalAlign=top;aspect=fixed;imageAspect=0;image=data:image/png,iVBORw0KGgoAAAANSUhEUgAAAlUAAAEMCAYAAADtb0MQAAAAAXNSR0IArs4c6QAAAARnQU1BAACxjwv8YQUAAAAJcEhZcwAADsMAAA7DAcdvqGQAADrnSURBVHhe7d19cBvnfSfw77N44xtIiiIpknqxZMt6l01ZL5ZiO2Jcv8iNEzupUvvkjq1rHadudOeeb5rRtTe1mplOPWkvqae689Tn6zmZxHeOdY7dzJwVJddIrhK/SZZsS6JIyaIkUiQlUnwDRRIgAdwfCxC7Dx4AC+gB+OLvZwa2drH47fPbXQA/Aj/sipse+kIURERERJSzyo4gRNFz97KoIiIiIsqRbziMpQcHYch3EBEREVH2WFQRERERacCiioiIiEgDFlVEREREGrCoIiIiItKARRURERGRBiyqiIiIiDRgUUVERESkAYsqIiIiIg1YVBERERFpwKKKiIiISAMWVUREREQasKgiIiIi0oBFFREREZEGLKqIiIiINGBRRURERKQBiyoiIiIiDVhUEREREWnAooqIiIhIAxZVRERERBqwqCIiIiLSgEUVERERkQYsqoiIiIg0YFFFREREpAGLKiIiIiINWFQRERERacCiioiIiEgDFlVEREREGrCoIiIiItKARRURERGRBiyqiIiIiDRgUUVERESkAYsqIiIiIg1YVBERERFpwKKKiIiISAMWVUREREQasKgiIiIi0oBFFREREZEGLKqIiIiINGBRRURERKQBiyoiIiIiDUTRc/dG5ZlTJfTqMeBaSJ5NRERE5JjnsXUQJV55dt74hsNYenBw+hVVkTO98mwiIiIix3x/tnVKiip+/UdERESkAYsqIiIiIg1YVBERERFpwKKKiIiISAMWVUREREQasKgiIiIi0oBFFREREZEGLKqIiIiINGBRRURERKQBiyoiIiIiDVhUEREREWnAooqIiIhIAxZVRERERBqwqCIiIiLSgEUVERERkQYsqoiIiIg0YFFFREREpAGLKiIiIiINWFQRERERacCiioiIiEgDFlVEREREGrCoIiIiItKARRURERGRBiyqiIiIiDRgUUVERESkAYsqIiIiIg1YVBERERFpwKKKiIiISAMWVUREREQasKgiIiIi0oBFFREREZEGLKqIiIiINBBFz90blWdOldCrxxA50yvPzpvqJUDVIqC4HBAsL4mIiLQKjQJD3UB3CzARlO/NH9+fbYUo8cqz88Y3HMbSg4Ofv6KqtAq45SsCy7cCZdXyvURERJQPn/0WOLE/ivbj8j36TVVR9bn6fObWrwKP/3eB9b/HgoqIiKiQbvoC8NB3Be77jwJFZfK9s8Pnpqj60rcF7npSwOWR7yEiIqJCWbYV2P63AnNvkO+Z+T4XRVXT0wKr75fnEhER0VSonA98+T8LlM2V75nZZn1Rtfp+YM0D8lwiIiKaSuXzgKZvC3n2jDariyq3F9j8B7NrhxEREc0WizcAK+6W585cs7qoWvu7QHGFPJeIiIimi1senD0ffszqomrpXbNnRxEREc1GtUuBmhvluTPTrC2qfGXAvJvluURERDTdNKyW58xMs7aomjNfnkNERETT0ZwFs+ObpVlbVPlm6YnFiIiIZhufX54zM83aooqIiIhmhtnxORWLKiIiIiItWFQRERERacCiioiIiEgDFlVEREREGoii5+6NyjOnSujVY4ic6ZVn5+SG9cBXnpterW+RMADL1g5cAT78qX3zN6wS6DyVmCdPq+atuFtgwS2WBaLAr16wP+buXdlvC9X47nlG2DoKm38FXDqR3XjlaSjGJwzzNkmRkxxHnlbNk6cxlTkBiEzYp7UQgGHYOz+jEfNm9S97s89Jnpd07AH41d+nf4w8rZonT0Oxn3Tl5GQ/yTnJj3FKHt/vPCMgLKE6PgFO/0v68crz5GkoxuckJzmOPK2aJ09DkZNqP+mgysnJ80neBxt/X8Bfa5tlJ2LrmqKc5P2UcbxOCMBwyTOn1tnDwP7v2XO9Hr4/2wpR4pVn541vOIylBwdZVBVSeAKIjCemO08BP/+rxOb31wD+WqDzZGKZ5U1Ay8HEtGqZu3cJrLovMT3UDfzoKXvcHXuz3xZJ46sFHn9J2J70v/xBFC2/Tkw7Ga9qGXl8Lg9guBPTQ5eBH33TfqjKceRpR+tW5PSrH0RxOk1OqnnytJOcolFgYsy6hB7CMNdlzSkcihX1MYEe4NVd2W1P1bwv7RJYbT32cthPqnnyNAB8+037fgqP299Ec83pW6/Z95PhAVyW/QQAe79qjys/xgnV+OSc3vtxFEd+mphWjVeeJ09DMT4nOclx5GnVPHkaipzk/aSL4TaPc6vxUfu0yj8+Ys97x14Bf41tlo3y+SS9luuiykneT5nG64QwALdPnju1ZktRxa//iIiIiDRgUUVERESkAYsqIiIiIg3YU1VA7ceBwa7EtNxs6K8x+y7SUS1TWQ9UNCSmh7qB919N7NayamDDN7LfFoEe4Og+e0/V7Tvs/RInfwF0nrSvq2F1Yl2q8criywSuJOYtvFXK6TLw/k/sh+r67SJtbCfrLp8HVDbY+yUy5QQHsZ3kVMieqvZjwGC3dSk9x19Fvbn94nLZT1DElQkBLGyUcpKeT8gxJ8R+lBFXUW+uy+qX37fn1PT09T+fAOCeP7U/n9qP2xvV61cmNyXnK6d87afp1lPVeco+3bDKPi1TPZ8K2VMl76dcjj0Ze6r0Y6P6FHjjz6PoPJGYbnpaYHmTdYncyA3QU9movn57bgXcz78bTd98r2iAlptxcyFcZgOvNSe5UT1fORWyqNKVk0xugM7bfspjTgdfjNqarTc8Amx+zB5HbhbOJadAjo3qubyJ5pKTrgZoeT9Nt6IqW8qcClhU5Ws/sajSi43qRERERBqxqCIiIiLSgEUVERERkQYud9NNe+SZUyX8aTeifSPy7JxUNgDLm7LvRcinwW6zv6l6sXlrWH39340D5plxrd/3B4eBsUBiPfWrkhutnQqNWMcLLFhrP1vy2JCArzSxzOKNueUUuAKU1ybizF8jUFGXuD94zZ5TfF3XSxjm2cetOY0WKCc4PAN0tkTsbMn5yEkmXLGzt8fkbT+pcgoI+EquPydvqfm4hlXmbcHa5P002HX9OYVG7M+n6sXAjZvtz6fBbntO9SsFqhdbozgTvCbgK7Os5/bMOTWsMo+R66HaT/k8+7h8VnD5+RToSWz30AjgK1XPS8dpTnJc+eZk3aqcnOwnOa58k5cXwt6HOx30XQTO/kaemzv3HYshPIU7bbw7FEXV+SAb1QuJjeqpZWrqzlsDNBvVr8tsaFSXyTlB0SycS05sVNdL1dQtN6ofeT2Ko/sS06ozwGfKW5mTolFdPlO7vC55Gop1q3Jysp+crNt6HLFRXT82qhMRERFpxKKKiIiISAMWVUREREQasFG9gGZao3qgx2xoTIyXjerZyJQTFI21Oqgaa3XlJJsNjeoyOScomoVzySneNGyNw0b13KmauuXnU6DHvh3qV9qnneTtNKfhXnvcsmr789/JulU5OdlPTtZdbTmO2KiuHxvVp4Dc3JjUCF5jNoNbm5vlhkNV0/l0alRXjVdLTooGaDmOPK1at/zjACeN6nJc1Tx52klOhWxUD4eASDgxrWqalnOQp6Fo0JabunPZT6p5ctO5Kid5P8mPyZWcExTNwvJ2cEK1zZ00qmfaVvI0FONzkpMcR55WzZO3uWo/6cpJnrfh94HNf2DPU25UV5GbulWN31bKnH4SxZHXEtPLc/xBgcxJo7q8HZyuW8778ZcFyqVLIE0lNqoTERER0SQWVUREREQasKgiIiIi0oBF1RTz11hutdJ07Ht+eRkncnmMimo8me6X1+1kGSfkOGXVmePKj3GiTPEYOY6TdU93WefkcPvJj3ESV7VMJqr9lC/yeHNli6M4Rvy1Zn+PdT3yulXbSl7GCfkxTuKqlslEV06qZXIhx82FvyY5p3yRx5vrdrDFURx7pAcb1QtIblTP1ZHXo+hqTkxvfERgYWNiOhoBfvYX9t36lb/MflsEeswzM1t97a+TG2utjeDLvpifs8RHo8DP/vz6c5KpGtWd5CTvg/XbBRpWWZdIpsppqhrVcyXnLR97iJpXDrDSsp8UOTnZT7lQNXW/8Z/05PTz76Z/Pp08ALT8OrFM/crk5nt5HzjJ20lOTU+nb9h2QrWfpvKM6iryPsiUtzInxWu5HLd+JWz7SZ6GYt2qnHTtJ3l89/wHNqrrxEb1Gayr2fxFW/wWuGK/P3Al/f1OBXqkOD3yEqpl9D0prOScrG+mug07yGm4V882nmnkvIekvIem2X7SRUdO8nNFFSdwxSwU47dhxd+Y8j7INe9MY5mt8pW3HFfeT/K003Xn8hgVXXEoPRZVRERERBqwqCIiIiLSgEUVERERkQZsVC8gVXNjLo68HrX1Wmx6VKCiITE91A28/2pit5ZVJze7OtF5Cmg9lIjjrwVu35HcqG7tJ1q2NXPDthNyU/fQZeD9nyQ3bF6vVI3qmXJS9Ze1HLSPT97mck4ztVHdeuxtfFSg0nrs5Ws/KXJysp+caDlo70tacIvUfA/gl9+//pwCPcDRfVKz8J8mN6p3nkgso8pJPvb8NeZ+sZKPPVWjuo6cZKr9NN0a1eUf32TKW5mT4rVc3i8yf03yMmafXf6PPSjyvvfZ3OLkCxvVacp0NZtvBPHbpRPyEvb7Ww/J9zpnjSNfNgKxFwXr/dYXCN0yjUWXYQc52X6eHHuxPLovcbuebT6dDffat02mY2+q95MTXc1R2767pIijK6dMcQJXorb7rX/UxGU69o7ukx+hJo9FfsOfrfKVt7xf5Jtqmc6T0rFnKajjdI1XjiP/yIT0YFFFREREpAGLKiIiIiINWFQRERERacBG9QIa6AQGuxLT8X4IK3mePI3YiTCtFt6KpEb1i8cS0/HLtWSKq5pnXVd5nbkuW2PtL+y9LKrG2lzITd2qBuj120XWOcnTwtCTUyB2Ysc41TavrLfvp0I2qg90AIOXE9Py2FTz5Ok46zGx4FZkbFTXsp8EsLDRnlP7cfvzqWF19nHj0uUEACfetk/L61LFVc2zrkcYwKp7pWNPalSvX5n5bOnysQfF+Crqk3OSG6DztZ+mslE90JM8XvnHAqq8/ZYzliufT5peyyEfe7cAlfOt9ybvJzaqOzNVjeosqgrojT+PotPS2Lu8yWwYjPPXmG/G1hdI1TI79mb4VVkEmAhalzAvUZAprrzupqftL+iqX8r98gdRtPw6Mb1+e/Ivj3Ih5zR0GfjRN+2HqpyDPK3KKWmZWuDxl+y/wPrVD6I4rSEneZvfvUtg1X2J6UIWVXJO8nZQzZOnAeBbr6X/VVku+0k1T54GgG+/ad9P8pt1oAd4dVf2686UExRv1gdfNBvK41Rx5XnycaTaT+/9OIojP01ML2/K7U1UHt+GR4DNj9nj7P1q9ttKnidPw8F+0sVJUXXkdbMRPE41Xnmeo/30kyiOvJaYlmOo5snTgPlabi3gVDnJ+0l+jFP/+Ig9zuMv8zI1OvHXf0REREQasagiIiIi0oBFFREREZEG7KkqoPd+EkXA0ixcVm2/Cn1Ztfl/eZ48Lff3yP1Hqp4q+UzYqriQ1i03aKt6qnJp6nZCzknVAF2/UqCrOTFPnlblJOetOku8rpzkbb7ibvvZkgvZUyXnJG8r1Tx5GoomWbn/KJf9pJonT0Nx9nG5VyegOGO5HEeehoOcoOjVaTlonjQ0ThVXnicfR8r9lEOjuoo8PvnYg6IBWn5uyONXzZOn4WA/6aLqP8plP8l557qfMsVVLbN+e+aeKnk/yY9xSm5Uv/0P2FOlExvVp4Dq0gY6yAWIqqjSQVVUTYSAqIbLn8iScspXAaLISdclXWQFy0nxJpCvnJIKkCgwXqic8vVmLeekeLPWgTldH1UBUrCc8vRaXsic3D557tSaLUUVv/4jIiIi0oBFFREREZEGLKqIiIiINGBRVUAi/h+NN2HE/i2vKA83Ef+3dVWK5bTdZPL9Gm5CyCtJXkbrTVpN0v0aboXMScjrQfIyOm6zMScIeSWK+zXdhLweJC+j7SavRr5f062Qx4RM5GldU5kT6cFGdSIiIppSbFQnIiIiokn8pKqQoubP6HVTfS0XjdinA1eAIevFkWvt06p58jQEsGCtZTp2XqIhy7m3ymvNcz9lK2l888yb1VTmlHVcxTxVTh2f2KeTHuMkrryMw5wKtZ+0UHw1Eo2azynd8vl8sm3zAuakXNcszKlQz6d8vZarcpL3kxaK9Uy12fJJFYuqAsrXuU2Szn+kOE+VfHFf+eKeuV58WNcFleXxObn4sHzR2KTx5piTjosPq9Yt55Sviw87ySnX/SRv8y/tElhtyenzcp4qeTvI+0A1T97m0y2nfF18OG85Kc7pJF98WB6vPK2aJ09DdZHoPL2Wq3KS95MOPE+Vfvz6j4iIiEgjFlVEREREGrCoIiIiItKAPVUFlK/v4Z30VMkX95Uv9jkTLz7ckuFiqbpykuOq5slxVeuWc9J18WF53f4a4PbH0ueU636St7mc0+elp0reDvI+Uc2Ttzlzuj6q/iP54sPyc0MePxwuk3SR6Dy9lqtykveTDuyp0o+N6lMgX09Euaga6gZ+9FRit/prgB17r39bqC4+XKhGdVVT97dey349MlVOTi4+LDcqNz0tsLzJukSypP2Ur5wUb2xyo7qqGVded6AHeHWXfXzy4z4vjepyA7S8rZxQbc+kBugpzGnHXgF/jW1WRlOak6YCRG7Ql1/DlMdenl7LdeWUCYsq/dioTkRERKQRiyoiIiIiDVhUEREREWnAomqW8tdYbjmcOdsp23qy7MewchLHyTKFUlatZyyFyqlMsR4n65aX0ZX3TCNvh1zZ4uTxeenEbMwpF/4as5fsercDEfjrv8LKV3Oj3AAdjQA/+wv7bv3KX17/tlA1db/3Y3uD+bIvZm7YVjnyehRdzYnpjY8k//rvZ39emJycNKrL412/PfOv6ZL2U75yUjTWOtlPck5OlpH3UyEb1Z3k5ISc0/IvSc33AN74T9nvJznusi8KtL5jj/O1vy5QU7eiUV1XA/TPvztFOeXY1C2Pt+np9A36qmMvX6/lueaULTaq68dG9VkscMW8PEr8FpCudaVToEdaV09uT4qu5vRjlnOyvplOheHe9ON1opA5DTvYT0k5OVhGvo5aITnJyQk5J1Uc6/2dDveTHLer2SwCs40zncnP/5mQ00wbL80sLKqIiIiINGBRRURERKQBiyoiIiIiDdioXkD5am6UG6CHuoGJUGLaX2OeBdvaK9KwWtguW2IuJ2zLLG+yN3Cqmrr7O8zG+Dh/jdmgayWfYT3QA7QctC+zvMm+TGVD8tnH5UvvdEr9L7pyctqobr20xfrt6ZtdodpPKS5Tc905KRpr3/tx1Nb3JV9eBIqcnCyz8VGBygbLAgVuVM+UkxNyTkmX3lFc/qTp6eTXFvm4l49pADi6z75M0uVP8tXUralRXX4d8dcINKxO3C8M87lbkJxybOoO9CRPW59jDasdXHonT6/lueaULTaq6xdvVHe5m27aI985VcKfdiPaNyLPzkllg/pFbSpFI/YCRBfDZX/Ce0sAjw/wlZo3AHj3R1G0HgK6Tpk3IYBP/29ierjHbKy1LjP3BoHqxYm4wgAMw3xsnKcI8BYn1hXoAQ78nT3u2t+174erF4CDL9qX2fANMRnDV6rIqdSek68UOPF21JaDrpyiYfOXeem0vmO+wVw9b97kuCpyTsFrwL/8QyLG1fOAr8yeg5xT16nkZeR1CxFblyWn0//PPl5/jfnmYSXn5GSZuYsFam+yLZKXN9Bcc3JCzslfCyy4xR7n7b+x7yfVHwrW477rFPCFJ+zHdGgEOPjf7HE2PSrsx16eXiOEyzzOrXLZT/Jzbu5iYMlGS55lyfspbzkZ5rqsnORk3Se+UvMPvKP7EjnJx5Hq2JtuOWVLCPsfeNNB30Xg7G/kublz37EYwiNtzDxyh6KoOh/k139EREREOrCoIiIiItKARRURERGRBmxUL6B8NTfKDdDRSHJTd8tB+7S/1n7CSnkaABpW25s6hQEsvNXeFzQRMnuQ4uInA4zz15o9CknNodK65QbjpJyiwITUAN15KjlOumk4zMlJo3rLQfNkjnFOmqTlnFSN6su2iow5yPMaVtsvr6FqrD35C3szrmq88vaU40KRd1JTdwEb1U8eADpPpM/JiYw5KRrV128XaY9pAElndw/0zLxG9c5T8pz0x4hqP+UtJ01N3arj3vYaIYCFjVJOeXot15VTJoKN6trFG9VZVBVQvp6I8pu1qqjKRecp4Od/ZfmlTy3w+Ev2NwG5qFL5+XftlxNpejrz5USSclIUVblwkpOTourgi1FboZpLTkOXgR990/70+9Zr13/Mqt7YfvWDKE7/OjG9fntys7UTct5f2iVd0qWARVW+ctrwCLD5MXucvV+176flTfY/VJysO9ADvLrLHufbb07foko13kzHp2o/5S2nPBUgqryT9lOeXsvzlZOMRZV+vEwNERERkUYsqoiIiIg0YFFFREREpAFP/llA+TphnHxSSUQz9wQ5EegxmzSrF5u3htXAgrX2kxVGwub60glcAcprrXEyn308KSdNJ8FzkpOTk38Grwn4yq4vp+A1YCyQiFG9GFi88fqPWdXJCkeHzBM0WteTabwqct7z1whU1NmX0bGfZMqcAgK+Ev053Xh7ck6DXfb9VL/S/hgn6w6NmDdrnBs3T9+Tf6rGm+n4VO2nvOWUpxNlqvIu2H7KU04ynvxTv/jJP9moXkD5am6UG6DZqJ6ak5zYqJ6anPdUNqrLDdCqBmN5ezpZRtXULTeqy49xQrXupAZoRVP3Pz5y/U3yqpzkBugjr5tnFo9zElfmZD9BV06Kpm55P+3Ym7nYlTnaT3l6LVflJO8nHdiorh8b1YmIiIg0YlFFREREpAGLKiIiIiINWFRRWg2r7bdcmFd9T9z8tfIShaUjp7JqPTnpGIsTZfI+qEnfr5KKnHd5jnnni5Pt6WQZWS6PUckljvwYeR/kui9l/hqRl7gq+cpJjpsrXXHo84eN6gWUr+ZGuQE6GklugG5Ybb98zLKtQOsh6xLJy6zfbm++Fi6z2TXbRvWDL9ob1eW4Kkk5RYEfPWnPSc5BnkaOOTlpVD/yetS2Ljmuiq6c5HnyNERy8/17P46ixdKovmxr5kZgFTnvDY9Mn0Z1FXm8TvJ22tQtx3Wyn6zrdpqT3DSdKa6KKqcf/lHmuE5yynTs5S0nB03dLQftlwaSXw/gYN3K/ZSn13InOenARnX92Kg+iwWumL9gid8Q+0WL9Tbcm3kZXXTElXNS5SBPQ9O6VVTrylYuOanmydMqw1KMXDlZ13SSr/HKceVp1bxcTVVceVo1T56Wr3+YSqa4ugR6oklxC7Vu+nxiUUVERESkAYsqIiIiIg1YVBERERFpwEb1AspXc2NSA7SmM6rLVE3dThrVc5GUk6YzqstUOTlpVM9FwXJSNdbmKaekBuhp1qiei6Sc8tgszJxyV8im7qSc8vRaXsic2KiuFxvViYiIiDRiUUVERESkAYsqIiIiIg1YVBERERFpwEb1QsvH1lalWaj1oIDrKtR6UMB1FWo9KOC6CrUeFHBd+VgPCriuQq0HBVxXodaDAq6rUOtBinVNITaqU25EHm4q8jI6bqnIy+m4qcjL6LilIi+n46YiL6Pjloq8nI6biryMjlsq8nI6biryMrpuKvIyOm4q8jK6biryMjpuKvIyum4q8jI6biryMrpulBcsqoiIiIg0YFFFREREpAGLKiIiIiINWFQRERERaTBri6p8XJKDiIiI9Jst79mztqga6ZfnEBER0XR0rU+eMzPN2qLq6oX8XFSYiIiI9Oo5p+8cVVNp1hZVAHD+iDyHiIiIppv2Y/KcmWlWF1Utv54dlS8REdFs1XIQGB2S585Ms7qoavsAaD8uzyUiIqLp4tjPZs8HILO6qAKA3/xTdNb8qoCIiGg2ef8nUfS2yXNnrllfVPWeBw78l9lTBRMREc0Gp34JfPiaPHdmm/VFFWJXv/6/fxNFaES+h4iIiArt+FvAv/zD7PvA43NRVAHAuXeB//Xvo2g9JN9DREREhXD1AvD281Ec/h+zr6ACAJe76aY98sypEv60G9G+/H2cFLoGfPYucO49IHhNwO0BivyA4ZKXJCIiIh2GLgPnPwQ+/N9RvPMS0N8uL6Gf+47FEJ7Cvbm7Q1FUnQ9CFD1377QpF0OvHkPkTK88O++8JYAQ8lwiIiK6HuNjU3MJGt+fbYUo8cqz88Y3HMbSg4MsqoiIiGh2maqi6nPTU0VERESUTyyqiIiIiDRgUUVERESkAYsqIiIiIg1YVBERERFpwKKKiIiISAMWVUREREQasKgiIiIi0oBFFREREZEGLKqIiIiINGBRRURERKQBiyoiIiIiDVhUEREREWnAooqIiIhIAxZVRERERBqwqCIiIiLSgEUVERERkQYsqoiIiIg0YFFFREREpAGLKiIiIiINWFQRERERacCiioiIiEgDFlVEREREGrCoIiIiItKARRURERGRBiyqiIiIiDRgUUVERESkAYsqIiIiIg1YVBERERFpwKKKiIiISAMWVUREREQasKgiIiIi0kAUPXdvVJ45VcIftMuziIiIiLJirJkHUeKVZ+eNbziMpQcHp1dRRURERDTTxIsqfv1HREREpAGLKiIiIiINWFQRERERacCiioiIiEgDFlVEREREGrCoIiIiItKARRURERGRBiyqiIiIiDRgUUVERESkwSw7o/p2vL17B3Do63jg3disLd9D11bg+ee/gxfi0/c3ojJ29+lj92HdW/HHP4tje7ZhRWxqoO0lPI8d2I1XUf/DfbG51nXYlwcu4pU9T+Lp2NSLuw5gZ/XknbF1ORijbRz2mEmkfAbaXrKMFXjmiTfw/JKy2FSGWEljtiy/5XvoWt+N+r3fn1z2mSfewM6Br1u2XxrSODF2HLsn801NvQ0tCzz0MkbXLTL/3bsfxZbxJXEwhvj6ktajkGls1m0v7xebDOOy7UPFmGWZxgUk1ol040KWY8uUp/T8Uh+PlmUy5Jp+3fK6HBwfFi/uOoCdZenXn5n9uf7irgPYCedjIKKZY5aeUX0f9ncBjcu2T855ZtlSoOuDRLFy/1Ic/8V9KN5j3hJvNtvx9u5twLHEffU/3IcXWs8C9ZvwTHyxLZvQiLPYHy+IcBGvxJbf3VaFnbu/l1g29oZWvOc+FP/iOOrWvYG3t2Qao30cu9uqsHPXs5aICr37J9eBJdvwYnz+Qy/j+fqz2B0bX3HSG5jKMA7Gts8rvYvw8BOJcaKszpbbCj/QfcUyI5Ox44mxZPFmlbwNY3ds+R661iG2/V/CwbJtOPaQ9GCZZQyvDDfiecu2fXHXAWxufwkHx2yPSCvl2PAsdsa3vbxfVNKM64Uffn3ymHxluBG7rfskhdTjgnmMbV2K420XrTNTSzM2xIqZ+PhSF1Rx6Z4vz+LYnjvRHX9+OjhGEuvej+4lT1n2//exLn6s7bkPu9uGMRBwmC+exWbsxyvDS7HNtt2uw0Mvs6Ai+hyYZUUVpCJoO7bVA8db4y/0F9E9VmYraBL24fwwsGKhVMC8+wGOI/Hiai+A7F744WGcLkrxQvzud/Bmr7nutGPcsgmNOI5X3oL5xrykLKmYSWusD6fj/77Sh4FU43GoeyA2rne70Q3Eir6X0xcI+WLZhojvi7b9ZqH40DY0FQF1lap9q/b00eMYqF41mcvTexWf6DgljQ34PtbFi4LJbeeMPC7Z5D5xImlcwIu7nkJd89fxwIBtSUcyjS0bSc+Xh1ahru3VxCe4Wfk+XmkbTn7+ArHnUR/ezFjwxTy0Cmj/Pp5u70vxWpGtZ3FsZR92s6AimvVmXVFlK4KSPlXahweevw9v+p/C6J4DGJX+4n56733YHbjTvG/yL2jrJ0tykSa7iO40n3KcDgyb/0g7RtOKJ97A6J470f2L/ThdVGX/GkNWvc0c8/1VeNP61/2730H9nsOou/8ARvccyPwpDgCgDE2x5R8OvJRcZGzZBAwDmx3FkhQ14vk9ZuzE9s3O5DactAhv7z6A0ZV92H3sIir9sa8Cnciy2MkkeWymZ564E3Xx4s+JpHFtN3PcY359lLRPMrCN66GX1fvVqaSxAZVLYs+nPfInYpnYny/PVFYB2IRjOR4jLwz0ybOAHLb/iwuB994C8NYpdFs/pc5JGZruvxPdhzJ/6kZEM9/sK6osRVCqT5We3hv7SiBwZ1JhNflVS3MVno+9qE9+spSiAEpYhLqiPpxPcf8Kf1nsU4YMYyxqxE7/YRTvifVdWT99Uundb379NVaFxUlvavGvQV5C90onhVXs6z9VgVJUhRW1ANr7gMpnsbgsda5KOX79Z5XYhqbKJdtQ15yI5/wrHgBb6lCXadtmQR4b4n0//sMOvhazSBqX+cdA8Z77UNy+KumYzSQxru14e+WiRBG0LvbvbIoXaWzWryaLj/WhaWsWsRTPl8olVXjP8lXjzozHa8IzlVWK/Z/lp1R4FpurF2HnngMY3bMNK67zk15gGAePnUVjVtuFiGaqWVhUxYugbdiZ9lOl1H/ZArGvzuL/jn2ytHO9ogCyeHHXNqzoPaX+i/ihl7Gz+qL5F3C6Mb77AY6PDePgUfOrgmeeuBMrhrtTrjNhHx5o7kPT+lRvuObXm469tR8Hy+60fPJgfqqwuRLY/9YH6PavQp39Efmn2IYDY/GvSs2CQS5qUtuOt7c2pt2fWZHGhliP1vP+w1n20eRzXJbibI9ZOA+0vZRFgZt+bM9UVgGOjlWT/Hx5YaAPA5OfKG3H4rJh5z17W76H3UuSn+/ZfkplfgWZ6BHb3Wbvf8zJle+gvrkqqReNiGafWVlUmUXQIqxI+lTp2cRXC3sOYHQd8MrkG17iKxbzq7SlOD75kb35ydKK6uQXbSD+V636lz0r1lnWZW0UTznGfXjg0Fk0xr6Ce77+rPNejLf225u1H3o5kU/WXx3FijTbX9iLsMLfjRewD/sDVViBLD/lyfHrv9Tb8Dt4vmtpLOZTaOxy8LXW5BjM5eVfSo7ueQpNRbF1OhhjyrFt+R4errZ8NbvnALrSNZinGdeLuyzHpcPenJTjykWasZnbLJtjNc3z5a0nE1/N73kKjV2Z+6smP3W7fymO/8Lyi1rEC61sPqUCXlxYZXuOJ/1QJVdvPYlXsM3RMUVEM9csO6UCERERUWHN0lMqEBEREU0NFlVEREREGnxuvv4zIDDP5UWd24cqw4vRaBg94RA6JsYwFg0jm41gxvKhzu3DXMODkWgYV8LBWKyIvHhaBgTq3D7UuXyoMjy4ZokVzCFWvSXWcHQCV8IhtE+MIZRDrAa3D/NisQKxWB05xprvLsI8lxdVhgdDk+MaxXg0my1vxlrgLsI8lw9zXB4MRsZxJRxE+8QYJq4jVpXLg4HIOC6Hg2gfH0N2RwTgksbVHxnHlQlzXLnEWhiLVeHyYCAcwuXYfoxkGcstBBa6ilHr8qLC5UZ/2MyxYyKYdSyPMLDAVWTGMtzoi22vSznE8sZjub3wCzf6I+PoDgfRmUMsnzBix5cPZcKFvlisrhxiFcVi1bp8KLXE6s4yloiNa4Hb3PYlwoW+SCgWK5RVLCKa/uJf/30uiqpl3lKs85ajJvbiVixcmEAEI9EIApEJnAwN4+PgEEaiYfmhSVZ4y9DoLUe1y4NS4UKRcGEcEYzGYp0IDuPj0BBGHcRaGYs11+VBqXCjSBgYRwQjkTCGo2F8Egzg49CQo+JqlbcM63zlqDLMHK2xApZYTgqiNV4/Gn3lmGOYOfqkWMeDQ/gkNOSoIFrr86PRW47KWKwiw0AwmsjxWHAIHweHHBUet/rK0egtR4XhNnO0xApEJ3BsbAgfhwKO3rAaY7HKVbEiEzgayzFzJOA2XwUavX6UGW5ze1liDVliZSJisW71+uE33CgxzG0fjEZwLRbrSHAQJ0IB+aFJXBBYV1SOWzzl8BuuyVhjsXENRMZxNDiEkw5iuYXAbb4KrPX6USZisWDGuhaNxxrEqVDmn5d6hYF1vnKs8frhj8XyIJZjNIy+cAhHg0M4PZ45lk8YuM1XgVXeMviFGyWGAU9sXCPRCVwNmzm2OIhVLFxY5yvHKm8ZymyxwrgWDaM3PI6PgoNoHb8mPzRJSSzWyti4ig0XPBCTsXpiOZ51EIuIZobPRVHlEsBm3xys91WgzuWDWwh5EQDAYGQCHweH8M5YH4YiE/LdQCzWF3xVuM1XjnlpYg1ExvFxcAiHxvowHFEXVi4hcGfRHKzzVWCeywsX1LH6I+M4HhzCodG+lAWfSwhsLarCrb5y1GaI9VFwEIdG+1J+muYSAl8qmotbfX7UuLwwUsTqi73BHBrrS1nwuYTA7xTPxS3eclS7vCm/Z+4Lj+NIcBCHxq6mLNJcQuDe4mqs9fpR7fKmGBVwNTyOI8EBHBztS1mkuYTA/cXVWOP1Y26GWB8EB3Bw9GqKSGasB4prsMbnR5Xhke+e1BsO4f2xARwaS30KD48Q2FZSi9XespSxogB6wiF8MDaAd9LE8gkD20pqsMpbhjlpYl0JB/H+2AAOj/XLd08qNgzcX1yDlWliRRDF5YkQ3g8O4LdpYpUZLtxbXIOV3lJUpogVRhTdE+a43gumPuV7ueHGvcXVWJ4hVtdEEO+N9eOD4KB8NxArZCsMN+4pqcZyTxkqDLe8CABgIhpFZ3gM740N4EiaWHNcHvxOcTWWeUrTxroUHsN7Y/04GsxcbBPR9Bcvqlzuppv2yHfOFut85biruAp1bh9cQqCnZwBnznSgra0LQ0MjcLkM+HweFLtcqHV7MRCZwNVwCBOKt9H1vgrcVVyF2lisK1cG0NragfPnuxAIjMDlcsHr9aDE5Uat24f+8DiuRsaVb+4biypwV1EVal0+GBC4fLkfZ8504Pz5bgQCo3C7XfD5PCgx3Jjn9uFqJJQy1u1FlbizuCpWuAhcvtwXG1c3hodH4fG4zXEZLtS5fOiJjKMvEoKqFNpSNAd3FM/B3Fis7u4+tLS048KFbgwPj8HjiY/LhXkuH66EQ7gaHleMCrijaA7uKKrCHJcHBoCurquxWJdx7doYPB73ZKw6lw/d4SD6UsS6q7gKdxRVodLlgQDQ2WmP5fW64fV6UWK4UO8qQldkDFfD43IYAMDW4ircUVyFCsOMdelSL1paLuLChcsYGQnC5/NMjqveVYTOcBB9EXWspuK5uLO4Cv7Ym+elSz04fbodFy9exuhoEF6vJZbbh0vhMfQrYhmxWF8omgO/4UY0GsWlS72WWCH4fG74YvtxntuLS+GgMpZbCDQVz8XmWKxIJIqOjh60tLSjvf0KRkdjOXo9KDXcqHWZ4xpQ/DHhEQaaiquwuWgOygw3wuGILdbYWMjM0etBmeFGtcuLzhSxfMJAU/FcbCqqtMS6gpaWdnR09CAYHJ/Mscxwo8rlQedEEIOKWMXChabiKmyIxZqYCKO9vQetre3o6OiNxYqPy4U5hgedYXWsUsOFpuK5WO+rQKnhwvj4BNrbzXF1dvYiGJyA1+tBkdcDv+FGheFGVzio/OPLb7ixtXgu1vvKUWq4EApN4OLFy2ht7UBn51WEQolx+Q03yg1PylhuIZTPUSKantyhKKrOB2d3UbWtpAYLPcVwQaCtrRs///lvceRIC1pbO3D69EUEg+OYP78aRUVeeISBkWgY51P0Mn25tBbz3UUwIHDuXBf++Z9/i48+ap2MNT4+jgULauDzeeARBq5FIzg/Mar8uu0rJfNQ7zYLqs8+68Sbb/4GH310Bq2tHWhpacf4+AQWLqyF1+uGRxgYjobRNjGi/CTn4dJ5qI0VQWfPXsLPfnYYx4+fjY2rHRMTYSxaVAuPJxYrMoG28VFl4fh7pXWodvkgALS2duCNN97Bxx+fm8wxEolg0aJ5cLtd8AoDgdi4VMXeN8rqURX7JKilpR379r2DTz9NxIpGo1i8uA4ulwGvMDAUncC5iRHlG8mjZQ2ocLkhAJw+fRGvv34In37ahjNnzFgAsGRJPQxDxGKF8dn4iGJUwGP+hskiqLn5Al577SBOnjyPM2c60Nx8EYZhxhIiFisygc/GR+QwAIDH/QtQYrgAACdPnsdrrx3EqVMXYuNqh2EYuPHGeiD2tddgilgGBP7APx8lhgvRaBQnTpzHT3/6azQ3m7FaWtrhchnmuGLFzmBkAucUsTzCwL/xN6BEuBAOR3DiRBtef/0QmpsvoLW1A62tHXC7XVi8uA4CgFsY6I+Mo21iVA6FImHgEX+D+XX5RBiffHIO/+f/vBMb1yWcOdMBj8eNG26YF4sl0B+ZwHlFrFLDhW+U1aNYmIXL8eOf4Y03/hXNzRdx5swlfPZZJ7xeDxYtqoUA4BIG+iLjuKCIVW648fWyOhQLF0KhcRw7dhZvvnk4FqsD5851wefzYOHCWggIGEKgLzKOi4pYlYYHD5fOQ5FwIRgcx0cfncGbb/4Gp09fRGur+QdYUZEXCxbUQEDABYGrkXG0TyRfj2qu4cFXS2tRJFwYHQ3h6NEW/PM//3Yy1oUL3Sgu9mH+/GoYEDAg0Bsx+xRlHmEon1dEND3Fi6pU38pMY/GTdGa+zlix4YILAmNjIZw40YYLFy6jry+AwcFruHp1CO+/34wTJ9owOhoEYi9kqTZIsXDBgMDoaBCffnoOFy9exi19AewZvIa/uzqEyndP4cSJNoyNhQAAXiFSfrVUYiRiffzxZ2hvv4L+fnNcvb2D+PDDFpw82YZQyPwkwisMpIpWYhnX8eNn0dHRg/7+9Rgc3Ive3q/h3Xev4dSp8xgfN/8aNmOplRjml4ejo0EcO3YGly712sZ1+PCnOHXqPCYmzK8i08UqFWaskZEgPvroDDo7e9HfP4wlgzfjwd6vof1fA2huvoBw2CyjfGlyLI2Na2RkDEeOtKKr6yoGBoYnx/Xb355Ec/MFRCLmm5BXpNqLQKkwC6qRkTF8+GELurv7bLEOHz6J5uaLiNevaWPFCqpr18bw4YenbbF6egZw+PCnaGlJXDbFSazh4VF8+OFpXL7cb4nVj9/85gRaW9snl08VS8S2fTQKBAIjOHKkJRFryTV0b+7DO598gjNnOiaX96WKJeKxohgauoajR1snYz1SUo4vTLjQ/N5pnD17yVw+zbgMCJTEYg0MDOOjj8xYjcuG8YPvDOPeTb1oP/cJPvusE8gQSwgzViQSRX//MI4dO4PLl/tRWVmNpqZ74PGU4d13T+HcuS5zeQCpvug1IFAci9XXN4Rjx87iyhUzxz99eAf+ascfI9pvoK0tFitWbKsYIh4rgqtXB/Hxx5/hypUBDAwMY2BgGBcuXMa//uunuHDBvHqiiL3mqIiHXjJPaqo8C7v1RMVTdHFzIlJSP6Onre14e/cO4ND+rM7kHQyO47PPOjEyYhZPcdeujeHixSsIBpO/RkklFJrAmTOXMDoawnoAfwpgJ4C/jcUKhZI/yk8lGBzHmTMdSesfHLyGCxeyj9XS0h57zK9jo/qfCARux/nzlzE+ru7JUhkbC8U+MbM/JhAYnfz0y6lgMITTpy8iHA6jCU14GA9jMRbj9wK/j67mocmiyomxsXFbIRbX3z+MtrZuRCLZxArh1KnziEqf/vX3B2JvoM4/JTCL9vPybPT3B3DunHz54dSiUbMIPXXqQtL8vr4A2tqcxwKiGBkJork5VtQ1AXgYQCNw9c5BXLhwWX5AStGo+VyJF4jfamjAFysr8bXqanwRHly86PRaMkA0GsXw8OhkgfjrHwI7vwb8019HsebGIbS3ZxcrEBhBa2sHKisrsXPnTjQ2NuLxxx/H+DjQ0dEjPySlaDSKwcFrkwXizm0P4rmd38QT9z+Iv9n573DpUq/8kJQiETNWvEC0zu/o6MGlS1dt85M89DL6F5zC7jZVg/12vL37KfN6l3vuQ/H1ni2fiLSaYUXVPjzwvHQpCgdcLgMTExNJb6AAcOVK6sZaFcNIxHrQMn8xgMZB1Ytgai6XgfHxcNK4otFo0rxMDCMea6ttfjT6eNaxXC7zKxrV4/r7M/9azMrlMhAKjSMaBRZjse0+30iJbTqTeCxZLtvL5TJ7XmRmLHluerrGJUSmWPLc9GyxLJs+ckMU1zzJXzmlIoR5fMW31xcrKyfvu8NfnlWOgJiM1bTJfs9jD4azylEI85Oj8fEJNDY22u5bvXpNluOKP4fMHLc2rp+cv6i2DqsabrIsmZ4QYnJcsomJMIaHk7+GtHnrScz5r38vzzVt2YTG4WwuN0VEhTTDiqrceDxu3HRTA0pKfPJdqKwsg9er/pWOitfrxtKl81Fc7JXvQvXcCng82cTy4Oab58Pns/96ye8vQUNDNTwe8yshJ7xeN5YtWwC3275+l8vA/PnVcLud72qv143lyxcqc/F43HC5sonlwYoVi+B2J+dSU1MBl0v9tYyKz+fBypU3wDDs66+oKMWCBTUwDOexvF4PVq26AUL6FacZq9o2LxOfz4PVq+0FIwBUVJRhwYIaeXZaRUVerFp1g22eEOZxmt24BIqLvVi5cpF8BwBg3rw58qy0Skp8WL58oTwbAFBfP1eelZIQQGlpEZYtS47l9rhQX18lz05JCAG/vxg337xAvgtFRT7U1WUfa+nS+fJdAIA5c/zyrJSEECgvL8GNNzbIdwEAqqsr5FnO1VahEnX8+o9omnL+7jiDeb0erF17o/KNd8GCGhQXJxdbqXi9Htxyy02YP78m6Q15yY0NKCpKLrZS8Xo9aGxcivnzq22FSmPjUqxduwRer/NYPp8X69bdjLlz7S/+fn8J1qy5EV6v+mfnKj6fF7fdtgx1dVVJOdbWViqLrVR8Pi82bFhuvolLNc+SJXVwuZKLrVR8Pi82blyBefMqbePatGklVq9enFRspVNU5MWmTStRU2N/g9u8eTVWr16SlHc6RUU+bN68yvZmKQSwZctqZbGVTkmJD5s2rUR1dfnkPMMwsHnzaqxcaS+20jGLl2Js3LgCc+cmYsXddJO6eFARQqCsrCQWK7m4SFVsqcQLjg0blsHvt39SWe4vURZIqQghUFFRhvXrb056Di9YUJOyQFIxDIHKSj/WrbsZc+aUyXejocF54WgYAlVVfqxbtxSVlcmxFi6slWdlp3opcMj8+m93WxUeTnehbiIqKOfvQjOYEMCNNzbg0UfvTvrrsbS0KKs3UCGApUvnY8eO30n6a7+srBhZhIIQwM03L8Bjj92DHTvuwfbtW/HHf/wVPPjgZpSXl2Yda/nyhbjvvo22+XPnlsPvL7bNy0QIYMWKRXjiifuwZs0S233ZfKqHWKyVK2/Azp3bMK/Wvr08WRR6iMVavXox/u2/fQCPPno3tm/fij/5k4ewbdvGpE/7MhECWLNmCZ588suTsb797Ydx//0bsvqEELFYa9cuwTe/aY91330bsvpUD7EC6tZbb8KTTz6IRx+9G9/4RhP+5E8ewj333JZ1LJfLwLp1S/Hkk19GrbTts/mEEAA8Hhduu+1m/NEffVm+K+txeb0erF+/DF/+8u22+ZWVZVnH8vk82LhxBdatu9k2f+HC2qxjFRd7cfvtK/CHf/i7WLK4znafkWWskpIibN68Cn/4hw+gtLTIdl+2297mSh8Geg9PtkCs8Jehe2CfvBQRTZHsXimmgRd3HcDonm1YgTI03Z/q1zHJDEOguroi6a/2bAqquHissjJ7sZJ9JDNWTU0lNmxYhrvuWouVK29AcbEvq4Iqzvxr2/6XsfzJnFOGIVBbOwfz52fzlZOaYQjMmzcn6ZOJXBiGQF1dFTZvXom77lqb8mtKJ+KxtmxZhbvuWhv7+jS7girOMAzU18+djHXzzQuzflOPc7kMNDSYse68cw2WLl1wHbFcmD+/GuXl17/t3W4X5s/P7uvMVDweN2pq7IVeLsc8YrHKy0tt83I97s3TOsxDbW2ibyxXPp8HN9xQB5/P+SfOAIAt38P55/bj+SVlQPU2+y+d3/0Ong/cGfvq7wB2gv1VRNNJbq/UU+jpvfFfvcRue78vL1Iwub1sq8WbW3Mp8vJJ53D0xtK3vfITS74ne3pjyXNyoyuObjrHJYS+gDmFefc7WPxX2yyvc/Yf57zww69Pi9c/Iko244oqIiIioumIRRURERGRBiyqiIiIiDT4/9Rk+EMfJyDcAAAAAElFTkSuQmCC;" parent="1" vertex="1">
          <mxGeometry x="1670" y="290" width="200.5" height="90" as="geometry" />
        </mxCell>
        <mxCell id="VDgp7xIS0GzNU363Rtex-12" value="" style="shape=image;verticalLabelPosition=bottom;labelBackgroundColor=default;verticalAlign=top;aspect=fixed;imageAspect=0;image=data:image/png,iVBORw0KGgoAAAANSUhEUgAAAJsAAADFCAYAAABD5YALAAAAAXNSR0IArs4c6QAAAARnQU1BAACxjwv8YQUAAAAJcEhZcwAADsMAAA7DAcdvqGQAAB9PSURBVHhe7Z3JjyRJlcY/d4/wLfYll1q6simyG1rNzAANg0YcRiAN4j4SHGghhMSNA3/CSHNpCURfaDggwWXEicMIgUDigIRAM2qEWqJphlbXVBW1Z2bsi0d4hC9zGDeTh6V5hG/hGZnlP6kOZZ4R4W72udmzZ8+eCa+99pqLnJwMENmCnJxtkYstJzNyseVkRi62nMzIxZaTGbnYcjIjF1tOZuRiy8mMXGw5mZGLLSczcrHlZEYutpzMEPKF+FUWiwUWiwWWyyUsy4JlWXAcB47jwHVduK4LQRAgCAJEUYQkSZAkCcViEcViEbIso1gssl+b8zyLbblcwjAMGIaB2WyG+XyO+XwO101eHaIoQlVVqKoKTdOg6zpKpRIkSWL/9LniuRGbZVkYjUYYj8eYTCaYz+fsn2wdTdNQqVRQqVRQrVYhis+XFXOlxWaaJgaDAYbDIcbjMXv5wqlWq6jX66jX68/F0HvlxOY4Dnq9Hnq93k4KLIharYZms4lms8leujJcGbEZhoFOp4NutwvHcdjLkSGGvyiKdEIgCAK9TiYLZPLgOA5s2175jjgUCgW0Wi3s7e1BURT28qXm0ottNBrh7OwMg8GAvRQKWZZRKBRQLBZRKBRQKBQSGfK2bdNZ7HK5pP/i0Gw2sb+/j1KpxF66lFxasY1GI5ycnGA0GrGX1iLLMhRFgaIokGWZvbwVXNfFYrGAaZrUtRKFRqOBg4ODSy+6Syc2wzDw9OnTSD0ZcUOoqroTM0DbtmGaJmazGUzTZC8H0mq1cO3atUs7vF4asTmOgydPnuDk5IS9xEWWZWiaBk3TdkJgQdi2jdlshtlsFnq4vX79Oq5du8YW7zyXQmy9Xg+PHz8ONfzoug5d1zMbItPENE3qZN6Epmm4ceMGarUae2ln2WmxWZaFR48eodvtspfOUS6Xr4yX3rIsTCYTGIbBXjrH/v4+XnjhBbZ4J9lZsQ0GAzx8+HBjb1YqlVAul6+EyFjCik7TNNy6dQvlcpm9tFPspNiePHmCp0+fssUrqKqKSqXyXHjeF4sFxuPxxsnEzZs3cXBwwBbvDDslNtu2cf/+/bUzzUKhgEqlAk3T2EtXHsMwMBqN1jqt2+02jo6O2OKdYGfEZhgG7t+/v9Y4LpVKqFarK578tCEOWdu2Ydv2ufAiAhtmJIpiKk7hTTiOg+FwuLaeyuUyPvShD+3cJGknxDYajXD37t3A5R5JklCr1aCqKnspEY7jUCcriWFLK8TIH9+mKErqL4hhGBgOh4H3qygKbt++DV3X2UsXxoWLrdfr4d69e2wxRVVV1Ov11HxllmXR2LWgyYcgCLSHEkVxZX2U4F8bJb2gbdtrG584ltPq+SzLwmAwCHwOSZJw+/ZtVKtV9tKFcKFi63a7uH//PltMKZfLqVSU67rUf8U2jCAIkGWZRtgWi8VEYiDDsL/HZFEUhQZVpsFgMFg7Yz0+Pt4Jf9yFiW2T0Or1euLGsCwL0+kUhmGs9DiFQgGqqtI10m3iui5M04RpmpjP5yumgiiKKJVK0HU9kcABYDKZrF0n3gXBXYjY1g2dgiCg2WwmEgHPPyUIAnRdh6ZpF2o4kzVRtidKw184m83Q7/fZYspLL72UykgRl8zFNhwOcefOHbYY8GyMRqMRWwyO42A8HmM6ndKyQqFAe4+0jfQkOI4DwzAwnU5XertKpYJyuRz7XufzOfr9Ptd2lCQJL7/8cuIRIy6Zis0wDLz//vtcP5EkSWg2m7GdtNPpFOPxmH53sVikItt1ptMpJpMJFZ0kSahWq7F9iaZpotfrcQWnKApefvnl2C90EtKZ4oXAsizcu3cvdaFZloVut4vhcAjHcSCKImq1Gvb29i6F0OANoQcHB9SHaNs2+v0++v1+oDtoHYqiBIaXm6a51lbeJtL169f/jS3cBnfv3l0Z3gjERovzpk2nU/R6PdogpVIpsb13kciyDF3X4TgOndXOZjNI3r7UKJDoY57zl/gU6/U6e2mrZNKzPX78GMPhkC0GvNDnOEIju6bgi9uv1Wqp+eMuCmK3NhoNiKIIx3HQ7/fXzjSDID5KHp1OB6enp2zxVtl6y/T7fTx79owtBjz3RtReyLIsdDodOpvTdf1Kbg7RNA37+/t01WQymaDX63HNkHXouh44A3348CEmkwlbvDW2KrblcomHDx+yxYDnsI1qUy0WC3S7XeoordVqqNfrsWduu44oimg2m6hUKoA30+x2u7Asi/3Ttayr6wcPHrBFW2OrYnv06BE31FlV1cC3LQhS0bZtQxRFtFqtS78BJCyVSgWNRgPwXmD/CxeWoI3Qs9kssENIm62JrdvtotfrscWQJCnQjghiPp/TqTyxz67asLkJTdPQarUgiiJs20av14slOB6np6exbMKobMXPZts23nvvPW6v1mw2I0VvmKZJw8KLxSKazWYiL/smHMehez3JjJANM2LDi8hssVAoQJblrQ7ry+WSzsBJD8/rsYKYTqfcyZqu63jllVfY4lTZitgePnzInemUSqVI63PERnNdd6tCWy6XmM/ndF9nUmRZphEehUKBvZwYv+AkSUK73Y5UL71ej5tY58aNGzg8PGSLUyN1sU2nU/z1r39liyFJEvb390O/9bZto9PpwLZtOnRGqdBNkEgQwzC4PbA/AkRi0jCw4UWkB+R9D/GdBRnocVkul+h0OnBdF7Iso9VqRarb09PTcysMgiDgYx/7WCxXVBhSF9udO3e43XSj0Yi0/NLtdmGaJgRBQLvdjjRUrMNxHEwmE0yn05XKLhaLUFWVBjvGwfXtfJ/P5yuzRhLhkWTdk8VvYmiaRicRYQiKEtnb28OtW7fY4lRIdQVhOBxyN6pEnX36w57TXBEYj8fo9/t0qCQCqNVqqFQqUBQl0bAneEGXiqKgVCrR+yYRwIvFAoZhQPBi6JJCAjz9wg5bV7IsYz6fn/PbGYaBRqOR2svtJ1WxPXjwgGvzNBqN0EPgbDajb1y1Wk1l+CGzWWKnSJJE3QlpRs6ySJIEVVVRKpUgCAIVHYlvS2O/QrFYpJOaxWIB2UuUEwZJkrjLWbZtR+olw5Ka6yMo4V6pVAr9lti2TYdgTdNS2Qc5Go3Q6/Xom1+pVHBwcJDqcLYJURTp7xLf4GKxQKfTScWDX6vVaE+5bl8CC5nEsPR6Pa4Ik5Ka2M7OztgiwPNeh4VsUyORG0mwbRvdbpc2pqIo2N/fp974i4A8V7vdpuIYjUaB8WdRIPVleelcwxLUPjxvQlJSERvZ6cNSipAOgSRXgVdxSRbUSa9BNvVWKhW0Wq3Qw8u2kWUZ7XabNvRsNkOn04m8DOWnWCxSu3g6nW7c0EwgbhqWTqfDnV0nIX6L+uh0OmwR4IktLGQIJpmH4kJmaLZt0/Cli+zN1kFy6sK3DJWkgcvlMu0xeSZNEEHtFNSucUksNsdxuIlfNE0L3ZOMx+MVmyoui8WCLmsRZyfvrd0ldF2nPjKyDJWkhyO9G5n5hkEJSIzIa9ckJBZbUNhL2Fkk8XvBezPDCpTFsqxz66dhJyYXjaIo59Y9eXUaBuJEhudLCwuvvUzT5JpHcUlFbCzFYjG0v4c4VwVBiN2rua6Lfr8Px3EgeSHmcUV7UciyTN0NlmWt3SW1CWILWt5WxjDous61k5PcB8v5b4/AwsuuwxLW5nJdl1ZGElfEYDCgtk6j0bh0QiMoikIFZ5pmpFmln0KhQHuqsGJDQLulMVMmJBJbULYh3k3zMAwDjuNAEIRAI3UT0+mUzmLr9TrX9rhMaN4pMPCGwbj+LlKflrePIQy8dnO8RDZpkEhsvJtQFCW0u8Mf2s3rwjdhWRa9h20sdl8UlUqFTmxGo1GsnoWs9cJXz5sIWn3gtXMcorewh+M43G4+rK1mmiYd+uKKhAzhkpfl6CpRq9XoDJVXz2Eg9WqaZugZLq/9LlxsQRUQ1tVAunY55pGJ8/mcfse2c7ZdBGT9Fp6pEMf/5l/3DTuU8tpv6Z1gmJTYYuNNqwteMrwwkEVxnp0QBv8yVNzv2HXK5TJ9EXn1HQZSN7xgSR5KQC65uL/vJ1WxhTXOTdOkfiTem7SJuS+3Wlx3yWXBv6QVt3eD1zuFHUp57chr76jEEpvfZeGHd5M8yLqdLMuhJxN+SJce5Pm+SmiaRnu3OEOZv46jrJey8No7KrHEFvTQvJvkQR6aZ4xuwvIyR2LNmt5Vgxj6BpNnLiyknpOIbeGlbEhCLLHxjE3RS2C8CRLoh4CH2gT5bRKYuG1s24ZhGBgMBuh2u/SYyeFwSP2E24aIzXVdbt1vIqrYgiZscX7bT2piCyM0eG8IIY7Ykk4swmJ5+WpPTk5oGlHT231lmiam0ykGgwGePXuG4XAIO0a2obAIghDZ0PdD6tl13VC9E9miyMJr9yjEEhvvDQl6G1jIwxaLRe6sZx22bdPPb7NXm06nOD09hWEY2N/fx1e/+lV873vfwy9+8Qv85je/wc9+9jO8+eab+PKXv4xKpYLpdIpOp5O4MdZBnjeO2CRvdxh89b8JXnvG+W0/sfYgPH369NzMRguZPtQwDFiWFRiSvI65l+U7jUjeIEajEXUWf/Ob38S3v/1tfOYzn8HNmzdRLpehKAoqlQqOjo7w2c9+Fl/5yldg2zbeeecdzOfz1DazsEiSRGeEQZ7+dZimSbdFhrGVeTYaiaaJS6yejbepJezDE5GG/Xs/5He30ZjwpveTyQT1eh0//OEP8bWvfY39k3MUi0UqSlEUMRqNttLDid7ZCgio/02Q+mY7iSB47cMb0aIQWWyWl46AhTfG80giNv8QnDbL5ZKuinznO9/BJz7xCfZP1vK5z30Ob7zxBuD1jtuw4chzsz1OGKKKjdeecX7XTyyx8QizkO54+TIQ8DCbIL+9DbGRIepb3/oWPv7xj7OXQ/H5z38er7/+OmzbTsUJykKeO6gN1kHqO+xLwGtPx8t5Epfz37iBoAfl3RyL/0bD/L0f23d6SpxecR2WF4Zz48YNvP766+zlSHzjG9+AoiixfWLrIM8dVjB+iNhc5gyuIILaJ6j9w8D/xjXwlC0wR+0EkURsST67CWKLfPGLX2QvRaZUKuELX/gCXNdNPHtjIc/tenlGouBvnzCfDarjOEIn8L9xDbwbDSM0eJWECOL0Q35X8FJVpQkxuD/96U+zl2LxqU99CkjBxmHxPzevHdbh/2yYni2ofcJ8NojIrZbkx/xii0qSz26CvK0vvvgieykW5LzPJL0Aj6iC8eOvt6if9RNV5H4yFduuQp4pqt8vCPI9V7GukhBZbGn0LEkaIclngyA9Rlo7icjejLSH+yTPnuSzfpK0f+Ta4P1Y2Achnw379378xnHakFne+++/z16KBfmetGfN/mePKmT/Z3ltyBJUz2E+G0S0Ow54yKAbY0licyQxjjdBViR+97vfsZdi8fvf/x7YwkqH3wbktcM60hJb1N/1E/mTQc7YMAKIOv3243/IJL4eHqqqQhRF/PznPw88ICQs7777Lt5+++2tBHYSsYni/6dcjUJU11FQ+wS1fxg2/ypD0NAQdHN+/DcadaYmesdnYwtiE3z7Vt966y32ciR+8IMfAClONvyQ547T4FGFGtSeQe0fhshiC1oqCro5P34fWVSxIeHa4CZImtNf/vKX+PGPf8xeDsV3v/tdvP3221C9bJNpk2S5jtR3WKHy2rNQKIQSahCRxSYGROSGFU/UBWE/2xQbPMEJgoC33noL3//+99nLa3njjTfwk5/8BEVfnrS0Ic7nOGKLGgDBa8+kZkFksSHgR8OKhzxsHMGQ310sFoEGbBJkWaZnLfzoRz/C17/+dfz2t79l/2yFX/3qV/jSl76En/70p5BlGfV6PXSDRsGyLCoAXv1vIqrYeO0Z53f9xEpNf/fu3XM+KS1kanRywogkSTg4OGAvr8V1XZqNPGqq+yhYXqpQsrZ5/fp1fPKTn8TR0RF0XcdkMsG9e/fwhz/8YSU1fNKMmeuYeKnk49QbvIBX13VDn7DT6XTOxc0dHBzg5s2bK2VRiCW2J0+enEtBXywWsbe3t1LGg6QghXfzYW0IAsn6HVbcSZjP5zAMY+2CuqZp0HU9VPRrEkjjRz0lBzHr/NmzZ+fstqOjI7Tb7ZWyKMR6DXk9ytJLu74J2Xe2E/vmhIG8lbPZ7FxlpI2qqmg2mzg8PESr1UK9XqfHTrbbbVy7dg2NRmPrQlt6aecRc5ZLPlsImQrfCgiQ5bV7FFITGyLYYWTsjxNmrGkaFWvQ/tW0EUURiqJA13WUSiXour7y0mwb8pyFkPsHWKKG0we1Y1C7hyWW2NSAA8DC9lRR9zH6EQRhZdPuVcdxHPqccbI9ub64urBC5bVj3LRmfmJ/mudH4t0kDzIU2LYd+jN+/Inu0kgLsMv408Dy6nwTfnszidji/DZLbLHxDmsI21MVCgXqK1pnfAdR8KXx3Eas/65g2zbdVhg3DSypX7IktwnHl7HAD6+9o7L51wPgZQ9yvXOZwkDG/7jb3sjv2wmS5e06/mSHcRrbcRxav2EnFkEvP6+9oxJbbKWAM6miis227ViCk3zJ8iaTCbfrv8zMZjNqq5GVjaiQehV86Rs2wWs/Xde5bR2V2GKD74AHP0FvBovkSwwT19CvVCq0EtJKxbkLOL4UsqqqxpoYgMlZHEas/smEn6h+vSASiY13wL1lWaF7GX/O17CfYSEVsVwuA7OXXzYGgwFs7zikuA09n8+p7RVWrPP5nOsrjXsPLInFxjM6ww6LqndyMRIkm5NlmVaGYRiXfsIwHA5p71Kv10M5YXmQelBVNfQQyGu3NCNYzislIrwloygbdMmDzGaz2L1bqVSi3zMajWIL96IZj8f03iuVSmg7i2XuSwMbVii2bXOHUF77xiWx2JrNJlsEN0LSOn/2oyS9Uq1WozbgcDi8dIIbj8d09lkqlRLN/sj3qKoa2rcWZDfz2jcuicVWrVa50+oojU2m9XNfuvk4+M+THw6HicSbJf40XbquJ7KR/GnsowiW115BbRuXxGIDwI0EWC6X3G6Zh+rL1cY7CysKrVaLftdoNNrpWarrHfBGXgpd17mTrrD4fY5Brike0+mUu/CeJBcbj9TExpta896WIIgbhcSSJaHZbNIZGMkKyfOKXySmaeLs7Iz25OVyOZHQ4Dt6SPTOpA8Lr50URUl1CEVaYpMkiRvLZppm6N6tUChQwU0mk9CfC6Jer68c9Hp2drYzw+poNEK326XRsP57jYthGFS41WqV6yXgQTKBsvDaMynh7igE+/v7bBEQ0egnaUTh2Vy8rj0K5XJ55ZDb0Wi00ptkjWEYODk5oXUiyzL29vZC+8GCsHwHxpFgzrDw2qdQKAS2ZxJSE5uiKNy3YRHh+GgwB4Sl4aQl90UmIcvlEv1+f+sJl/0YhoGzszPqrIXX+7Tb7dB21ToGgwFc76jyKJOLyWTC7dUODg64ZlFSYiVwDkLTNJyenrLFWC6XoReSye6t+XwOy7Lgum7o6fs6FEWBqqpwXZduHpl7Yd+O40AMSMcel8VigclkgsFgsBJVrOt66H0AYRgMBtTkaDabocVr2/a5fSTwwvtv3769+2KTJAmu657rml0v22FY0ZAKWywWWCwWEEUxdJTpOiRJgqZpUBSFis51Xdr7zmYzWiZEzAO3XC7p+QjEz+cPlS+VSmg0GqkEIRL8DuxarRbJCTwajbiTphs3boTuGKISa8PLOhzHwZ///Gfug7Tb7Uii6ff7dKir1+uRbJEwkIiTWcAhZIIgQJIkSN45AoKXxJC8PI7jwLZt7lAEzybTNA2apqUmMALZbQXPNo0ywZjP5+j1emwxdF3HK6+8whanRupig7cT6G9/+xtbDFmWuT65dXS7XRr2su3te6Zp0qCAOJMTSZIgyzJkWYbqO+szbUjviQhbKAmu6+L09JS7Cfn4+DiSzReVrYgNAD744AOuvyzqW+i6LrrdLl3r20YPx4P0WLZtw7ZtOL5M5/ClkiA9X7FYTL334uHv0VRv91cUyNFILK1WK7XMm0FsTWyz2Qx/+ctf2GLAM2SjGMis4KrV6tbsil1mNBqtRHNEFZrhHfjGUigU8Oqrr3I3MaXJ1l5FTdMCd0/7XQBhEAThUi1DbYPBYLCyrBVVaIvFgis0AHjhhRe2LjRsU2zw/DU8G8BxnMAHD0IQhHPLUL1eL5JoLyOWZaHT6dChL86y1rr6brfbkYUbl62KDQBu3brFfWtM0wysgHXU63W67jefz3F2dpZ4aWtXIc5gYj7UarVI9i5hMBhwZ8yapuHWrVts8dbYuthkWaap2lkMw4gV5VGpVNBsNiGKIhzHQa/Xw3A4XDHgLzPE4UpWBgreaXhhAyH9+J2+LEdHR1tx3gaRqlM3CFVVIQgCV1iLxQJCjGMTC4UCNE2js8blconZbAbRd3rdZYSYB/79A81mkzs6bGJd1PLR0VHk4TgpmYgNXm+0XC65027TNGOtEoiiSB2mxDdGQqIlSYrVQBfFfD5Hv9+n9SNJEjUZ4vQ+4/H43EoO4fDwEIeHh2zx1slMbPDsrel0yt2bGFdw8IZqXdfhesdSk5WB5XJJ11p3lfl8TqOKiSO5VCpFWudk8YeYs7RarUztND9b87MFYds2Pvjgg8DuPakPzTRNTCaTFUETMWbhDA6D67owDAOGYawsk6mqurIXNg5+XxxLrVbD8fExW5wZmYsNnp12586dwBCfqKsMPObz+blelAy7/k02WWKaJl2L9U9mVFVFuVxOfE9BqwPwzJiXXnop1pCcFhciNngVf+fOncCZkqZpqNfriSuHRHSwjSBJEhRFgeKdV7CNdUzbtul6q2maK+utgpf6S08htYHjOOj3+1zzBN7Le3x8vJVnjMKFiQ0herhisYh6vZ64MeBLsjIL2J9KMisVi0UUvAyNJNpjE/7oDzIzJrYji6IotHdN+iLB56/k/Ra8Hu34+DjUc2ybCxUbvDiwu3fvBtoZgpeCIE17y/YCJ8NEeJAFdxJeRPCHGa3z74le1koSvJlmo/sX5XnU63V8+MMfZosvjAsXG7yGu3fvHjdylKB7+ynT6A1Yll7O2uVySXundQIMgsx8SQ9J/qWNbdsraRp4tNvtQGf6RbETYiM8evQIJycnbDFF8mLso0SMxMVxHDo8kt6LF2Ik+AIst/EisBiGgdFotPZluH79Oq5du8YWXzg7JTYAODs7w4MHD9jiFTRNQ7VavXCDN0uWyyXG4/Ha3kwURbz44ouRgimzZOfEBs8WefDgQeDEgVCpVCJtxr2MOI6DyWQSaNMSyuUyjo6OMun147KTYoNnxz148IAeFhGE5KUAjbNIvcu4rovpdLqyshDE4eEhbty4wRbvHDsrNkK/38ejR4+47go/kiTR1FlZ2E7bwnEcTKfTwPwbfkiAalIHeFbsvNjgzb4eP36Ms7Mz9tI5BC+Fu67rO70myhLkfA7isvRmfi6F2Ajj8RhPnz4NXGRmIQ7UtP1baUH8fUGOZh71eh3Xrl1L1e+YFZdKbIRut4tnz56tnZmxqF5ivG1usQuDZVnUoRy0vMSjVCrh8PAw8xi0NLmUYiOcnZ3h9PQ0kujgOwOqWCxCluWtDrdk6WqxWMA0zcBlpSB0XcfBwUFm+wS2yaUWG6Hb7eLs7CwwbGkTgiDQNVF2XZT8C4I4f/3ro7Zt09WIdUtZ66hWq9jb27vUPRnLlRAbYTweo9vt0gNn08S/NkoEFFdIQYiiiFarFXu/wa5zpcRGsG0bvV4P/X4/9GTiIqnVamg0Gmg2m5fabbOJKyk2P4vFAsPhEMPhkKYBvWgkSUK1WkWtVkOtVtuqzbhLXHmxsZCNIJPJBEZAis+0KRaL1OFcLpcThb1fZp47sbGYpon33nuP9niStytrsVhE6gVFbwvhPy4W+Ijr4mUAbVnGmx/5SOJw76vCcy82AHjnnXfo0lCpVMJHP/pRwJfJiMw2SZgRmSyIvixGxHf3qz/9CW1vE8vfVBX/+uqrvl96vgme0+dA8vYpaJpGh8BKpUIX/snGmYt0El8mcrHlZEYutpzMyMWWkxm52HIyIxdbTmbkYsvJjFxsOZmRiy0nM3Kx5WRGLraczMjFlpMZudhyMiMXW05m5GLLyYxcbDmZkYstJzNyseVkRi62nMzIxZaTGbnYGKLsqApipEn472Md//NivqvKTy42L6keIWriF5b/ODjAj/65gf8+1vHXF2UcFKMlvbnK5GLzjl0kJO3Zfn1z9eTo22q8ZDdXkVxsDGGT8uVEJxdbTmbkYsvJjFxsOZmRiy0nM3Kx5WRGLraczMjFlpMZudhyMiMXW05m5GJLmbK0/Ry9l5VcbClTYsR2ulRW/v88k4stZQ6Kq+dRnSx397DZrMnFliIfVifnQoom9vNxxkEYcrGlxEFxjn+qrB5j9L/z5/O8gyBysSWkLFn4+9IA/1I/WSmf2AX817i1Uva8I/z7vxwmixa8AiwWq3aWLIcz6tfNPH89OMjtNQbhzS+2n3uxpc1/jVv5EMohH0ZT5GSp4j97N3KhBZCLLSETu4A/GTX8yajh14ODfPa5BuGf//Efnvth9N13/7zy/7/7u4+t/D+IXFjRyA9KA/DHP/5x5f+vvfbayv9z0iEfRnMyIxdbTmbkYsvJjFxsOZmRiy0nM3Kx5WRGLraczMjFlpMZudhyMiMXW05m5GLLyYxcbDmZ8X8tGpVBCgW4VgAAAABJRU5ErkJggg==;" parent="1" vertex="1">
          <mxGeometry x="1557.5" y="280.99" width="85" height="108.03" as="geometry" />
        </mxCell>
        <mxCell id="VDgp7xIS0GzNU363Rtex-13" value="" style="shape=image;verticalLabelPosition=bottom;labelBackgroundColor=default;verticalAlign=top;aspect=fixed;imageAspect=0;image=data:image/png,iVBORw0KGgoAAAANSUhEUgAAALoAAADECAYAAAAoJjtAAAAAAXNSR0IArs4c6QAAAARnQU1BAACxjwv8YQUAAAAJcEhZcwAADsMAAA7DAcdvqGQAACOfSURBVHhe7Z1LjCTJed//8cjMqurHds9Mz8w+Obtcr7UwLHC9kImFQRMydLBALniiCEIUBEiCCQE6iAfCtkD4BR8s+EIYhg3BkkHBB8MwbB9okoJIWBBgYL16eG6iQJogtVzuzmxPT892dVdVVsbDh8zIycqKyPdMZ03lDwjsTnZ1f1mZ//zii/i+iCSvv/66RgqBBn34z4GBDYRAAcjIGgDJCl2SA1zQ11Y+MDCwaeyo22D6wcqxwX0PbAWX6tE/86mP4WM//Xz+8MAW8W9/53/h5P5F/nArbB790oX+67/2yfzhgS3iF3/1dx+L0IfQZWArGIT+iNBKQQoJsYwQhUtEixDL2QLL2QLhxXytLWcLRPMQ0WIJsYwgIwElFbRenT0YaMYg9LZoDZUIejkPEZ7PMT+7wPzsAuH5bE3ARsT5ln8gwos5FtMLLM4usDB/J1xCCgGtBvHXpZdC1z1vUipEYYRwtsD8fJYKUaRCVPmv1BideZCi5EFanF8gvJgjWiwhhYTW6+fYx3aZ9HIwerFUl35h1lAKREpAyfi/fYJSaMYAyuL/9pCAE3iU5A9v+WB0/XpcDlqDCAEShqDhAiRa9k/kSB7CKAIJF6CLBUgUAR32Kk8C/RT6ZbvzRDg0XIAsQxApgA4GhYQQEErjxpJm/k1INw+4kiDRMnPuPXwwL4F+Cr2LG94EpR6KJFo28oqEUhDOwHwffDSCNxnD35nA392BtzOBNxnHbZw08++dCfydHfjJZ4jvgQU+mOeBMFb/mqS90SB49Fboj5sVgUe1vDdhiajHI/i7O6C+B8o5mO+BcgZCKUBqqDTx+owxaAAs8OGNR/B3duBNxuCBD8p5rb85CH7bha51HKIsw1oCp5yDj4LY+45HsagZg1YKSikwzvO/UhuaDCpVRpiEUlDPS23z8Sj2+BVFT4SIxb5s1lttMv0UejW9tYLI5KZXDFEeeu4xqO8BlEJpDZWIWykFIQRYh7MejDFIKVdsZBsIAfE42HgENgpAqjxgWoOI5OEW1R/uTaefQq/moJqh4zCFLCvOoHAG4nkgnEETQCkJJe1Nq26nRQkhUEpBCrFmK9+01tDQcVzvV/DySsXXoOp12HD6KfQu1ZKBSBnf2AphCvM8EN8DoRRe4IN7XmmjnENGUf5PlbI3meDpa1dxdHiAo8MD7E0mGAc+oigCpRSeX80+4xxSSjDfh7czAQv8UsETKeIHX9Q/702in0IvvjeNIFFUaTBGPQ5vMgHxOJSU4FXCgQSeDBKlEPkfFTKdzfD+vROcnk0BAEeHB9jf2QG0xgtP31wRfxEssS+Sh415Xix43y8evKbePawUxm0i/RR6lyj1MBYv8OKUMXjjEXgQgFACGUVgnMezJjXgnMdCL7DlQkiJ49MHeOfOXbz/wTGe2tvFeDTC3mSCo8MDPH3tGl64eSMVvg3ueZBJKGNgvgd/Mgb1ih9aIhLvXuIMNpF6d3HTSJInpMTD8iCeHiTJQNIIhXte/qOlUMZAMl61CWEYQgiBpVSplzdwxlLhG9FnPT2lFJTSdfuEgAdB/D0LHl4iq12zTcP9jTccIgVoyUCLcgZvZwKaE7Tx5k3hvp8OTpsghQDjHEJKnE6neOfOXQjL9zCiN57+cG8PAOB5XjzVafkdyhi8yRjML3iIk7wCyT8sG8wTKfS4Cy6u92BBnLnMD9ZEFAGEtBI6IQSUsXWvWgGbfSEl3ju+t+bds3DGcLi/Fwt+fz+2X+CVTZKLWAqtAJNjWMYh3xNAP4VeP7xNMXGmS+SEkjTRkkdrHQ9ALT+rC/d9aK0hLV7VRVySK6z2y7y7wQj+peefAyOkUOzxuGQMyt1z/ySKngix91PoDidTRipyx0CQMgY+GoFSGn8m10QUxdnHghi2Dul0o8WWrYkoAmGs0H4V745E8EdXr4IohcDja7bSBoAHQWEo8ySI3X1FN4wykYMzKAJEyyWWYWhtWqlOM5ucc2itEVps2ZquWD5gvHuZ2A/296C0xvT8ovB7L8MQUingCfbsT4TQiZSF6WzmefBHo9JGKK09B16E6SECiy1bo5TWSjiZUMbFyekDcMbwUy+9iL/+0ot4+dZH8NRT+2t2U/uMgRRMQcZir35+fWLzhZ5MIbpicpaUu1bBS+Jq1YHYTXxeK+HUwL6Q0hm3n374Ia4eHqT/5ozh6PAwnZ3Jwz0PWmtQ3329iIg2cupxs4Wu4wUSLpETj8dZwRqwktmKqogkfW+qEKvSxL6J27Nif+/uB/A4x8H+/spnzWD1KPMAZGGcQykJPhrlfxSTVHwWTdv2kX4K3R6BrFF0wQln8IIgf7gU5nkrafQmmDl02+xJGU3tZ8W+WC4xvbjA9WvX8h9L2ZtM8MLNG+C5B5FxnhSTSfCR4/ppBRQ4mD7ST6FXmHUhUUEXylm1klUHPCmOcsX8ZUgh0gxpEziP62zqYsR+9/gednd2MHYJNYEzhmeOrq2L3fMglQJhDNwR9hFVPC7qG/0Uegnp4NMCZSxOd7cQOk2m+KKaXhWJyJuWDxgoi1cmRcv6sxzhcon5YoHrV6/kf2TFJva0jGC5BPU859QjEcLtbHrG5gk9WThg8ySEECiSVBG2hJs0es3u2aTv28I97+ECixrIKALlHO/fO7EOUG3YxO4lA1NT9ksd34kId/jYJzZO6EREgOvCenG1Yd0BoI0maXwRRSAtywcMhBCwmtONMikf4EmdzHvH9/IfcWLEnpJ8f2OfjwJ7MZjWgMPx9AnLmfcXIgu6Ss6glOrEmxu45wFaI1wssKzQVEfe3GCmG/N2XE1KuZLwEknZb1Xi6cfMdGQSfpm/rx11MXEo6bgvPaGfQrc5B60BR5035Qzcj1fT1KktKcMkjzzfB6/QQGmjQaQLYz9vx9XM0rss09msNIOaZW8ySefZzXfhnpfacOUk+h7C9FPoFsdBhHBeSOYHoJTGiw6SwWAXmHjbDM7Kmuf7cS274zzrUtt+EFjLc0+nU0xns5VjReztxKuZRBSBMZYOzimlYF6848EaWgOyv169n0LP61SpeLcsCyzw01JTSuP4vE5c7cJWLluGic/rJnxsNLGPgoTT6dm01uCUJt7GVuXp9uoFoeUl00+h5zw6kcKanKCMrd2IokUHVWlTrmvS6G1CqDb2WTKuyIu9zuBUKYWz6RT7jlIBQqk749zR9n1d00+hZ1HK6SWs87tmtsTxO1VoW67bdDcAQ1v7zPOs9TJCykrx+vvHxwh8H9evXllLJhlYskNCHiJ7uNvwJgjdtcEn9Xi6xjOPmS1pInaVbBjkNfCmBrMbQJMQqgv7LMnK2hJep9Mp5mGYP5wyXyxwcTHD9WtX12Zh8lgdTcE9u0z6KXRzjYq8eYkQXF6tjHS3rYbpe4NJ49cdGHdm3/PShyZP0ZTjByf3sbe7g1FSJzQOAuc2G5Q7nE0PvXo/hZ7cYyLt9SbMs3ebWYq8mguzGqhJbJzHpPHrePUu7RNKnQkn1/z6g7MzRFGEm0dHK8ePDg9X/p3F6XAckweXRbFaLgudpPodF6tsfxID8zxoIbAMQ0QVmhCi84STUury7JuEk8XW6YMH+OGP38Vf/eS9tN05voeD/f21YjTOWIFXZyBsXUZ9i9XXz7APkMSbW7pdWmNTIa11PEVnmXO2NUIIlKUHaYpWCsRMe1Zoj8I+tE4HtjZbk/EobZwzRI5iuWZefRB6OY6LxCp6c2QKnJjnVWo82eXKFi41wZTrcostWzNxdVf2RRSBcA7PYoslLxgYjUY4unIFR1eu4NkbNzA9v0BoqZos9upxDXse17TwZdBPoSsFotaFHr8OxTL4sZAtcKpKm/LcPKJBuW5antuBfbPbWNnsTXa6cTwaYWdngrv3TlY+YzhwzKvDFU5qbb2Pl0E/hS7sXo3x4puW0mC9poF7HrRjtqIOSgiwEpHZKJotqYPpzcrID0yfPjpCGIb4cHq+8jlUmIGxItt9j67opdBdXqBoo50skUm4VPT+WQghoJzXmi3Jk5brNrTPWiac6vZm8zBMywMopTh4ah8np6f5jwEARr591ZLrehNlH2s9bnondCUVYBE65dXmllWS/q8TMuQxCacmW180Wf2fJy0jaGAfSdhSx34+Y3p0JV6ddHz/fuZTMXs79l184fLqPQlfeih0uV7UBYAyy0W0YDYItQ2O6sDM9s81EctlPKth8W51aGo/Wi6d3rWIeRiuZEyvHR7iwdnZWghVNCglrh538OjrKGF/+p0XMUMX6zUNrEEa32RCywaAVWhk3/RmNs9agpAS57N5+u/9vV0Eno87x8crn0NB+KK1tj7gJJnmvEz6J3TLtCJh8YIGKURhE12v8EmmG2UUrdmyNVO/XSXEqgJPvHpl+8tl3JtVzDPkycbqAHDj2jVML2a4e+8Epw8+TNtyuVyzbezDtgpJKehLHpQ2uyKPCCVlHKPnIST5WXGLP2q50A0hhKQzOHlbtqaT5ExXkOQdpVXto+X3z8fqQRKiTM/P8eB8mraL+XzNtvn+1PH9m+4V3xX2s7okrCJPMm9eEJQ2xhhkg7jWhUx22/JHozVbttbVoguDjCJQQmrZb/v9s3H6+x8cY+T7ePnWR/Dic8+l7aXnn8N4MlmznybcLHS16qopGyF0l5fI03a2IovZ6oK7FhhYMGODOnG1Cy0lZE37ZhAuLJnNqggpMZ3NsFwucXZ+7twfxrOMmYx920B48OgZbHGc6b6r0oVXQyJWUxNSh6a7bOUx5bpN7EulapcHZzk9m+LOvXvYnUwwHo/zPwYKBqScc2jLKWupLlXsvRJ6fioLRug16MKrSTN7U8ObGtI0fhf2G8zeEMbAkl22mrJcLrEIQzx943r+R6WQgsG4Us0fvrbUU9EjRCv7E19X6OjAq8mWszeM80a7bBla209CuKY9ixACgR+AOgQLACPHXDqS62/Ddn8fF/VV9IjQjqfdrPCvg3k9ShOvlqbvHTerCjRJ2DSJ1buwb+LkpvZhPHNDXM5pEHqSbLBBSLNTNAPTOl7NfL6NyAxegzKCLu2nA+Ma9pFM8fJkS7uitaWFEGIdW7ic2eOgmYoeAc6nvYFHR86raa0rNdEwfe7CDIzzdlytc/vJutm8HVeLwnDFfjZTWhub0B3O7HHQH6E7LoLNM1TFFGctF4u1l1PZmta6UcWhC5a8rKuW/Q68uYExVt9+Juwo8uhlmyHZ7tsT49G5fgCKRf5wJaw6t1ysOogoAihFMB4jGI1KG6HUmfBoghAChJB69muGGkXImvYpYyvfv234sob1JlenqbbQhdAD9SPsyrewL/8IE3Ubu/ItTNRtjNV3652Y5SJYLlVldIPdrjzfb73LV0ry0q06iy+62GUsS93ZmzThlrG/COsP6OHy6Lay1AK4foCx+m6qr135VqqvWtpqI3SKBSbqNgL9wzWjXD+Ap+9gIm+D6/VtFexYLoLlYlVFNNztyrV3YV2iJosvOthlzCCSxRd1hA6s7zK2WNo9etkDYEsa2W6xi7H6LibqNjx9Z0VfFAtw/QC78i0E6kdr2nNRTwUJFAvsyrdKRWwehionY3HojVGy+W5XLInr24jNeOUmCac2iz4MuuBV62Vwk3BLxB45yqaL0FpbJxdc47A8RuBlBPqH8FT559BU6FX/uGEiq4m9K9rudmVmK5piynVt3XcVWLL9dVNEVP6q9SJYZpcxV5xuO2YwvUkTuH5Q6kCz2CIKG7WvBMUCgf5h/nAhFIvaD0dTutjtKt3lq0HCqU35gKHJLmMGlbz6sUlvZjBlDMar28IU16yLsW/NqtqO5Zio2/lDpYzUd/OH1qgt9KaCZbAvtjXYvV+1ri5L3fWSLnjD1fh1B4Au0jnwmvZFspdMFVEVwc3LwqRcE3XRSwVS+5ZbV3ZGVTyzjSqzfbWF3pTS7shyFbR++HqTKojlMk4UdSA0Qmlc317DqxoP2IXQm5QRdNGbGcxAWgoBkdsa0ObhkbNvnWEpefhYmUZaUFvoZZ65KVaPngzK8okNa1ss4vR5BzfZkO5dWDHhIhsOAF14Ne13vndjMt344Ydn+ME7P07byenpmu1lsgwvtW8ZeFrvcUdQ3bFH13C8I74EVfZ7jotAKQXnvLx58avFu5qDRhIGIbnha/YsjVyyfUopZM1QpwjzXRjnuHpwgKMrh9jd2Vmzm9onJLVvm2EpE3pTbQGAIO593NFE6IK4N5ssIiJP5w+t4LoI1LwsqkLjXe+dmOx2lbfjaunLui7JPjcJr47EbuJtxjmCwMf+7i6UVmt2rfYt6X5SUrckyEG5Q7RQ5XdqCz0iNyv94Tyy5IlzXoT16+WEsu72Tqy72xWSuJ4y1qg8OE8j+y3Kc/MIEb+1IhuKxXu/uL+bsS+TQro8znucocwh2qjyO7WFDgAL+mr+UCEhebG0a3GV42pdzzulswUtvVrT2Zvsq8Ub02K3ry4STkCyd2TGvpASD6bl7z8qGqO47nGWkN6q5UgVRgjprfzhNcotWxDkACF5sdIJCXJQ7UQosT7xdafXzGxBG6/WdLcrIB5r5NPodWmzdySSmLqN0M3sVVbo57NZoTfP4hK07f7aCGk1bSmMMGOv5Q9bsZ9RBUJ6Cwv6auEJzehrmNFqJwJCrCtT6godLb1am92uDOZ3m4jd9EZFnrEMxuvv8mXQWse7D+S+f1WRA9aZYiAJ7aoQkZuYsdcQkZv5H6VE5CbO2RuF+stSzbIDQQ5wzt7AjL6GOX0VIXkRc/oqztkbOGM/Wxqu5LGlrG07A1ShqVeTZu9Gy7nUoenAuG35gIE3fIt2F3tHasumonEPVf2aKowwp6+mzjIkL67oa14zfK5uuQBBDhCRmwjprcaDVQDOC9FE7CxXnFQFM2PSxpsaaCLWWvYtA8CmNEk4mfqWNuUDcNwv23uOqiDIQRr+ttFXM+uPCJcXURYPUQXj1aPlslIzexd2BU+mG/N2XE0kvUlXmPr2KAzXbLlam2I4JKGmrRdp20O25XKt56CMWi9Im+3MSLJQt0pDvdnMUrTW8d+ueB7o2r75H4stWwMhre0771VDj94Vl2s9ByHEGr64tpIuwyQ8ePIirNLm+63Kc/OYvRu576/bsrWO7Ytk9saraN9LCtlsHrkq1swwISDU3ls/LtZVdcm4Xt9SV+xNCpzalOfmaVKu26X9JuW6tMFLgPPY7pOmtPLU4qOid0J3LT1TjpfrumiTcGlSnpunabluV/abluvyTHluXZy90SV7c/RR6JQzwCJ2m6dw0aZc1yRqmsyBG0SL3baalAfnadKbGUimPLcurnukLeHo4+byz8CGZUCKZB1kGVopyJbluqY8toq9PCb930TkBlMe3MQ+WvRmBt5k+23X+TI2eHQX2uLRUdQ1ZhBRlBZ3tYE13NRfJAPQpul7Q9PdCKIWvVmWugk3173RPRA5+ip0MGYVuxLxAMuFSfh4NQaALpqk0c0AsEnIkIcl9fV17JvdB9r0ZoY04VZxYGx9KAix3sfLoJ9Ch3sAIy0viTJNVHxbclU455AVXhK2Yr+D9L2BJ6vx83ZcLVouO+nNDKziy8pEFFmzoZoyexh6CfTjLCxox4yBikR88y2NwF4v0xTKWFoclrdla7rjl3VRStNYOW/L1nTBy7KaYP5W3k6+OV+D3hNvjj4LHZRC216iqzUoofCDYK2NgqBWV1+G8ZD+aLRmy9aY57WaLckTJT1EVfvc9yFtIURDTIFXkX2PO/bAobQ3YQt6LXQkHsHi1V1iCkbxWxq6uNlpuW6NeJcncb3r/Oqgklca1rFvEk5dPOxm9qjMvuu7ahZfi77Qa6Frx6AUWkNaBkmRkLhy8FQnQk/LdWveLBPX1y3PzSOShFNd+2aXr6JBexVEUuBVFIopKd3e3JHhvizc36IvMG4t5ZfL9XWJQkoEyftG23g12eJlWU3Kc/NI0bxcNy3PtQmwIqbepcy+Wtq/Y+zN+yWtfp2NBc2Y0zvYvPrp2RQ3jq61Kk6SDdP3Bu778cvCGqTR0YH9tttfV9m7Uol4UmCNnsXmht4LHUi8uuWiq0ispZ2FlCCEYGcyaeRVRdRsu+UshJD4FYgNvGoX9tEi4WRW/xfOxWsN6VhapxnvzZRilv6dkYXYq9tvvMurP3vjepyWtnkdB1UHYFUwaXxZ037dAaiLRttfJ1OZhSJ3hI0ouU+XzUYIHQWeQiu15l2ElPjw/AKHT+3HK14qtjR9b7HTBLMbQN6Oq4mGLy9wkd2otEqLogi05OUFSsQJJCuOnrcPdHNFHweUOr2FjKK10f90NsPuzg6UUmvLxVxNK9U6ZMjCk5d15e24murYPmMMOskHVGlaxbtwOdEa0rEvuubceX/6wOYIHYDmnvNiynC50p0KKfGTO3cxDgK8fOsjmOzsxImPgkYpdXurBhgPnbfjal3bl1EEAqzZcTWae1lXHpG7ximUQvPicOey2SihI/Ec1hBGa8jFQ2+jknJdLwjAGcMzR9ewN5ms/E6etuWxWdJ43/Fg2mhTHmyjrn2exPW2PIRcrveaBtc96RP9Pjsb1D3gUVKm8bpMXm8yD0Ocnk3BGcPh/h4O9/byv7ZC0/LcPE3LdZvOluRpuvjEVp6rhLAO+pH2sv325thIoZdcXBlF6ayAWS95Op1WFnuT8tw8bcp1m5Tn5tHJbl9lsyc28uW5WkqITE+Zpc+zLHk2UugAoD3uTEzIpBgpy3Q2S19JUiZ2Ux7bNI1v1mvWTd8bWttv+7Ku7GtdHCIHIQD3eh+yGDbjLG0QWnihVS6mFFLi9Gyavk3tcH8PL9y8AW55WMxq+CbbT9u2W65LG/uyg9224ilWtjbAz6I9z+lo+ohdJRtC3HXGXb0NsQjXxH58+gCnZ/H2x2aQavPu3LzFuWZxlKqQcKlCU/uyg8UnWmnogsIw7blDx76y0UKHmb8tEJZN7NPZbEXsNu9OGmyqL5q8LdpBE/syKR+oM9OSRysFsVi4Rc75xokcT4LQYQannnudqFiEK/PTQsp0gGqweXcz3bZcLCo1VXM6r4y69qWUrR4yLSXEvETknu/sQfvMEyF0mO60wLPLcLk2RWYTu/Hu4+Dhah3P9ys1QsjaOznb0MR+3VDHoIRANF+4Y3KW9JwbKHI8SUIHAO35xWJfRvEsQuZmnk6neOfO3RWBcsbw9LVrIFpjNBqB0Hjz07LGfb/xLlc2TLlu3o6reUEQx/U15+HT6+Lgocg3Vy6be+YOYrG7wxjjubJiFFLiveN7K979zvE9cM5x69lncHR4YJ2dyWPi83zCpQlpvF8zFGKMVe9VtI7DOkcyCCZc8d2zW5vCZp+9A+150L47ltRKQcwXkJkVMiZuf+fOXczDEGfTKY6uXgEA7E0meOboGo4ODzAO3A8RzGyJI41eFVOu22T2pmp5rhIC0Wxe6P3Tsc8Ge3LD5n8DB+lNKvBEcrmM49LMdg1CSvz4vffBkxfUGjhj2JtM8PS1a3jh5g3rlKTBlkavQ9tyXVOea0VriDCEWITOeBzZMY/DWWwaza7khmBmCYoSG1pKRPN52n0rKeO3H1OK9++d4J07d9OMqiE7aLV5+TSNXmNq0GDKB7wWu42Z3QCiXEiSevHI8RAg2V3LT8K/J0TkeNKFDiRJJc8vrcmQywjRxSweAGbWS5ok0zt37uL49AGms1maXc17+aPDA+xNJhgHPliSxi/ymjbS7Z5bwj0POtl+WiXThqVenDFoP9jIefIynnihA4jrpf2g1EtpraEjAR2Jta7fJJqOTx+knj4v/L3JBEeHB3j62jXcevYZjIIAUArjwK80mDVz/W3KBwyEUlDGoZYRRG7wbcOEekW93yazHUJPiAepQenNjLODYWE3bxO+ae/fu4fj01OMx2NEUYR5koRhhIBoDS0ltFzfU1FIWemBKCMuxlpALZdrD+waxgn4xeOZTefJ/WYO0u65xLvDCD4M45AmWWpWhJASQkrMwyXm4RLn8zkIIZBaIxICkRDxNhiIX6RFci/LopSWnpMTraGiCNFsHntwx6b8WTT3oPygNKx7Etg6oQPJgMvzoIJqN1lrHcfwszmi+SJe8FwQ6xqkEKCcgzEW73Jb0niyy1ad8lwlBMQixPJiFi91K3kYkX3Yn3AvnmU7vqULmtzwoDycMehkFVN0MUtna2zxr1Lx+zbr1J6YQq6idZtaKcgoglgssDy/WCtaK4TSeEZlS7x4lu0WeoJmHDoYVYrfs2ip4vT5PBZdNJ9Dhst0Y6U6IjcwztOHxKTz5XIZ27iYIZolNiqEJimUQnt+0oM9OXPjdRiEnkFzHnt3P7BvWV2Clom3DUOonDjN9J4Iw7jALNNEuIx/Nl8gms2BSMQ9xmyepOijRiuONI2nVlUQbHytSlu295s7IQ8FH4wSD9jiMhnPnOw8qyIRr2vNNJXsS2OSRVXifyeExD2UCcm2XOCG4QoUEA/afKhREtYkC6d7SZIYU8EoFnifz/USGIReBZJ4eT9YFf1lzlikntuHGo1jgXubX2X4qCCvv/562k9KcoAL+trqJx4hn/nUx/Drv/bJ/GFI1aLrfpxoQCkJLVXczBrPNqGHA0IpCIsLvQijIC12GbgsmOU16b/4q7+Lk/sX+cOt2FG3wfSDlWO9fPwZJZvRGIHncfgjH8HOCKO9CcZ7OxjtTuBPRvBGAXjggXkclDNQliySIATIJotonCyinIF5HNz34I18+JMRgt0Jxvs7GO/vYLQzhj8O4PkeOKPr59Pzdpn0UuibDKEElLOHYh2PEOyMMdqdYLQXC3b81C4mT+1ibNr+Lkb78QMS7IwfPiS+B8aLX68yUI3hCg5sBYPQB7aCSx+Mfurv/8384YEt4h//0//+WAajlyr0gYFHwSD0S+Oz+NbbfxsfzR+e/j/8q5/7HfzH/PGBVtiEPsToj5EffP3LeOXjpv1PvIWX8Y++80X8Sv6DA50zCL0KX/kyvvf2v8Dvfz7/gzb8MX755/4EP9h7GZ/9Sv5nA10zCP1S+QAfTIGjZ9azwwPdMgj9UvljvHsC7F+9nv/BQMcMQt8gRoGHb/+3f1jannsm3mFs4CGD0G18/ov4s7f/Nb5n2pvXAYzxxm9mjnUyiPwknrsKnJ18kP+Bk3ffu4933zvNtPy/T/O/MjBMLzr4+c/iv/zSLeybf+9dwUevc5y9+wGOzaaz5z/Cv/sH/xVff/hbBcTTi/j6l/Hz/zJz+PNfxJ/95ss4zh8faIVtenEQehW+8mV87809vPXVf4Jf/s/5H1bBJvRP4ve/82m8gWEuvWtsQh9Cl8fIR9/MhD5vfxpvnPwJXhlE/lgYPHoVWnv0gceJzaMPQh944rAJfQhdBraCFY+uMEJIX1z9xBZzdG0PH33xRv4w/uIvf4Kz6Tx/uJAg4Hjtp2/lD+Pdn9zHu+/dzx8upMu/9STi6x+D6fOVYytCH1jl4z/z1/CFz30ifxj/5t9/C9//wfv5w4VcubKLf/5bv5A/jG/94W188w9v5w8X0uXf2haG0GVgKxiEPrAVDEIf2AoGoQ9sBYPQB7aCQegDW8Eg9IGtYBD6wFYwCH1gKxiEPrAVDEIf2AoGoQ9sBYPQB7aCQegDW8Eg9IGtYBD6wFYwCH1gKxiEPrAVDEIf2AoGoQ9sBYPQB7aCQegDW8Eg9IGtYBD6wFYwCH1gKxiEPrAVDEIf2AoGoQ9sBYPQB7aCQegDW8Eg9IGtYBB6RZ7/2jfw8m//JwR3TnByOs3/uJT7989xcj/enP75r/0M/saXPoOjP/ip/Mcqkf1bv/e1b+A3vvRV/N7XvpH/2ECG4UUAJfyz3/oFfPw//A8c/cH/AQDMrh/i7z7/Uv5jlfjC5z6BT5+8iZd/++8BAMKbU/ydZ382/7FKfOFzn4DnAb/xpa+mx1555RXs7e2tfG4gZvDoJXzr27dB3334ZufJB6d4Zrlc+UxVvvnt2yD/+zD9d3BnD2+evLnymap889u38Z0/+r8rx6bT+j3NtjAIvYS3//T7+NFfHecPN+L+/XP8xV++mz/ciPv3z/H2n34/f3jAwSD0ga1gEPrAVjAIfWArGIQ+sBUMQh/YCgahD2wFg9AHtoJB6ANbwSD0ga1gEHoDng7D/KGBnjMIvQJ/vru78u+mtS4Dl8cg9Ar8ea4i8G8NxVMbxyD0CrwfBCv/fvPkBK8PYt8o/j+HJ3laCnf//QAAAABJRU5ErkJggg==;" parent="1" vertex="1">
          <mxGeometry x="2136.42" y="410" width="102.58" height="108.1" as="geometry" />
        </mxCell>
        <mxCell id="VDgp7xIS0GzNU363Rtex-14" value="" style="shape=image;verticalLabelPosition=bottom;labelBackgroundColor=default;verticalAlign=top;aspect=fixed;imageAspect=0;image=data:image/png,iVBORw0KGgoAAAANSUhEUgAAAE8AAABPCAYAAACqNJiGAAAAAXNSR0IArs4c6QAAAARnQU1BAACxjwv8YQUAAAAJcEhZcwAADsMAAA7DAcdvqGQAABYHSURBVHhevZxbjxzHdcf/1T3dPTuzu6J4kcBdXkTFIr2SI0OhBNhAEAtOrACygjwZeRJgIHE+gT6AvkTipzgIkKfYL3pKAr04BiKJkMA4kUPLgBiubHK5WpJLcmd259ZdlYc6p+bU6ZpdkgJcQKG6q2vq8qv/OVXd0zPm8uXLDgAM4mAAwPhcA8AY41PKz+g4o/zMGH9M13I6z+g8MybO4zpEyu2E9gE4Tp2DE6l1DlanFBtxnCrnKN9R/aFuOg7tUr4OnGdS8A4DJ48DMHEcIAHIsywcS3gpsBE4SjmEAaXAKWgNXWucg7V2fpz4jKO8JwVoLl++7A4D50/ngDQ4HnwEjlIdZX70GW5DqRuYdz4MUEFo6Lixdg5PgAznXE4BTwIUbco+6NCGp8El4MmB8+AzY4LSkpGudSREbe4SnggSnlaPhBQigaw1QHUcQVwAj6GxGmUwr5LZ+jPfeTA0AY59Uwsc5UtwHYLVEccyn8EFBWZZbL6hQz4sgqeBMaxanwtVyijhMUANUrYPBTCCJ1WXAicBSjVlDIbSTpZF8Dp8LCEyeMqTyj6W51jNMqwAWDYGDsCQBvPQOWxOpxG0AIxA1SpNAW2c94kNTUgjTXgRwEXwDLzy+DioQJqqUB4PniFJcAyrEND4OFKkgHcsz3Gx08Epa/H0dBp1EmrmR1mGO1mGzwikhDRjcNbOj0VegJfwkWE1TgDk9iU+8yr7PGmyRykuAS4FquDjLEOhwDJIhvY1Asbq1yHMOinEWQs4h9+WJT6ua9yr6wBrpuDNCBqnwYzpPPKBAiCnctGSAPO1tbV3DzXXRYqT5sjwCFaRZShVLPIcZZ6jynN/nmU4X1X406bBCeeQZRlMniPvdlE++yxMngN1DZNlfmKzzIOlxYXzj1mLC1mG1bLEVtP4yRbjiAKfU+rIJXAIx/pzMgiRBXhBdQKaUVsSVltkokJhETgJi4CFmOfYqCq8SnCyLPPQTp1C9dxzyJeX0dy9CzjnoUlwDFMcdwCcbBr0ul1sWeuviTFFgcHpfBGCygTcVF2ZPAkzps6jVZYhSvUp1aWU181zdAnm+bLEy00Dk+fIOh1U586he+kSimee8W3PZoBzyIoCWaczj/I8z1GcPIm810OW58jyHBuzGd6oKlRa9SJK/8xjyHiMhzDgII8j5fGMBT9n2nu44PTJj7VgCbOshPKqPEeRZThblniNweU5qvV1dI4dg3EOmM3QPHiAens7UpxUGyg/6/dRnTuH4tQpuLqGG48BY7DaNOhVFbasDSrjAbOKWFkyhny+uxCm61j1nEHH+dr6+rtBYcJUjQTHkQEuUFsh4JUEr8yyuRLyHK8DQSnV+fPoLC8Htc1u3YKbTufgVGRwpihQnT8fBtN56ikYY2D392GMwbJz2O90sGdtAMBBb4CT4Dj/CN+XQUtTLh7sOxaZrEiDCimNzJaU93K3C5PnXnVVBTcYwA6HcOMxmvv3YaR5ytjpwLDJVhWq9XWvVNH34tlnkXe7MFmGJQDfcq5ltuyn5RiC6bKfF+NlJkYtNJyfabbcGY7SFyRXXKFEacIpcz5b10F1cA6WoDW7u4C1AZLpdGDK0kcGl+f+GoDm/n2gaeaT7hwMgOr55yOAz5UlCnIXcoHjNEDLssinH+b7JK+gvMimZWGpvIQCow4JiHLWyyzDKwyAlUcqY1gZAcuKAnlVIS8KH6vKq68sfZlOB65pUO/sAE0T+soLTOf4cd9GluEPeRLFPjTsTekuSKouUp8cv4LGIay2kqw0VyNXWlYeS1/6QDZf7QvzHEWe4ykggDMEwRSFB9bt+tjrwfR6MEtLMP2+j5zX6yFbWvLlqgqmLL0CrfV9JjPuPP008qqCyTIcq2scz/NoYlOrbc4WJsEpiMH/CT/Y8nkRRK5EmSynkfmyXxEzXcgFxJgYXlHAFAVyNs9udx4ZIMVsaWl+raqCCgHAjUYAr8aAV/HKSlhk1osiNluKDE0qzyyAGOpWqVceO0LlEPUstBQozEDOaDTTWYYzRdFSHZtiAMew+n2g14NZXvax1/PnCiBDtOOxvxMRfc/7/QDvFNDycyFKX5cyWeZAqQ7BbCXAqAJD+z6KGRBmLMg/sYWJzIRuvRhe8HVVBRA4sHn2+8gImiGImQBpul3/maryC0lRzIeA+eJhaI/YWwBOQ+OFQqtOgtMQk6st6IPglUfNjG6YZzGaVcorsgxLeT7fo7H6yhIoSw+BlcfglpdhVlZ8XF6Ofd/Skv+MWI3h3Fx5xsAUxXwzrft0CECtOh0lH2YTMnUBXRnPjI66UwyOZ7tr6C6BVlYwuLKc+zWCg35/brIUIZVI5ouqAkh9fiR0/wt4ZVObXedafQt9Z6Ulxsp1BR76nOGFbFlASFYDDOpLANUdzXlGaTDRSitUh6WlAAj9PkDQwMrr930Z9n0MjidE9B08WcpSUmqTAFsgEwxCE1J5MjOKcvDcCH+YOsB5umO58RtQk2UA7b1AxxAKBEEELQ4BEvlCMNylpbm/K8s5OFYdR+cCOIj+GIYlYnK8CVipkDRbGY6qvDWLCZDGzG/oDd0pgLYqhvweyBR5RYVcGPicVtlg9p0O0OnAkE/l/moT0/3SYpBj1wyk+nRoKY+DrLB1vqDxVqe4YQbIgySIjhVIMFGWcEUBV5Zx1NeLItQVPdBUbgc8aYcAi/rKi44ae+QSRFgIb1GIGl6QtwgggACPAYIjK4hSGUEK47LR58i3OWmu3B7DSADj67KvOhyV99jwnjREA2KQNGh+XhZ8FwEJkc91PquF6gsK/D2F3xu8MDD59Z1z7ZgKqeuLysrwKGW+QngiePywkLsmzx3gHziqh46+IB01DWDtPLUWrmngmsbnUYzyuHzTAHUdzvlbtBYoca774sRkRF8tqnBU3kJ4usIIBDcqvobjTrXyQgXUYRq4I2Coa/+dBUU3mwHTKTCbwYh8TKf+Wl17qHUdAIMBct9Um7rfsm86ymsh6ImhEOC1PrAgXzfm+FUF6iR/427pG3nLoFg5zvmUQGA2g5tOPZzJBBiP4SYTuPHYfy8h8jCZ+JTgSpgSFKgPnIb+UJ9lf3kMcnwySDHo0FKehOWAMFuyoQgcAdMv4MjoeGBsnnUNR9AClNEIGI08tNEojuOxByhSN5169bECpfkKk4ToQ+iPmGQNOYwtAVKHDLKQnAEt78TMLQIW3iPhzhI0S2bqSDVBaQzu4ADY34/jcAjs7/trBwe+LAMngGy6UiUMk/sZ3giQ45DjUdA0QHnM5y3lQQHj48gcE1ECk68yNNYiF07f1jWsUJ2V4A4O4IbDedzf93E4BIZDX4aUaBnebDY3W2PglKtw8j2UBRYSAMqoeETCojSCl6IbICaARdBSr3FZi1NZhnI89oOazWB5wASPAToGJ4C5wSDO29+HHY18eak8a+cDNMb3lUyZ4aViEqAet+Ii+eRra2vvZrTJ1LcnRj51UDf9MsqHo5kR30YBeGEwQFGWMNQ5OOe/b3C0cMhFgxYKjEYAK5FBHhzM1cmLCgFEniMrivlgrcV0Z8eDMwafNQ2m1mJKL/3M+KUf8eaUfPWskW5JwhTgEJQnnCYS5KWkW6oT779F78hZixeaxpsQ+Tvet9m69oqp60iBvFgEJZKP45U3qI3Vyy6A/Z00LWvR1DVs0/i3opRlcP+1JUXqEzxSISwYXEBSDuASfkJ2hMHV/H4czWw1HMI1DZqmQUOwLIFkvxdMeTLxfoxWXjsew/LKK7YvdjIJC44lf+eaxg+UHhI4R9skalv2i/2wVpolpQXRMEReuYWYOE37PKG0AE443Mb5F6QDPGkCwjTy6dQvEOR/LG9T6hq2rtEwgBRAFS1vT+gzDdVhNTiOtGA0dR2/4KhNVIyLLculzJVVLdR9+GrLlJXJNjR7+j1g9iUza/F8nofB2dksmCqvtgHWeIzm4AB2fx/N/j7sYIBmb28eBwM0g4G/fnDgy7Ia2YQJYNRvUmTTNO03RLn/lGqT5VSz0CEy21TUyzs3FsxVdopVZy0602kw0Yb2YnwefJ+4p+V8q/Ll56SCdV54rkdPafjuxsqFgvqYfKWWrUuaJi9sCyDOladkKSuQqgvKE5EBypXMAQFcNFA5cHUtmKGCkywr62SlCNPlepq6jsCx2Ur1RcpTLos5aDYAkIULki4Do2M5Ky1wYoHgOKVf3vDgZqRCJyHoVEJKxcb7y+hzfOxcUB6/VxfUrPrWUp/w3WGcikMyOBc/GIBcWRicPNbqo05wh6TPs86FAUzH41iBhwHTatWwJDTKDyrRyrMWB8NhsAi9sEXQBLww/sBprkQG51r3tvpDIrZWW6086hwrbyvP4ZxDU9domgbTyeRQYBoOr6aNANjoz/I5+zyO8KvtbDbDTJgtb1dk/1vQEmYrgzxf+EiK5erEYqGVF/yHWixm1uJLsQezdY3xwQGm43F74Cl10bHcjkRwFUSnzNYBQFVhRGWnSnHB57H1sJtKgVQikiG6w4AqGFWgwPGvZ8IdhvJ5Na2KcP4+s6lrjMdjTKQCWV2cakgihjIpiLzPI3Cm10P3lVfQPXcOlu4wgq8TimsIlNxNpKBFQZjv3GyVr/NZ832PbIAbluBYgTNrMWsafDEcYnN9HY6epjR1jdlkguloFCkwgpE4t7yZTuQzQH4wwPBGkwlmTYPR9jYMEMBJK4lMNqU2scIGiNLvabOVQVbCqZ6l1l2GUuB/keqctcicg61rTCcT7A+HGI9GbfXJfRzt0cLioRWaMNvaWoynU0x2dnD7vfcw29kBGJ7oI/eZAUqr0mM+LLRuzzjVlQSABFH+flX6PnbMM2vxxXCITy9cCAoxzj8YbeoaB/v7OKhr5GfOwHY6sE0zf0PT76Fg+PmfUprl7zH4FqwoMJ5MMKtr7F65gt0PPsAz3/se8l4PVvjjFLgAbQGwoLpEiH8ymnosRXkyDY+ixGsW/GaUfsmnYwz+ot/HhS++CO/MwRhY51A98wxWNzaQ93r+dmtvD+7hQ3SsRXNwAOcc6rqem4tzMN0uihMn0NQ1qhdegKsqAMD9K1cw/vJL9C9cwOo3vwkYg62f/Qy/W13FP9d1BE2DC2arxUJMQqrAtuHB79T5OAmPjhmcBKnhZVmG8/0+LhuDC5ub4Rv68MU1da7/3HNYOn8enX7fK2Y8BgA0+/v+ZSF+tYzKj27cwOzgAAfXr6MeDrH68ssemhjstfffx9/PZsFCZBqpjjfGCl6oS5zL0PqlNwRAzg/wjgAoFSlf5+Lzv+z38fyNGwFeUKKeZVIlAGS9Hl0B6v19NMMh6uEQhp4YZzTY9bffjur49c4O/u7jj2NYqW0XlZdqY4UdBs4tgofHBShBMriUeRuDc/0+LgMBYlAh1UEHoR8gf8SwZB6nzjmc+eEP4YzBaDzGv29u4v3PP2+rjOC5RYp7DHBgeGBYKiwCCAIjYTIsY+Y/u5L5UQRwbnkZfzwe4/TWVoDG7SWDHEgC3qm338ZHe3v46ZUrSXUFWAyPYUl4jwEOEh4WAZQDEwAlOAkwKDABVR8bUuJrWYbju7s4du/eY8Gzx45h5/x5DDY2MF1ZwYdXrmB7e3tujkptAZ6GpsGJcxl0TgQPiwDCKyIAVDCDClMgqSxDC8eqfK/Xw59997soBgN0b970dT94APPgAQ5oRd0rS9yngT04dQpf39iIBv3Bhx/i9va2hyTgSWXJaxB5XMejKI5DpjNShaLKKZVRmoZ2yrw1qF3ijkTsD2tr0QAYr6zg4Ysv4uGLL+LzixfxT3WNn+7v41+GQ/zr7i4+2t3FR/fvzx+fGxNiQ/vPRb5Oq5CjHpsOqTyk4GFBYcc+hs85ilmV4PS+igGmoPHtE8NgCBaIrsvjhttTUYLTELWZRqYqzmVo58xDEt5RQVYowXGHuINhtlNqZBXyOatIggDC9Vrd1XDdjsqG9qiuZoG6WASy/08aFsKTjco8bjjVKR5ImGkFbZEyWJlaRRbwXzJZevIrn4pocLJd0TZPKJfT0Q+g7eei6wvCQniLggMBFGbMjQTlSXAShgSnHqpWS0uhHNcpwepo4ZUqQWiQXIfuVwQlAe5Rw5HwWo2JPEfAdDnOD6mAljpe6vXwnddfD0+CGeKXd+4kwfOkRP2gTXSAJfsg+hX1PwFOlj8qHAnvUYITfiRqXChUqlR2vNfr4c3vfz++RhBv3LgRw5D1cx4/ORZtpvoTPiP79BXDI8OLOiH2enrPx/s+vvEP+zveJAP+RaAsw8ryMt58660WGAfg19euYTIahZ+j8u/YMkqNNFl+grygfY6L+q3H9qjhkeGlGtTXpMoMRTbr8BTF+N9L9Hs9/Pmbb7agOQB3d3bw2bVr0WccpUYA04HzHPdJqp5/SirLU6rH9qjhkeAdVqnBHEyrAypfxj95/XVZMoS7d+7gP3/xi1Z5vlPh45Yb4DKkPh2ifvKkJEI6Nx1at2c6pCqL8ozBWy/dhQHwyvoQp5+aqM/Mz/io1++h1+/j5vQP8KuDV7HXHAcA3LtzBx/8/OehvA7cUQfg4sYGNr7xDQDA9evX8cknn2Dzxg1Mp1NfboFP49yVlRWsrqygLEuUZalKPZoJPza8MIMAfvTtLfzoW1uqxOOF/x29hn978Fe4ubmJ//nkE305ChLe1zY28PWXXgIAvPPOO1G5xw1rp0/jxMmTqATEQ6FQWGi2bCI6D8bg8pkBfvyD33xlcABwtryOW198gV9dver/kGtBjK7R4gMAu7u7qsbHD1u3b2NzcxMT8b99qfHrsBCeDgzu9OoEP/7Bb3D5zEAXeaLwH/e+g2tXr0ar6mGRvxfh1fP48eN44403cPy4N/0nDYPBAJ9++mkE8KjQMtsUbWmq7/31pzi9OomuX725gl/eWsX2XoXtQRXqyECPscIjKuDCxUuhkf/bO4MHd+9i+7e/DY+nOPCx7JzDfH94/tIldDqd4N9ubm1h8PChV2Jik6w3xA/39nDn3j1MJvFYqrLExUuXIhPGAjM++mEo5uD+9ttb+Btlqv/w0Rr+8coZL/NFz/Nkys/0VHluh/ug4TGkAIOA6NswK0BF1yRMUc/vbt3CXQVx7fRprK2thXMOGmAw26PAra1OWuB+IsDJzaj+Bq0j/p6jk/rXH/2/U0fkFfTHN1xHMOtH+AsQ3soYGt/Z9XWcPHEiGtfW7duYJsxXM1ro8yQ4A+Dy2djHXb25ip9cORN3LvUvZ+L/VeTANTgGpYEdlqfrCgAT3x9nPMGUBojG4Oz6Oip6Ws1hMBi0YOmQhKfBAcDp1XgmfnlrZW6CrDjZaaEuHlQYsPwbzDxHJf9rj/4urhX5mgZJ/1KmYXbEysz9kZPMqSG3cUaZ6WQ6jdxIKmRQckyBM8bgj9Tq+t+3VufgqCLuZDBVYaYy8qBL/mNCBScVw39SSciivqA+oXRpzrmJ/3Ar8sUAukp5wWwXLGRIKk+Do6iVt71XxYqT0MQgImCsMAlL/Jco/6/oYZE/o+uT/xgZmbLoV9gzCgUywBa8ibhTWnAr9//cSox3dUijtQAAAABJRU5ErkJggg==;" parent="1" vertex="1">
          <mxGeometry x="2180" y="605.5" width="79" height="79" as="geometry" />
        </mxCell>
        <mxCell id="VDgp7xIS0GzNU363Rtex-41" style="edgeStyle=none;shape=connector;rounded=0;orthogonalLoop=1;jettySize=auto;html=1;exitX=0.5;exitY=0;exitDx=0;exitDy=0;entryX=0.492;entryY=0.967;entryDx=0;entryDy=0;entryPerimeter=0;strokeColor=default;align=center;verticalAlign=middle;fontFamily=Helvetica;fontSize=11;fontColor=default;labelBackgroundColor=none;endArrow=classic;strokeWidth=3;" parent="1" source="HHQ_va1JwgnbjhiMGAxb-7" target="VDgp7xIS0GzNU363Rtex-7" edge="1">
          <mxGeometry relative="1" as="geometry" />
        </mxCell>
        <mxCell id="WZ6DmUi2DyuMJhYFAR-T-13" value="serial ui" parent="0" />
        <mxCell id="WZ6DmUi2DyuMJhYFAR-T-11" style="edgeStyle=orthogonalEdgeStyle;shape=connector;rounded=0;orthogonalLoop=1;jettySize=auto;html=1;exitX=1;exitY=0.5;exitDx=0;exitDy=0;entryX=1;entryY=0.75;entryDx=0;entryDy=0;strokeColor=default;strokeWidth=3;align=center;verticalAlign=middle;fontFamily=Helvetica;fontSize=11;fontColor=default;labelBackgroundColor=default;endArrow=classic;curved=1;" parent="WZ6DmUi2DyuMJhYFAR-T-13" source="WZ6DmUi2DyuMJhYFAR-T-2" target="VDgp7xIS0GzNU363Rtex-1" edge="1">
          <mxGeometry relative="1" as="geometry">
            <Array as="points">
              <mxPoint x="1690" y="820" />
              <mxPoint x="2130" y="820" />
              <mxPoint x="2130" y="668" />
            </Array>
          </mxGeometry>
        </mxCell>
        <mxCell id="WZ6DmUi2DyuMJhYFAR-T-12" value="sends commands&lt;div&gt;like ARM, DISARM&lt;/div&gt;" style="edgeLabel;html=1;align=center;verticalAlign=middle;resizable=0;points=[];fontFamily=Helvetica;fontSize=11;fontColor=default;labelBackgroundColor=#2A2A2A;" parent="WZ6DmUi2DyuMJhYFAR-T-11" vertex="1" connectable="0">
          <mxGeometry x="-0.3874" y="-2" relative="1" as="geometry">
            <mxPoint as="offset" />
          </mxGeometry>
        </mxCell>
        <mxCell id="WZ6DmUi2DyuMJhYFAR-T-2" value="SerialUi" style="shape=swimlane;rotatable=0;align=center;verticalAlign=top;fontFamily=Lucida Console;startSize=30;fontSize=14;fontStyle=1;fontColor=#ffffff;fillColor=#008a00;swimlaneFillColor=default;rounded=1;arcSize=15;absoluteArcSize=1;collapsible=0;strokeColor=#005700;strokeWidth=2;" parent="WZ6DmUi2DyuMJhYFAR-T-13" vertex="1">
          <mxGeometry x="1584" y="750" width="106" height="80" as="geometry" />
        </mxCell>
        <mxCell id="WZ6DmUi2DyuMJhYFAR-T-3" value="" style="fontFamily=Lucida Console;align=left;verticalAlign=top;fillColor=none;gradientColor=none;strokeColor=none;rounded=0;spacingLeft=4;resizable=0;movable=0;deletable=0;rotatable=0;autosize=1;" parent="WZ6DmUi2DyuMJhYFAR-T-2" vertex="1" connectable="0">
          <mxGeometry y="30" width="50" height="40" as="geometry" />
        </mxCell>
        <mxCell id="WZ6DmUi2DyuMJhYFAR-T-9" style="edgeStyle=orthogonalEdgeStyle;shape=connector;rounded=0;orthogonalLoop=1;jettySize=auto;html=1;strokeColor=default;strokeWidth=3;align=center;verticalAlign=middle;fontFamily=Helvetica;fontSize=11;fontColor=default;labelBackgroundColor=default;endArrow=classic;" parent="WZ6DmUi2DyuMJhYFAR-T-13" source="WZ6DmUi2DyuMJhYFAR-T-2" target="WZ6DmUi2DyuMJhYFAR-T-7" edge="1">
          <mxGeometry relative="1" as="geometry" />
        </mxCell>
        <mxCell id="WZ6DmUi2DyuMJhYFAR-T-7" value="" style="verticalLabelPosition=bottom;verticalAlign=top;html=1;shadow=0;dashed=0;strokeWidth=1;shape=mxgraph.ios.iKeybLett;sketch=0;fontFamily=Helvetica;fontSize=11;fontColor=default;labelBackgroundColor=default;" parent="WZ6DmUi2DyuMJhYFAR-T-13" vertex="1">
          <mxGeometry x="1380" y="750" width="138" height="80" as="geometry" />
        </mxCell>
        <mxCell id="WZ6DmUi2DyuMJhYFAR-T-14" value="detail" parent="0" />
        <mxCell id="VDgp7xIS0GzNU363Rtex-29" style="edgeStyle=none;shape=connector;rounded=0;orthogonalLoop=1;jettySize=auto;html=1;exitX=1;exitY=0.5;exitDx=0;exitDy=0;entryX=0;entryY=0.5;entryDx=0;entryDy=0;strokeColor=#606060;align=center;verticalAlign=middle;fontFamily=Helvetica;fontSize=11;fontColor=default;labelBackgroundColor=default;endArrow=classic;strokeWidth=2;" parent="WZ6DmUi2DyuMJhYFAR-T-14" source="HHQ_va1JwgnbjhiMGAxb-15" target="VDgp7xIS0GzNU363Rtex-15" edge="1">
          <mxGeometry relative="1" as="geometry" />
        </mxCell>
        <mxCell id="VDgp7xIS0GzNU363Rtex-30" value="reads data" style="edgeLabel;html=1;align=center;verticalAlign=middle;resizable=0;points=[];fontFamily=Helvetica;fontSize=11;fontColor=default;labelBackgroundColor=none;" parent="VDgp7xIS0GzNU363Rtex-29" vertex="1" connectable="0">
          <mxGeometry x="-0.0533" y="1" relative="1" as="geometry">
            <mxPoint as="offset" />
          </mxGeometry>
        </mxCell>
        <mxCell id="VDgp7xIS0GzNU363Rtex-15" value="ControlData" style="shape=swimlane;rotatable=0;align=center;verticalAlign=top;fontFamily=Lucida Console;startSize=30;fontSize=14;fontStyle=1;fontColor=#ffffff;fillColor=#a20025;swimlaneFillColor=default;rounded=1;arcSize=15;absoluteArcSize=1;collapsible=0;strokeColor=#6F0000;strokeWidth=2;" parent="WZ6DmUi2DyuMJhYFAR-T-14" vertex="1">
          <mxGeometry x="1940" y="410" width="160" height="90" as="geometry" />
        </mxCell>
        <mxCell id="VDgp7xIS0GzNU363Rtex-16" value="state_id&#xa;motion_detected&#xa;countdown_ms" style="fontFamily=Lucida Console;align=left;verticalAlign=top;fillColor=none;gradientColor=none;strokeColor=none;rounded=0;spacingLeft=4;resizable=0;movable=0;deletable=0;rotatable=0;autosize=1;" parent="VDgp7xIS0GzNU363Rtex-15" vertex="1" connectable="0">
          <mxGeometry y="30" width="130" height="60" as="geometry" />
        </mxCell>
        <mxCell id="VDgp7xIS0GzNU363Rtex-21" style="edgeStyle=orthogonalEdgeStyle;shape=connector;rounded=0;orthogonalLoop=1;jettySize=auto;html=1;exitX=0.917;exitY=0.007;exitDx=0;exitDy=0;entryX=0.25;entryY=1;entryDx=0;entryDy=0;strokeColor=#606060;align=center;verticalAlign=middle;fontFamily=Helvetica;fontSize=11;fontColor=default;labelBackgroundColor=default;endArrow=classic;curved=1;exitPerimeter=0;strokeWidth=2;" parent="WZ6DmUi2DyuMJhYFAR-T-14" source="HHQ_va1JwgnbjhiMGAxb-3" target="VDgp7xIS0GzNU363Rtex-15" edge="1">
          <mxGeometry relative="1" as="geometry" />
        </mxCell>
        <mxCell id="VDgp7xIS0GzNU363Rtex-25" value="reads data" style="edgeLabel;html=1;align=center;verticalAlign=middle;resizable=0;points=[];fontFamily=Helvetica;fontSize=11;fontColor=default;labelBackgroundColor=none;" parent="VDgp7xIS0GzNU363Rtex-21" vertex="1" connectable="0">
          <mxGeometry x="-0.4651" y="-1" relative="1" as="geometry">
            <mxPoint x="-25" y="35" as="offset" />
          </mxGeometry>
        </mxCell>
        <mxCell id="VDgp7xIS0GzNU363Rtex-22" style="edgeStyle=none;shape=connector;rounded=0;orthogonalLoop=1;jettySize=auto;html=1;exitX=0.5;exitY=0;exitDx=0;exitDy=0;entryX=0.5;entryY=1;entryDx=0;entryDy=0;strokeColor=default;align=center;verticalAlign=middle;fontFamily=Helvetica;fontSize=11;fontColor=default;labelBackgroundColor=none;endArrow=classic;strokeWidth=3;" parent="WZ6DmUi2DyuMJhYFAR-T-14" source="VDgp7xIS0GzNU363Rtex-1" target="VDgp7xIS0GzNU363Rtex-15" edge="1">
          <mxGeometry relative="1" as="geometry" />
        </mxCell>
        <mxCell id="VDgp7xIS0GzNU363Rtex-24" value="publishes&lt;div&gt;data&lt;/div&gt;" style="edgeLabel;html=1;align=center;verticalAlign=middle;resizable=0;points=[];fontFamily=Helvetica;fontSize=11;fontColor=default;labelBackgroundColor=none;rounded=0;strokeColor=default;strokeWidth=3;" parent="VDgp7xIS0GzNU363Rtex-22" vertex="1" connectable="0">
          <mxGeometry x="0.0522" y="-1" relative="1" as="geometry">
            <mxPoint x="-30" y="33" as="offset" />
          </mxGeometry>
        </mxCell>
        <mxCell id="VDgp7xIS0GzNU363Rtex-36" value="sets event fields when&lt;div&gt;state transitions occur&lt;/div&gt;" style="edgeStyle=orthogonalEdgeStyle;shape=connector;rounded=0;orthogonalLoop=1;jettySize=auto;html=1;exitX=0.5;exitY=1;exitDx=0;exitDy=0;entryX=1;entryY=0.5;entryDx=0;entryDy=0;strokeColor=default;align=center;verticalAlign=middle;fontFamily=Helvetica;fontSize=11;fontColor=default;labelBackgroundColor=#2A2A2A;endArrow=classic;curved=1;strokeWidth=3;" parent="WZ6DmUi2DyuMJhYFAR-T-14" source="VDgp7xIS0GzNU363Rtex-1" target="VDgp7xIS0GzNU363Rtex-34" edge="1">
          <mxGeometry x="-0.4074" relative="1" as="geometry">
            <mxPoint as="offset" />
          </mxGeometry>
        </mxCell>
        <mxCell id="VDgp7xIS0GzNU363Rtex-34" value="ControlEvents" style="shape=swimlane;rotatable=0;align=center;verticalAlign=top;fontFamily=Lucida Console;startSize=30;fontSize=14;fontStyle=1;fontColor=#ffffff;fillColor=#a20025;swimlaneFillColor=default;rounded=1;arcSize=15;absoluteArcSize=1;collapsible=0;strokeColor=#6F0000;strokeWidth=2;" parent="WZ6DmUi2DyuMJhYFAR-T-14" vertex="1">
          <mxGeometry x="1810" y="700" width="130" height="90" as="geometry" />
        </mxCell>
        <mxCell id="VDgp7xIS0GzNU363Rtex-35" value="bool armed&#xa;bool alarm&#xa;bool disarmed" style="fontFamily=Lucida Console;align=left;verticalAlign=top;fillColor=none;gradientColor=none;strokeColor=none;rounded=0;spacingLeft=4;resizable=0;movable=0;deletable=0;rotatable=0;autosize=1;" parent="VDgp7xIS0GzNU363Rtex-34" vertex="1" connectable="0">
          <mxGeometry y="30" width="120" height="60" as="geometry" />
        </mxCell>
        <mxCell id="VDgp7xIS0GzNU363Rtex-37" value="reads and clears&lt;div&gt;events&lt;/div&gt;" style="edgeStyle=orthogonalEdgeStyle;shape=connector;rounded=0;orthogonalLoop=1;jettySize=auto;html=1;exitX=0.5;exitY=1;exitDx=0;exitDy=0;entryX=0;entryY=0.5;entryDx=0;entryDy=0;strokeColor=default;align=right;verticalAlign=middle;fontFamily=Helvetica;fontSize=11;fontColor=default;labelBackgroundColor=none;endArrow=classic;curved=1;strokeWidth=3;" parent="WZ6DmUi2DyuMJhYFAR-T-14" source="HHQ_va1JwgnbjhiMGAxb-3" target="VDgp7xIS0GzNU363Rtex-34" edge="1">
          <mxGeometry x="-0.7037" y="-10" relative="1" as="geometry">
            <mxPoint as="offset" />
          </mxGeometry>
        </mxCell>
        <mxCell id="GbwV-pNpVsjver55xcBY-3" value="fsm" parent="0" />
        <mxCell id="GbwV-pNpVsjver55xcBY-2" value="" style="shape=image;verticalLabelPosition=bottom;labelBackgroundColor=default;verticalAlign=top;aspect=fixed;imageAspect=0;image=data:image/png,iVBORw0KGgoAAAANSUhEUgAAAGwAAABdCAYAAABAQIPFAAAAAXNSR0IArs4c6QAAAARnQU1BAACxjwv8YQUAAAAJcEhZcwAADsMAAA7DAcdvqGQAABH2SURBVHhe7Z15eFXlnYDfc8895+7JvdkTtgTCHhYT9k2GvSyCqIDLI8VKW3nqUoWZqdOx1i5aq52pONXaaqnKiNCKQBWFKJaoJOySUCCsCWQnkP3u98wfgQgnIbk3NwnNeN5/ePi+33eSm/d+3/nWcwRFURQ0ug06dYJG1xGorFQntYkm7Cbi/uBDAlVV6uRW0YTdTCwWnBs3qVNbRRN2M2lowJd7RJ3aKpqwm0UggPfYP9DFxatzWkUTdpPwFxTgyzuKPjVVndUqmrCbhPOddxD0egxzZquzWkUT1sUotbW4Nm/G9eF2DPPmoXM41CGtognrSgIBXFu3UvfrF5CGpWFacpc6ok0EbaajC1AUApcu4fzfd2hYtw4xMZHIl9ciJid/HeL1olReApMRXWTkdcWvRRPWBfjPn6fu2Wfx7MlGSkvD+pOnvu5seL14srJwZ2VhmDkTafhwBKtVfYkmNGGdSSCA7+RJqn/wMIGKCsQ+fYhc+xJi797g8+E7fZq6536FYLUS8dyzCBaL+grN0IR1Iu5PP6X+hRfwl1dgnDsX6xOPI0RGolRXU//713B/kolp8WKMy5a12gxeiyask/Du2UPNT58hUFyMcfFiLI89is5ux19QQO3Pfo7/9Gmsa9Y0dut1wff9NGGdgL+wkKrvfIdAWTn6wYOx/+kNBLMZxemk5okn8Hz+BZbHHsV8//2g16uLt0rwajWCQ1Fwf/ghgfIKdFFRWJ/8EYLZDIDns8/wZOegi4vDdPfdIctCE9YJ+Hz4LxSBoiD264c+JaUpy7n5ffD5kIYORTCZrisWLJqwjkYUm7rlutjYptoFjbPzAN6jR1Fqar5ODwFNWEej0yFPmgg6HUpdLYrH05QlJiYCECgvp+GNP11TKHg0YZ2ANGYM8uTJBEpKr9sGYLznbgSDAQDX1q14j4S2FoYmrHMQZJmIX/4CJAl3ZmZTuj4tDcOsmSCKBC5exBXiajOasM5DsNmwPvE4rr/8Fd+JE41pkoT5e99rnOkAXNu3q0q1jSasE5HS07E++SQNf3ydwMWLAIg9e2JZ9RAAgjn0nqImrDMRReSJEzCvXIk3N7cxTadDnjwZBAHDrNAWL9GEdQ36/qno+/Zt+r/v1CnkSZOwfHfldXHBoE1NdTGK04lz0yZMS5YgGI3q7DbRhHUxiseDIEkgCOqsoNCEdSJut5usrCx0Oh0TJ07EcGUMFg6asE7A7XZTU1PDtm3bMJlMmM1mGhoamD17NlarFVmW1UWCRhPWwZw9e5aDBw9SVlZGVFQUNpsNSZKQZZm6ujrMZjMjRowgOjpaXTQoNGEdhNPpZNOmTZSWluJwONDr9VitVsxmc5Mwg8GALMscP36c5ORkJkyYgBDivUwT1gF8svsLvvjsEywWC2azGb1e36owWZbx+XzU1NSQlJREcnIykiSpL9si2jisA9icdZj3zkHZxUvqrBvicDjo3bs3Pp+PzMxMAoGAOqRFNGEdgE4vUZo8jc91g9iVX0F1ba06pEX0ej0Oh4NRGRlkZmaSnZ2Nz+dTh12HJqwDaYgeSPXAb5HrjWNf3gmqq6vVIS1y+tQpdDoddXV1OJ1OdfZ1aMI6GlGGPunYpq/k0LkKzhcVt1hrAoEALpeLnTt3oggC06dPJz4+vs1OiCasE0mdeS8VhkROFJZQWFjYlO50OjmSm0txcTFz585l/PjxbYq6iiask+k3fDRpUxcQsCTw7saNHDt2jKNHjzJn9mymTJkS8nhME9YFiHqJ0ZMmsvo/n8FoNLJ8+XKMRmPQtepaNGFdiCAI2O12dCHs9FXT/pIaNwVNWDdDE9bN0IR1MzRh3QxNWDdDE9bN0IR1Mzpd2KWLlezbsYuadh6vaYn6+npyc7ZTXnpendVuXC4X297/iK8O5/HPvKbbqcL2fLCD9YtXcej+p1m36Psc2pWlDgmZ0ycOk/nG9xh4+VlOblvFZ9s3qENCprSkjIdWrGHVsme5f+EaXnh2rTrkn4YO3yLQUFNLQd4JPl+7Ds/uXKQGb1OeM85G7LyJjF1+B8lpgxBF8bqyN8Ln81B+4QQlh9cT4ztEn8ivFwgr6o0UBDKITVtGUsrwoJfaAY79I583//AXPtycRWnB1y2AbBQZM3UQK3+wjKnTJ2BsY8PnI796jY3uISRYZeJtBhJsEgkRBhIsEvERBhJsMvE2GbuscOxANjNmzFBfAoDc3FxSUlKwdtVzOk4dPMLnr71D/ScH0V+uQ/A3v7TfoEdJiiJpxTwWPdz2VuXykgKOffEWKfr9JBovIonNl9I9fpEaj5mj/llkTH8Aa0Trz28qKiri1bVv8ffthzlzvBivx68OQSfqiLCbWHDPeB586F4GDR6gDmmi2wkrKTjPp6+tp+xvWVgLL6uzW8RnlKgb2ZsFP36YfqNGIKs2WVZXlnA27zP8BZvISCy9Lu9GuHwie4viiRl2H6kjZiEbrzmuCly6VMWerL289Pyf+WpPQVD3KkEn0Kt/FA+sup2l9y7CEWVvNsvebYRVFpeyb9sOzr6+BeV8BXpX85XVVhHAHWsj+q5pjLlzHqkj0/B6XBzbvx1z8ds4pEtEm93qUm1SUmvlsnEscu/ZpKZNAuC9jdvY8KftHMrJp+Zy68vwLWGzm8iYOIB7Vsxj4R3zrsv7pxemBALs3rSV7JfXYz9WguBv3kyFSkNKDDF3ZGC15TMz9TwWKUT5LVBUayGzeBwf7yrl84/ycTeEf83YRBu3zhvOUz9fTXx8HHSxsJB6iU6nk5xtO/jzt1eT+6OXceQVdYgsAPPZi1z83QdUbs7jXH49oX+NmtPDVs+M6B1M77mPBEcden34v2tFSS1b3szmnvmPsXXzxxSVlKtDOpWga1jxmXNsfvEVdFv2onN5O0yUGkWAQLQHYWQ9d90ZQXRUcD3Jtsg76+W3GxvYlWOlti70B5q0hMkqM2rKQLx9k8iJndYlNUx8+umnn1YnXkVRFErPFvLxb/7A7p+8jPnLfHReP0JwjtuFAOgaRIQzJvYecWGKCmAyCxiNITUGzYhziNw2yYjR3EC9W+FyDXh94V3T5/FTeLKcS2XlKIIPW1wcFosFq0HEatBjla/8axCxGkSMIlwsuUDfaw73XUt5eTkOh6PVwxI3FFZZXMZHf3yLQ796g/od+zG140YdLoZqibOHFM6d9yBE+EmID79mpA+QmTRShz3STWG5j9o6PYoS+t6Ka/FWexAKCxGqzuMN1BHVJ5VIY+cIa/Er5na7+Y//+j35r2zBn1eA6A7/Zt1eDA0S7n1mdv5Wx9sbqnA6lbDub4IAveN0PHqXmXd+LjNzUj2yFGjv+bom/A1eqnLyKVm3hVPrX8JZfRm/v+P/bi3WML/fz3snallvT+WSWcTkrMLh/HrG4mZgcIt4jhs4etxFleIloZcRSReGOSDKpmPOeBM94huoqvdSXmUk0MJgPxQUv0Ld2Ysc//sOGjw19Ow/gNjIxmayI2rYDYVt23+K47oeVPYahCclhtqaEnrUuhAC4X2gcBAQUColKg/pyS6tpE+KHpslvE6JJCoM6ytx+616KmqquFAu4HSF1/QqAYVAvULpkXPkHs5B8VWQPmp05ws76TKjE3U02JIo7Duc0w495ooyzP4A0s0Upwjoi40cOuSiyusnJl6HKYxOiSCApBeYOdrI8H5eatxeyirB4w3vy4Ci4CytI//gKY4fO0xMjA2DnrCEBf0pJWsk3ozZ7Pv2KnaPGorLFv553XAQfAKWIgv5f5V5+V0dvubTgSEjCDAl3ciLjxiYPduAOSK8mnYVd42PfX/L5b+fWYuhjYnktghaGIAiysiJKdTd/n3+OH40B/om4DV0zIcKFb9Rj3OolYjHFzF39S9w+8P/Peo9er7IN7Pu5Ld48Ecv0aNngjokZCRZJLFPJCuemMWG919l8qTGqbL20uLA2e12s/KV7XxwORpJFLBIIrJewCqL2E0SJkmHUa/DW34e+5HdRO05yMCK4M5EdQQX+1sZvGQmo26fT69+g3E56/n89TuZMTC44z1q/AGBfWdsXJDGMCh9EYOGD8fv9/PQ8if54N1sdXjQxCRZmb1oDPc+sIghQ4ZgauOhlsEMnEOqYWosSb0xL1pB5Q/XkDk4jjCHM60jQEDSUXp/Gg9nbuT21Wvo1W8wAEaThctKT3WJNlGAgCLw2PooTBOf584HnyEtPR29Xo/BYCC5f5K6SFAIOoE59wzlpTf/ld/8z8/IyMhoU1awhCXsKvF9Uujz+FPsW7GEwgEJ+HQda64uKQLp7rEMfHsN//b8WmwRdnUIorWPOqlVTlfI7CoazntVP+C5VzYwYvhwdQg9e4X2qqjIaCO3TErmxT8/zEu/+zXTp09Xh4RNWE2irBeINEpYDWJjjAi62sscePVFkk+W0a+yXn3pkPBaDVwal8L0VcsZMTodi9WmDmni2Fd7sOevIdHe+hynNyCSebY3ltSljBw9Gast8oaHEw4f/orbJj4S1Cz/kPSeLFkxiyV3L8LhcNzwmq0RTJPYojCvx8Ojr33AuxUxIQkziAJ2kx5J1FG652Ma/raDiNwC7O5mP6JV/BYDvr5xJH53IXMW3dbqB7iW/a/PYlTvOnUyAE6vSEF9Anne2YybMoeePYNrQscPm8+ZvJYXZQVBoGe/KBYsm8CdyxYwdOhQdUhItFsYisLJwhKe2nKYry4GcJuiQxZmMYg4yy9QuPtTat/bSmqJD6H5T2pG9cjepN4xg2FzppIa4svQ9r55N2MSC9TJ7CuK57I0gpTRS+k/oPG+FyxLF36Xz7YeVSeTlGwnfVI/HnpkOSNvGYG+HY80V9N+YVdQFIUtn37JH7KLKJSSMBoMIQmzyo0189KJPD56/VVGHCrFVONqJk4RdbjjbTTMGMbyf/8hiVceZhwqh99fzQjzlwgC+BWBOo/M9sIMMmaspP+AgerwoPjpk8/zu+e2gNLYmZANem6dP5AV31/KtGnT1OFhEbawq/zjbBFZuWfYfPQy/ujeIQuzySIWg8gXf91IwVub6VHagFzdOPvvTIrEOO0W0pfNZ1hGeps7lFrjVM4G4stfpsFn5Fh9Gsbk+QweNprIIN9r0hJ7sw+ydNbjeD0Bxtzan2XLFzBl2jgSEsIfo6npMGFcOfVeeKGYX67bQn3SCLwGe8jCDKKAHPDy9m9eIPD2LpQhPZn11MNkjB3T6nRMsJzJ+zufbH2dHsMWMmPW/GYbe9pDSXEZD9z7GPMWT+E7D3673Uddg6FDhV3F6/XyUdZetp/zUS/ZsFqtQQsz6nXYjHokUWDrpg0sXnhbUN/+Xbt2ceLECaKjo4mKiiIyMpJRo0apw6iqqsLr9RIbG6vOasaBAwfIycnB4XAQExNDREQEY8eOVYfh8XioqKigR48e6qxm5Ofns2PHDiIjI4mLi8NqtXLLLbdgvvZlA60QjLCQ+56SJLFg2kR+PHcI0xw1eEvy1SFtIgoCkVZLULIAcnJysFqtxMXFkZyczJkzZ9QhANjt9qBkAezcuROTyURsbCy9evW64VZyWZaDkgWw/8ABZFkmJiaGpKQkjEYjLpdLHRYWIQu7SlJCLMvnT+WecX2xFB1E8TS+pqIz8KoeTOL3hz/T6/Fev74X7LOeWkP9AJVAIBDU3sdQaLewq0xNH8Lq+xYw0eFEKD2JJ8wFwJZISkxs+mMEAgFsthsPoIOlb0oKniuv2VAUJazOzlUSExOvq1GiKAa9HT1YwhYGYDYZmTEhg8eXTMV2JpuAx3llpq5jWLp0KfHx8bhcLoqKipg5c6Y6JGTuu+8+UlNT8Xq9FBcXhz3oBZg5Ywbp6en4/X6Ki4ux2+3Y7c2n0cIh5E5HW3j9Cjn7v6Ks3o0SmUhkhLVZp8Oo1/Hph1tZvHixuvg3mk7pdLSFJApMGjuSb40fTlTDBU7v36MO0QiDDhd2FbPJxLTJE1g4NZ3S4we4XFaM/yZuK/j/QqcJu0piYiKzJo+jV4TE2bwDeJyd15v8JtDpwgDMZjMpKSn8y4Qx5O37kvLCM/g6oGv+TaTDOx3BcO7cOfZkZzOuhZmFbzI1NTUMHDiw1SHGTRFGC4NMjcb1tbbGbTdNmEb76JJ7mEbHoQnrZmjCuhmasG6GJqyb8X+zswpU9AS3IQAAAABJRU5ErkJggg==;" parent="GbwV-pNpVsjver55xcBY-3" vertex="1">
          <mxGeometry x="1458" y="653" width="48" height="41.33" as="geometry" />
        </mxCell>
        <mxCell id="GbwV-pNpVsjver55xcBY-4" value="" style="shape=image;verticalLabelPosition=bottom;labelBackgroundColor=default;verticalAlign=top;aspect=fixed;imageAspect=0;image=data:image/png,iVBORw0KGgoAAAANSUhEUgAAAGwAAABdCAYAAABAQIPFAAAAAXNSR0IArs4c6QAAAARnQU1BAACxjwv8YQUAAAAJcEhZcwAADsMAAA7DAcdvqGQAABH2SURBVHhe7Z15eFXlnYDfc8895+7JvdkTtgTCHhYT9k2GvSyCqIDLI8VKW3nqUoWZqdOx1i5aq52pONXaaqnKiNCKQBWFKJaoJOySUCCsCWQnkP3u98wfgQgnIbk3NwnNeN5/ePi+33eSm/d+3/nWcwRFURQ0ug06dYJG1xGorFQntYkm7Cbi/uBDAlVV6uRW0YTdTCwWnBs3qVNbRRN2M2lowJd7RJ3aKpqwm0UggPfYP9DFxatzWkUTdpPwFxTgyzuKPjVVndUqmrCbhPOddxD0egxzZquzWkUT1sUotbW4Nm/G9eF2DPPmoXM41CGtognrSgIBXFu3UvfrF5CGpWFacpc6ok0EbaajC1AUApcu4fzfd2hYtw4xMZHIl9ciJid/HeL1olReApMRXWTkdcWvRRPWBfjPn6fu2Wfx7MlGSkvD+pOnvu5seL14srJwZ2VhmDkTafhwBKtVfYkmNGGdSSCA7+RJqn/wMIGKCsQ+fYhc+xJi797g8+E7fZq6536FYLUS8dyzCBaL+grN0IR1Iu5PP6X+hRfwl1dgnDsX6xOPI0RGolRXU//713B/kolp8WKMy5a12gxeiyask/Du2UPNT58hUFyMcfFiLI89is5ux19QQO3Pfo7/9Gmsa9Y0dut1wff9NGGdgL+wkKrvfIdAWTn6wYOx/+kNBLMZxemk5okn8Hz+BZbHHsV8//2g16uLt0rwajWCQ1Fwf/ghgfIKdFFRWJ/8EYLZDIDns8/wZOegi4vDdPfdIctCE9YJ+Hz4LxSBoiD264c+JaUpy7n5ffD5kIYORTCZrisWLJqwjkYUm7rlutjYptoFjbPzAN6jR1Fqar5ODwFNWEej0yFPmgg6HUpdLYrH05QlJiYCECgvp+GNP11TKHg0YZ2ANGYM8uTJBEpKr9sGYLznbgSDAQDX1q14j4S2FoYmrHMQZJmIX/4CJAl3ZmZTuj4tDcOsmSCKBC5exBXiajOasM5DsNmwPvE4rr/8Fd+JE41pkoT5e99rnOkAXNu3q0q1jSasE5HS07E++SQNf3ydwMWLAIg9e2JZ9RAAgjn0nqImrDMRReSJEzCvXIk3N7cxTadDnjwZBAHDrNAWL9GEdQ36/qno+/Zt+r/v1CnkSZOwfHfldXHBoE1NdTGK04lz0yZMS5YgGI3q7DbRhHUxiseDIEkgCOqsoNCEdSJut5usrCx0Oh0TJ07EcGUMFg6asE7A7XZTU1PDtm3bMJlMmM1mGhoamD17NlarFVmW1UWCRhPWwZw9e5aDBw9SVlZGVFQUNpsNSZKQZZm6ujrMZjMjRowgOjpaXTQoNGEdhNPpZNOmTZSWluJwONDr9VitVsxmc5Mwg8GALMscP36c5ORkJkyYgBDivUwT1gF8svsLvvjsEywWC2azGb1e36owWZbx+XzU1NSQlJREcnIykiSpL9si2jisA9icdZj3zkHZxUvqrBvicDjo3bs3Pp+PzMxMAoGAOqRFNGEdgE4vUZo8jc91g9iVX0F1ba06pEX0ej0Oh4NRGRlkZmaSnZ2Nz+dTh12HJqwDaYgeSPXAb5HrjWNf3gmqq6vVIS1y+tQpdDoddXV1OJ1OdfZ1aMI6GlGGPunYpq/k0LkKzhcVt1hrAoEALpeLnTt3oggC06dPJz4+vs1OiCasE0mdeS8VhkROFJZQWFjYlO50OjmSm0txcTFz585l/PjxbYq6iiask+k3fDRpUxcQsCTw7saNHDt2jKNHjzJn9mymTJkS8nhME9YFiHqJ0ZMmsvo/n8FoNLJ8+XKMRmPQtepaNGFdiCAI2O12dCHs9FXT/pIaNwVNWDdDE9bN0IR1MzRh3QxNWDdDE9bN0IR1Mzpd2KWLlezbsYuadh6vaYn6+npyc7ZTXnpendVuXC4X297/iK8O5/HPvKbbqcL2fLCD9YtXcej+p1m36Psc2pWlDgmZ0ycOk/nG9xh4+VlOblvFZ9s3qENCprSkjIdWrGHVsme5f+EaXnh2rTrkn4YO3yLQUFNLQd4JPl+7Ds/uXKQGb1OeM85G7LyJjF1+B8lpgxBF8bqyN8Ln81B+4QQlh9cT4ztEn8ivFwgr6o0UBDKITVtGUsrwoJfaAY79I583//AXPtycRWnB1y2AbBQZM3UQK3+wjKnTJ2BsY8PnI796jY3uISRYZeJtBhJsEgkRBhIsEvERBhJsMvE2GbuscOxANjNmzFBfAoDc3FxSUlKwdtVzOk4dPMLnr71D/ScH0V+uQ/A3v7TfoEdJiiJpxTwWPdz2VuXykgKOffEWKfr9JBovIonNl9I9fpEaj5mj/llkTH8Aa0Trz28qKiri1bVv8ffthzlzvBivx68OQSfqiLCbWHDPeB586F4GDR6gDmmi2wkrKTjPp6+tp+xvWVgLL6uzW8RnlKgb2ZsFP36YfqNGIKs2WVZXlnA27zP8BZvISCy9Lu9GuHwie4viiRl2H6kjZiEbrzmuCly6VMWerL289Pyf+WpPQVD3KkEn0Kt/FA+sup2l9y7CEWVvNsvebYRVFpeyb9sOzr6+BeV8BXpX85XVVhHAHWsj+q5pjLlzHqkj0/B6XBzbvx1z8ds4pEtEm93qUm1SUmvlsnEscu/ZpKZNAuC9jdvY8KftHMrJp+Zy68vwLWGzm8iYOIB7Vsxj4R3zrsv7pxemBALs3rSV7JfXYz9WguBv3kyFSkNKDDF3ZGC15TMz9TwWKUT5LVBUayGzeBwf7yrl84/ycTeEf83YRBu3zhvOUz9fTXx8HHSxsJB6iU6nk5xtO/jzt1eT+6OXceQVdYgsAPPZi1z83QdUbs7jXH49oX+NmtPDVs+M6B1M77mPBEcden34v2tFSS1b3szmnvmPsXXzxxSVlKtDOpWga1jxmXNsfvEVdFv2onN5O0yUGkWAQLQHYWQ9d90ZQXRUcD3Jtsg76+W3GxvYlWOlti70B5q0hMkqM2rKQLx9k8iJndYlNUx8+umnn1YnXkVRFErPFvLxb/7A7p+8jPnLfHReP0JwjtuFAOgaRIQzJvYecWGKCmAyCxiNITUGzYhziNw2yYjR3EC9W+FyDXh94V3T5/FTeLKcS2XlKIIPW1wcFosFq0HEatBjla/8axCxGkSMIlwsuUDfaw73XUt5eTkOh6PVwxI3FFZZXMZHf3yLQ796g/od+zG140YdLoZqibOHFM6d9yBE+EmID79mpA+QmTRShz3STWG5j9o6PYoS+t6Ka/FWexAKCxGqzuMN1BHVJ5VIY+cIa/Er5na7+Y//+j35r2zBn1eA6A7/Zt1eDA0S7n1mdv5Wx9sbqnA6lbDub4IAveN0PHqXmXd+LjNzUj2yFGjv+bom/A1eqnLyKVm3hVPrX8JZfRm/v+P/bi3WML/fz3snallvT+WSWcTkrMLh/HrG4mZgcIt4jhs4etxFleIloZcRSReGOSDKpmPOeBM94huoqvdSXmUk0MJgPxQUv0Ld2Ysc//sOGjw19Ow/gNjIxmayI2rYDYVt23+K47oeVPYahCclhtqaEnrUuhAC4X2gcBAQUColKg/pyS6tpE+KHpslvE6JJCoM6ytx+616KmqquFAu4HSF1/QqAYVAvULpkXPkHs5B8VWQPmp05ws76TKjE3U02JIo7Duc0w495ooyzP4A0s0Upwjoi40cOuSiyusnJl6HKYxOiSCApBeYOdrI8H5eatxeyirB4w3vy4Ci4CytI//gKY4fO0xMjA2DnrCEBf0pJWsk3ozZ7Pv2KnaPGorLFv553XAQfAKWIgv5f5V5+V0dvubTgSEjCDAl3ciLjxiYPduAOSK8mnYVd42PfX/L5b+fWYuhjYnktghaGIAiysiJKdTd/n3+OH40B/om4DV0zIcKFb9Rj3OolYjHFzF39S9w+8P/Peo9er7IN7Pu5Ld48Ecv0aNngjokZCRZJLFPJCuemMWG919l8qTGqbL20uLA2e12s/KV7XxwORpJFLBIIrJewCqL2E0SJkmHUa/DW34e+5HdRO05yMCK4M5EdQQX+1sZvGQmo26fT69+g3E56/n89TuZMTC44z1q/AGBfWdsXJDGMCh9EYOGD8fv9/PQ8if54N1sdXjQxCRZmb1oDPc+sIghQ4ZgauOhlsEMnEOqYWosSb0xL1pB5Q/XkDk4jjCHM60jQEDSUXp/Gg9nbuT21Wvo1W8wAEaThctKT3WJNlGAgCLw2PooTBOf584HnyEtPR29Xo/BYCC5f5K6SFAIOoE59wzlpTf/ld/8z8/IyMhoU1awhCXsKvF9Uujz+FPsW7GEwgEJ+HQda64uKQLp7rEMfHsN//b8WmwRdnUIorWPOqlVTlfI7CoazntVP+C5VzYwYvhwdQg9e4X2qqjIaCO3TErmxT8/zEu/+zXTp09Xh4RNWE2irBeINEpYDWJjjAi62sscePVFkk+W0a+yXn3pkPBaDVwal8L0VcsZMTodi9WmDmni2Fd7sOevIdHe+hynNyCSebY3ltSljBw9Gast8oaHEw4f/orbJj4S1Cz/kPSeLFkxiyV3L8LhcNzwmq0RTJPYojCvx8Ojr33AuxUxIQkziAJ2kx5J1FG652Ma/raDiNwC7O5mP6JV/BYDvr5xJH53IXMW3dbqB7iW/a/PYlTvOnUyAE6vSEF9Anne2YybMoeePYNrQscPm8+ZvJYXZQVBoGe/KBYsm8CdyxYwdOhQdUhItFsYisLJwhKe2nKYry4GcJuiQxZmMYg4yy9QuPtTat/bSmqJD6H5T2pG9cjepN4xg2FzppIa4svQ9r55N2MSC9TJ7CuK57I0gpTRS+k/oPG+FyxLF36Xz7YeVSeTlGwnfVI/HnpkOSNvGYG+HY80V9N+YVdQFIUtn37JH7KLKJSSMBoMIQmzyo0189KJPD56/VVGHCrFVONqJk4RdbjjbTTMGMbyf/8hiVceZhwqh99fzQjzlwgC+BWBOo/M9sIMMmaspP+AgerwoPjpk8/zu+e2gNLYmZANem6dP5AV31/KtGnT1OFhEbawq/zjbBFZuWfYfPQy/ujeIQuzySIWg8gXf91IwVub6VHagFzdOPvvTIrEOO0W0pfNZ1hGeps7lFrjVM4G4stfpsFn5Fh9Gsbk+QweNprIIN9r0hJ7sw+ydNbjeD0Bxtzan2XLFzBl2jgSEsIfo6npMGFcOfVeeKGYX67bQn3SCLwGe8jCDKKAHPDy9m9eIPD2LpQhPZn11MNkjB3T6nRMsJzJ+zufbH2dHsMWMmPW/GYbe9pDSXEZD9z7GPMWT+E7D3673Uddg6FDhV3F6/XyUdZetp/zUS/ZsFqtQQsz6nXYjHokUWDrpg0sXnhbUN/+Xbt2ceLECaKjo4mKiiIyMpJRo0apw6iqqsLr9RIbG6vOasaBAwfIycnB4XAQExNDREQEY8eOVYfh8XioqKigR48e6qxm5Ofns2PHDiIjI4mLi8NqtXLLLbdgvvZlA60QjLCQ+56SJLFg2kR+PHcI0xw1eEvy1SFtIgoCkVZLULIAcnJysFqtxMXFkZyczJkzZ9QhANjt9qBkAezcuROTyURsbCy9evW64VZyWZaDkgWw/8ABZFkmJiaGpKQkjEYjLpdLHRYWIQu7SlJCLMvnT+WecX2xFB1E8TS+pqIz8KoeTOL3hz/T6/Fev74X7LOeWkP9AJVAIBDU3sdQaLewq0xNH8Lq+xYw0eFEKD2JJ8wFwJZISkxs+mMEAgFsthsPoIOlb0oKniuv2VAUJazOzlUSExOvq1GiKAa9HT1YwhYGYDYZmTEhg8eXTMV2JpuAx3llpq5jWLp0KfHx8bhcLoqKipg5c6Y6JGTuu+8+UlNT8Xq9FBcXhz3oBZg5Ywbp6en4/X6Ki4ux2+3Y7c2n0cIh5E5HW3j9Cjn7v6Ks3o0SmUhkhLVZp8Oo1/Hph1tZvHixuvg3mk7pdLSFJApMGjuSb40fTlTDBU7v36MO0QiDDhd2FbPJxLTJE1g4NZ3S4we4XFaM/yZuK/j/QqcJu0piYiKzJo+jV4TE2bwDeJyd15v8JtDpwgDMZjMpKSn8y4Qx5O37kvLCM/g6oGv+TaTDOx3BcO7cOfZkZzOuhZmFbzI1NTUMHDiw1SHGTRFGC4NMjcb1tbbGbTdNmEb76JJ7mEbHoQnrZmjCuhmasG6GJqyb8X+zswpU9AS3IQAAAABJRU5ErkJggg==;" parent="GbwV-pNpVsjver55xcBY-3" vertex="1">
          <mxGeometry x="1745" y="654" width="48" height="41.33" as="geometry" />
        </mxCell>
        <mxCell id="GbwV-pNpVsjver55xcBY-5" value="" style="shape=image;verticalLabelPosition=bottom;labelBackgroundColor=default;verticalAlign=top;aspect=fixed;imageAspect=0;image=data:image/png,iVBORw0KGgoAAAANSUhEUgAAAGwAAABdCAYAAABAQIPFAAAAAXNSR0IArs4c6QAAAARnQU1BAACxjwv8YQUAAAAJcEhZcwAADsMAAA7DAcdvqGQAABH2SURBVHhe7Z15eFXlnYDfc8895+7JvdkTtgTCHhYT9k2GvSyCqIDLI8VKW3nqUoWZqdOx1i5aq52pONXaaqnKiNCKQBWFKJaoJOySUCCsCWQnkP3u98wfgQgnIbk3NwnNeN5/ePi+33eSm/d+3/nWcwRFURQ0ug06dYJG1xGorFQntYkm7Cbi/uBDAlVV6uRW0YTdTCwWnBs3qVNbRRN2M2lowJd7RJ3aKpqwm0UggPfYP9DFxatzWkUTdpPwFxTgyzuKPjVVndUqmrCbhPOddxD0egxzZquzWkUT1sUotbW4Nm/G9eF2DPPmoXM41CGtognrSgIBXFu3UvfrF5CGpWFacpc6ok0EbaajC1AUApcu4fzfd2hYtw4xMZHIl9ciJid/HeL1olReApMRXWTkdcWvRRPWBfjPn6fu2Wfx7MlGSkvD+pOnvu5seL14srJwZ2VhmDkTafhwBKtVfYkmNGGdSSCA7+RJqn/wMIGKCsQ+fYhc+xJi797g8+E7fZq6536FYLUS8dyzCBaL+grN0IR1Iu5PP6X+hRfwl1dgnDsX6xOPI0RGolRXU//713B/kolp8WKMy5a12gxeiyask/Du2UPNT58hUFyMcfFiLI89is5ux19QQO3Pfo7/9Gmsa9Y0dut1wff9NGGdgL+wkKrvfIdAWTn6wYOx/+kNBLMZxemk5okn8Hz+BZbHHsV8//2g16uLt0rwajWCQ1Fwf/ghgfIKdFFRWJ/8EYLZDIDns8/wZOegi4vDdPfdIctCE9YJ+Hz4LxSBoiD264c+JaUpy7n5ffD5kIYORTCZrisWLJqwjkYUm7rlutjYptoFjbPzAN6jR1Fqar5ODwFNWEej0yFPmgg6HUpdLYrH05QlJiYCECgvp+GNP11TKHg0YZ2ANGYM8uTJBEpKr9sGYLznbgSDAQDX1q14j4S2FoYmrHMQZJmIX/4CJAl3ZmZTuj4tDcOsmSCKBC5exBXiajOasM5DsNmwPvE4rr/8Fd+JE41pkoT5e99rnOkAXNu3q0q1jSasE5HS07E++SQNf3ydwMWLAIg9e2JZ9RAAgjn0nqImrDMRReSJEzCvXIk3N7cxTadDnjwZBAHDrNAWL9GEdQ36/qno+/Zt+r/v1CnkSZOwfHfldXHBoE1NdTGK04lz0yZMS5YgGI3q7DbRhHUxiseDIEkgCOqsoNCEdSJut5usrCx0Oh0TJ07EcGUMFg6asE7A7XZTU1PDtm3bMJlMmM1mGhoamD17NlarFVmW1UWCRhPWwZw9e5aDBw9SVlZGVFQUNpsNSZKQZZm6ujrMZjMjRowgOjpaXTQoNGEdhNPpZNOmTZSWluJwONDr9VitVsxmc5Mwg8GALMscP36c5ORkJkyYgBDivUwT1gF8svsLvvjsEywWC2azGb1e36owWZbx+XzU1NSQlJREcnIykiSpL9si2jisA9icdZj3zkHZxUvqrBvicDjo3bs3Pp+PzMxMAoGAOqRFNGEdgE4vUZo8jc91g9iVX0F1ba06pEX0ej0Oh4NRGRlkZmaSnZ2Nz+dTh12HJqwDaYgeSPXAb5HrjWNf3gmqq6vVIS1y+tQpdDoddXV1OJ1OdfZ1aMI6GlGGPunYpq/k0LkKzhcVt1hrAoEALpeLnTt3oggC06dPJz4+vs1OiCasE0mdeS8VhkROFJZQWFjYlO50OjmSm0txcTFz585l/PjxbYq6iiask+k3fDRpUxcQsCTw7saNHDt2jKNHjzJn9mymTJkS8nhME9YFiHqJ0ZMmsvo/n8FoNLJ8+XKMRmPQtepaNGFdiCAI2O12dCHs9FXT/pIaNwVNWDdDE9bN0IR1MzRh3QxNWDdDE9bN0IR1Mzpd2KWLlezbsYuadh6vaYn6+npyc7ZTXnpendVuXC4X297/iK8O5/HPvKbbqcL2fLCD9YtXcej+p1m36Psc2pWlDgmZ0ycOk/nG9xh4+VlOblvFZ9s3qENCprSkjIdWrGHVsme5f+EaXnh2rTrkn4YO3yLQUFNLQd4JPl+7Ds/uXKQGb1OeM85G7LyJjF1+B8lpgxBF8bqyN8Ln81B+4QQlh9cT4ztEn8ivFwgr6o0UBDKITVtGUsrwoJfaAY79I583//AXPtycRWnB1y2AbBQZM3UQK3+wjKnTJ2BsY8PnI796jY3uISRYZeJtBhJsEgkRBhIsEvERBhJsMvE2GbuscOxANjNmzFBfAoDc3FxSUlKwdtVzOk4dPMLnr71D/ScH0V+uQ/A3v7TfoEdJiiJpxTwWPdz2VuXykgKOffEWKfr9JBovIonNl9I9fpEaj5mj/llkTH8Aa0Trz28qKiri1bVv8ffthzlzvBivx68OQSfqiLCbWHDPeB586F4GDR6gDmmi2wkrKTjPp6+tp+xvWVgLL6uzW8RnlKgb2ZsFP36YfqNGIKs2WVZXlnA27zP8BZvISCy9Lu9GuHwie4viiRl2H6kjZiEbrzmuCly6VMWerL289Pyf+WpPQVD3KkEn0Kt/FA+sup2l9y7CEWVvNsvebYRVFpeyb9sOzr6+BeV8BXpX85XVVhHAHWsj+q5pjLlzHqkj0/B6XBzbvx1z8ds4pEtEm93qUm1SUmvlsnEscu/ZpKZNAuC9jdvY8KftHMrJp+Zy68vwLWGzm8iYOIB7Vsxj4R3zrsv7pxemBALs3rSV7JfXYz9WguBv3kyFSkNKDDF3ZGC15TMz9TwWKUT5LVBUayGzeBwf7yrl84/ycTeEf83YRBu3zhvOUz9fTXx8HHSxsJB6iU6nk5xtO/jzt1eT+6OXceQVdYgsAPPZi1z83QdUbs7jXH49oX+NmtPDVs+M6B1M77mPBEcden34v2tFSS1b3szmnvmPsXXzxxSVlKtDOpWga1jxmXNsfvEVdFv2onN5O0yUGkWAQLQHYWQ9d90ZQXRUcD3Jtsg76+W3GxvYlWOlti70B5q0hMkqM2rKQLx9k8iJndYlNUx8+umnn1YnXkVRFErPFvLxb/7A7p+8jPnLfHReP0JwjtuFAOgaRIQzJvYecWGKCmAyCxiNITUGzYhziNw2yYjR3EC9W+FyDXh94V3T5/FTeLKcS2XlKIIPW1wcFosFq0HEatBjla/8axCxGkSMIlwsuUDfaw73XUt5eTkOh6PVwxI3FFZZXMZHf3yLQ796g/od+zG140YdLoZqibOHFM6d9yBE+EmID79mpA+QmTRShz3STWG5j9o6PYoS+t6Ka/FWexAKCxGqzuMN1BHVJ5VIY+cIa/Er5na7+Y//+j35r2zBn1eA6A7/Zt1eDA0S7n1mdv5Wx9sbqnA6lbDub4IAveN0PHqXmXd+LjNzUj2yFGjv+bom/A1eqnLyKVm3hVPrX8JZfRm/v+P/bi3WML/fz3snallvT+WSWcTkrMLh/HrG4mZgcIt4jhs4etxFleIloZcRSReGOSDKpmPOeBM94huoqvdSXmUk0MJgPxQUv0Ld2Ysc//sOGjw19Ow/gNjIxmayI2rYDYVt23+K47oeVPYahCclhtqaEnrUuhAC4X2gcBAQUColKg/pyS6tpE+KHpslvE6JJCoM6ytx+616KmqquFAu4HSF1/QqAYVAvULpkXPkHs5B8VWQPmp05ws76TKjE3U02JIo7Duc0w495ooyzP4A0s0Upwjoi40cOuSiyusnJl6HKYxOiSCApBeYOdrI8H5eatxeyirB4w3vy4Ci4CytI//gKY4fO0xMjA2DnrCEBf0pJWsk3ozZ7Pv2KnaPGorLFv553XAQfAKWIgv5f5V5+V0dvubTgSEjCDAl3ciLjxiYPduAOSK8mnYVd42PfX/L5b+fWYuhjYnktghaGIAiysiJKdTd/n3+OH40B/om4DV0zIcKFb9Rj3OolYjHFzF39S9w+8P/Peo9er7IN7Pu5Ld48Ecv0aNngjokZCRZJLFPJCuemMWG919l8qTGqbL20uLA2e12s/KV7XxwORpJFLBIIrJewCqL2E0SJkmHUa/DW34e+5HdRO05yMCK4M5EdQQX+1sZvGQmo26fT69+g3E56/n89TuZMTC44z1q/AGBfWdsXJDGMCh9EYOGD8fv9/PQ8if54N1sdXjQxCRZmb1oDPc+sIghQ4ZgauOhlsEMnEOqYWosSb0xL1pB5Q/XkDk4jjCHM60jQEDSUXp/Gg9nbuT21Wvo1W8wAEaThctKT3WJNlGAgCLw2PooTBOf584HnyEtPR29Xo/BYCC5f5K6SFAIOoE59wzlpTf/ld/8z8/IyMhoU1awhCXsKvF9Uujz+FPsW7GEwgEJ+HQda64uKQLp7rEMfHsN//b8WmwRdnUIorWPOqlVTlfI7CoazntVP+C5VzYwYvhwdQg9e4X2qqjIaCO3TErmxT8/zEu/+zXTp09Xh4RNWE2irBeINEpYDWJjjAi62sscePVFkk+W0a+yXn3pkPBaDVwal8L0VcsZMTodi9WmDmni2Fd7sOevIdHe+hynNyCSebY3ltSljBw9Gast8oaHEw4f/orbJj4S1Cz/kPSeLFkxiyV3L8LhcNzwmq0RTJPYojCvx8Ojr33AuxUxIQkziAJ2kx5J1FG652Ma/raDiNwC7O5mP6JV/BYDvr5xJH53IXMW3dbqB7iW/a/PYlTvOnUyAE6vSEF9Anne2YybMoeePYNrQscPm8+ZvJYXZQVBoGe/KBYsm8CdyxYwdOhQdUhItFsYisLJwhKe2nKYry4GcJuiQxZmMYg4yy9QuPtTat/bSmqJD6H5T2pG9cjepN4xg2FzppIa4svQ9r55N2MSC9TJ7CuK57I0gpTRS+k/oPG+FyxLF36Xz7YeVSeTlGwnfVI/HnpkOSNvGYG+HY80V9N+YVdQFIUtn37JH7KLKJSSMBoMIQmzyo0189KJPD56/VVGHCrFVONqJk4RdbjjbTTMGMbyf/8hiVceZhwqh99fzQjzlwgC+BWBOo/M9sIMMmaspP+AgerwoPjpk8/zu+e2gNLYmZANem6dP5AV31/KtGnT1OFhEbawq/zjbBFZuWfYfPQy/ujeIQuzySIWg8gXf91IwVub6VHagFzdOPvvTIrEOO0W0pfNZ1hGeps7lFrjVM4G4stfpsFn5Fh9Gsbk+QweNprIIN9r0hJ7sw+ydNbjeD0Bxtzan2XLFzBl2jgSEsIfo6npMGFcOfVeeKGYX67bQn3SCLwGe8jCDKKAHPDy9m9eIPD2LpQhPZn11MNkjB3T6nRMsJzJ+zufbH2dHsMWMmPW/GYbe9pDSXEZD9z7GPMWT+E7D3673Uddg6FDhV3F6/XyUdZetp/zUS/ZsFqtQQsz6nXYjHokUWDrpg0sXnhbUN/+Xbt2ceLECaKjo4mKiiIyMpJRo0apw6iqqsLr9RIbG6vOasaBAwfIycnB4XAQExNDREQEY8eOVYfh8XioqKigR48e6qxm5Ofns2PHDiIjI4mLi8NqtXLLLbdgvvZlA60QjLCQ+56SJLFg2kR+PHcI0xw1eEvy1SFtIgoCkVZLULIAcnJysFqtxMXFkZyczJkzZ9QhANjt9qBkAezcuROTyURsbCy9evW64VZyWZaDkgWw/8ABZFkmJiaGpKQkjEYjLpdLHRYWIQu7SlJCLMvnT+WecX2xFB1E8TS+pqIz8KoeTOL3hz/T6/Fev74X7LOeWkP9AJVAIBDU3sdQaLewq0xNH8Lq+xYw0eFEKD2JJ8wFwJZISkxs+mMEAgFsthsPoIOlb0oKniuv2VAUJazOzlUSExOvq1GiKAa9HT1YwhYGYDYZmTEhg8eXTMV2JpuAx3llpq5jWLp0KfHx8bhcLoqKipg5c6Y6JGTuu+8+UlNT8Xq9FBcXhz3oBZg5Ywbp6en4/X6Ki4ux2+3Y7c2n0cIh5E5HW3j9Cjn7v6Ks3o0SmUhkhLVZp8Oo1/Hph1tZvHixuvg3mk7pdLSFJApMGjuSb40fTlTDBU7v36MO0QiDDhd2FbPJxLTJE1g4NZ3S4we4XFaM/yZuK/j/QqcJu0piYiKzJo+jV4TE2bwDeJyd15v8JtDpwgDMZjMpKSn8y4Qx5O37kvLCM/g6oGv+TaTDOx3BcO7cOfZkZzOuhZmFbzI1NTUMHDiw1SHGTRFGC4NMjcb1tbbGbTdNmEb76JJ7mEbHoQnrZmjCuhmasG6GJqyb8X+zswpU9AS3IQAAAABJRU5ErkJggg==;" parent="GbwV-pNpVsjver55xcBY-3" vertex="1">
          <mxGeometry x="2029" y="652" width="48" height="41.33" as="geometry" />
        </mxCell>
        <mxCell id="GbwV-pNpVsjver55xcBY-6" value="C99" style="text;html=1;align=center;verticalAlign=middle;resizable=0;points=[];autosize=1;strokeColor=none;fillColor=none;fontStyle=0;fontSize=14;fontColor=#B3B3B3;" parent="GbwV-pNpVsjver55xcBY-3" vertex="1">
          <mxGeometry x="1457" y="695.33" width="50" height="30" as="geometry" />
        </mxCell>
        <mxCell id="GbwV-pNpVsjver55xcBY-7" value="C++11" style="text;html=1;align=center;verticalAlign=middle;resizable=0;points=[];autosize=1;strokeColor=none;fillColor=none;fontStyle=0;fontSize=14;fontColor=#B3B3B3;" parent="GbwV-pNpVsjver55xcBY-3" vertex="1">
          <mxGeometry x="1739" y="695.33" width="60" height="30" as="geometry" />
        </mxCell>
        <mxCell id="GbwV-pNpVsjver55xcBY-8" value="C++11" style="text;html=1;align=center;verticalAlign=middle;resizable=0;points=[];autosize=1;strokeColor=none;fillColor=none;fontStyle=0;fontSize=14;fontColor=#B3B3B3;" parent="GbwV-pNpVsjver55xcBY-3" vertex="1">
          <mxGeometry x="2024" y="692.33" width="60" height="30" as="geometry" />
        </mxCell>
      </root>
    </mxGraphModel>
  </diagram>
  <diagram id="9u6kwXQ8ateQOtc-Y_wX" name="buttons">
    <mxGraphModel dx="61" dy="660" grid="1" gridSize="10" guides="1" tooltips="1" connect="1" arrows="1" fold="1" page="0" pageScale="1" pageWidth="827" pageHeight="1169" math="0" shadow="0">
      <root>
        <mxCell id="0" />
        <mxCell id="1" parent="0" />
        <mxCell id="zj6IknggAHTS4JdcJFiM-7" value="calls update()" style="edgeStyle=orthogonalEdgeStyle;rounded=0;orthogonalLoop=1;jettySize=auto;html=1;" parent="1" source="zj6IknggAHTS4JdcJFiM-1" target="zj6IknggAHTS4JdcJFiM-3" edge="1">
          <mxGeometry x="-0.2727" relative="1" as="geometry">
            <mxPoint as="offset" />
          </mxGeometry>
        </mxCell>
        <mxCell id="zj6IknggAHTS4JdcJFiM-1" value="Buttons" style="shape=swimlane;rotatable=0;align=center;verticalAlign=top;fontFamily=Lucida Console;startSize=30;fontSize=14;fontStyle=1;fontColor=#ffffff;fillColor=#1ba1e2;swimlaneFillColor=default;rounded=1;arcSize=15;absoluteArcSize=1;collapsible=0;strokeColor=#006EAF;" parent="1" vertex="1">
          <mxGeometry x="1420" y="380" width="240" height="90" as="geometry" />
        </mxCell>
        <mxCell id="zj6IknggAHTS4JdcJFiM-2" value="&lt;div style=&quot;color: rgb(204, 204, 204); background-color: rgb(31, 31, 31); font-family: Consolas, &amp;quot;Courier New&amp;quot;, monospace; font-size: 14px; line-height: 19px; white-space-collapse: preserve;&quot;&gt;&lt;span style=&quot;color: #4ec9b0;&quot;&gt;MyArduinoButton&lt;/span&gt; &lt;span style=&quot;color: #9cdcfe;&quot;&gt;m_buttons&lt;/span&gt;[&lt;span style=&quot;color: #b5cea8;&quot;&gt;4&lt;/span&gt;]&lt;/div&gt;" style="fontFamily=Lucida Console;align=left;verticalAlign=top;fillColor=none;gradientColor=none;strokeColor=none;rounded=0;spacingLeft=4;resizable=0;movable=0;deletable=0;rotatable=0;autosize=1;html=1;" parent="zj6IknggAHTS4JdcJFiM-1" vertex="1" connectable="0">
          <mxGeometry y="30" width="240" height="30" as="geometry" />
        </mxCell>
        <mxCell id="zj6IknggAHTS4JdcJFiM-8" value="dispatches &#39;do&#39; event to state machine" style="edgeStyle=orthogonalEdgeStyle;rounded=0;orthogonalLoop=1;jettySize=auto;html=1;" parent="1" source="zj6IknggAHTS4JdcJFiM-3" target="zj6IknggAHTS4JdcJFiM-5" edge="1">
          <mxGeometry relative="1" as="geometry" />
        </mxCell>
        <mxCell id="zj6IknggAHTS4JdcJFiM-3" value="MyArduinoButton" style="shape=swimlane;rotatable=0;align=center;verticalAlign=top;fontFamily=Lucida Console;startSize=30;fontSize=14;fontStyle=1;fontColor=#ffffff;fillColor=#1ba1e2;swimlaneFillColor=default;rounded=1;arcSize=15;absoluteArcSize=1;collapsible=0;strokeColor=#006EAF;" parent="1" vertex="1">
          <mxGeometry x="1445" y="525" width="190" height="105" as="geometry" />
        </mxCell>
        <mxCell id="zj6IknggAHTS4JdcJFiM-4" value="&lt;div style=&quot;color: rgb(204, 204, 204); background-color: rgb(31, 31, 31); font-family: Consolas, &amp;quot;Courier New&amp;quot;, monospace; font-size: 14px; line-height: 19px; white-space-collapse: preserve;&quot;&gt;&lt;span style=&quot;color: #4ec9b0;&quot;&gt;&lt;div style=&quot;color: rgb(204, 204, 204); line-height: 19px;&quot;&gt;&lt;span style=&quot;color: #c586c0;&quot;&gt;#include&lt;/span&gt;&lt;span style=&quot;color: #569cd6;&quot;&gt; &lt;/span&gt;&lt;span style=&quot;color: #ce9178;&quot;&gt;&amp;lt;Arduino.h&amp;gt;&lt;/span&gt;&lt;/div&gt;&lt;/span&gt;&lt;/div&gt;&lt;div style=&quot;color: rgb(204, 204, 204); background-color: rgb(31, 31, 31); font-family: Consolas, &amp;quot;Courier New&amp;quot;, monospace; font-size: 14px; line-height: 19px; white-space-collapse: preserve;&quot;&gt;&lt;span style=&quot;color: #4ec9b0;&quot;&gt;uint8_t&lt;/span&gt; &lt;span style=&quot;color: #9cdcfe;&quot;&gt;pin&lt;/span&gt;&lt;/div&gt;&lt;div style=&quot;color: rgb(204, 204, 204); background-color: rgb(31, 31, 31); font-family: Consolas, &amp;quot;Courier New&amp;quot;, monospace; font-size: 14px; line-height: 19px; white-space-collapse: preserve;&quot;&gt;&lt;span style=&quot;color: #9cdcfe;&quot;&gt;&lt;span style=&quot;color: #4ec9b0;&quot;&gt;ButtonSm&lt;/span&gt; fsm&lt;/span&gt;&lt;/div&gt;" style="fontFamily=Lucida Console;align=left;verticalAlign=top;fillColor=none;gradientColor=none;strokeColor=none;rounded=0;spacingLeft=4;resizable=0;movable=0;deletable=0;rotatable=0;autosize=1;html=1;" parent="zj6IknggAHTS4JdcJFiM-3" vertex="1" connectable="0">
          <mxGeometry y="30" width="180" height="70" as="geometry" />
        </mxCell>
        <mxCell id="zj6IknggAHTS4JdcJFiM-5" value="ButtonSm" style="shape=swimlane;rotatable=0;align=center;verticalAlign=top;fontFamily=Lucida Console;startSize=30;fontSize=14;fontStyle=1;fontColor=#ffffff;fillColor=#1ba1e2;swimlaneFillColor=default;rounded=1;arcSize=15;absoluteArcSize=1;collapsible=0;strokeColor=#006EAF;" parent="1" vertex="1">
          <mxGeometry x="1430" y="680" width="220" height="230" as="geometry" />
        </mxCell>
        <mxCell id="zj6IknggAHTS4JdcJFiM-6" value="&lt;div style=&quot;color: rgb(204, 204, 204); background-color: rgb(31, 31, 31); font-family: Consolas, &amp;quot;Courier New&amp;quot;, monospace; font-size: 14px; line-height: 19px; white-space-collapse: preserve;&quot;&gt;&lt;div style=&quot;line-height: 19px;&quot;&gt;&lt;div&gt;&lt;span style=&quot;color: #4ec9b0;&quot;&gt;&lt;div style=&quot;color: rgb(204, 204, 204); line-height: 19px;&quot;&gt;&lt;span style=&quot;color: #6a9955;&quot;&gt;// INPUTs&lt;/span&gt;&lt;/div&gt;&lt;/span&gt;&lt;/div&gt;&lt;div&gt;&lt;span style=&quot;color: #4ec9b0;&quot;&gt;uint16_t&lt;/span&gt; &lt;span style=&quot;color: #9cdcfe;&quot;&gt;timer_ms&lt;/span&gt;;&lt;/div&gt;&lt;div&gt;&lt;span style=&quot;color: #4ec9b0;&quot;&gt;uint8_t&lt;/span&gt; &lt;span style=&quot;color: #9cdcfe;&quot;&gt;input_active&lt;/span&gt;: &lt;span style=&quot;color: #b5cea8;&quot;&gt;1&lt;/span&gt;;&lt;/div&gt;&lt;br&gt;&lt;div&gt;&lt;span style=&quot;color: #4ec9b0;&quot;&gt;&lt;div style=&quot;color: rgb(204, 204, 204); line-height: 19px;&quot;&gt;&lt;span style=&quot;color: #6a9955;&quot;&gt;// OUTPUTs&lt;/span&gt;&lt;/div&gt;&lt;/span&gt;&lt;/div&gt;&lt;div&gt;&lt;span style=&quot;color: #4ec9b0;&quot;&gt;uint8_t&lt;/span&gt; &lt;span style=&quot;color: #9cdcfe;&quot;&gt;release_event&lt;/span&gt;: &lt;span style=&quot;color: #b5cea8;&quot;&gt;1&lt;/span&gt;;&lt;/div&gt;&lt;div&gt;&lt;span style=&quot;color: #4ec9b0;&quot;&gt;uint8_t&lt;/span&gt; &lt;span style=&quot;color: #9cdcfe;&quot;&gt;press_event&lt;/span&gt;: &lt;span style=&quot;color: #b5cea8;&quot;&gt;1&lt;/span&gt;;&lt;/div&gt;&lt;div&gt;&lt;span style=&quot;color: #4ec9b0;&quot;&gt;uint8_t&lt;/span&gt; &lt;span style=&quot;color: #9cdcfe;&quot;&gt;long_event&lt;/span&gt;: &lt;span style=&quot;color: #b5cea8;&quot;&gt;1&lt;/span&gt;;&lt;/div&gt;&lt;div&gt;&lt;span style=&quot;color: #4ec9b0;&quot;&gt;uint8_t&lt;/span&gt; &lt;span style=&quot;color: #9cdcfe;&quot;&gt;press_status&lt;/span&gt;: &lt;span style=&quot;color: #b5cea8;&quot;&gt;1&lt;/span&gt;;&lt;/div&gt;&lt;div&gt;&lt;span style=&quot;color: #4ec9b0;&quot;&gt;uint8_t&lt;/span&gt; &lt;span style=&quot;color: #9cdcfe;&quot;&gt;long_status&lt;/span&gt;: &lt;span style=&quot;color: #b5cea8;&quot;&gt;1&lt;/span&gt;;&lt;/div&gt;&lt;/div&gt;&lt;/div&gt;" style="fontFamily=Lucida Console;align=left;verticalAlign=top;fillColor=none;gradientColor=none;strokeColor=none;rounded=0;spacingLeft=4;resizable=0;movable=0;deletable=0;rotatable=0;autosize=1;html=1;" parent="zj6IknggAHTS4JdcJFiM-5" vertex="1" connectable="0">
          <mxGeometry y="30" width="220" height="200" as="geometry" />
        </mxCell>
        <mxCell id="zj6IknggAHTS4JdcJFiM-11" value="A thin wrapper around the portable `ButtonSm` state machine to make it easy to use with Arduino.&lt;div&gt;&lt;br&gt;&lt;/div&gt;&lt;div&gt;&lt;b&gt;Reads&lt;/b&gt;&amp;nbsp;board input pin, sets `ButtonSm.input_active`.&lt;/div&gt;&lt;div&gt;&lt;b&gt;Adds&lt;/b&gt; time to `ButtonSm.timer_ms`.&lt;/div&gt;" style="shape=note;strokeWidth=2;fontSize=14;size=12;whiteSpace=wrap;html=1;fillColor=#fff2cc;strokeColor=#d6b656;fontColor=#2B2B00;align=left;spacingLeft=6;" parent="1" vertex="1">
          <mxGeometry x="1680" y="525" width="360" height="105" as="geometry" />
        </mxCell>
        <mxCell id="zj6IknggAHTS4JdcJFiM-12" value="Portable button state machine that tracks various states and events like long press.&lt;div&gt;&lt;br&gt;&lt;/div&gt;&lt;div&gt;When run, it reads its inputs, then writes to its outputs. That&#39;s all. Completely portable.&lt;/div&gt;&lt;div&gt;&lt;br&gt;&lt;/div&gt;&lt;div&gt;Very light weight.&lt;/div&gt;&lt;div&gt;&lt;b&gt;Only 4 bytes of RAM&lt;/b&gt; per instance (on AVR).&lt;/div&gt;&lt;div&gt;&lt;br&gt;&lt;/div&gt;&lt;div&gt;Many equivalent Arduino libraries require &lt;b&gt;&lt;font style=&quot;color: rgb(203, 0, 0);&quot;&gt;x8&lt;/font&gt;&lt;/b&gt; more RAM per instance.&lt;/div&gt;" style="shape=note;strokeWidth=2;fontSize=14;size=12;whiteSpace=wrap;html=1;fillColor=#fff2cc;strokeColor=#d6b656;fontColor=#2B2B00;align=left;spacingLeft=6;" parent="1" vertex="1">
          <mxGeometry x="1680" y="680" width="300" height="200" as="geometry" />
        </mxCell>
        <mxCell id="zj6IknggAHTS4JdcJFiM-13" value="4 buttons instances: UP, DOWN, BACK, ENTER&lt;div&gt;&lt;br&gt;&lt;/div&gt;&lt;div&gt;Reads `ButtonSm` output fields and sends events like `UP_PRESS` to User Interface.&lt;/div&gt;" style="shape=note;strokeWidth=2;fontSize=14;size=12;whiteSpace=wrap;html=1;fillColor=#fff2cc;strokeColor=#d6b656;fontColor=#2B2B00;align=left;spacingLeft=6;" parent="1" vertex="1">
          <mxGeometry x="1680" y="380" width="360" height="90" as="geometry" />
        </mxCell>
      </root>
    </mxGraphModel>
  </diagram>
</mxfile>
